<?xml version="1.0" encoding="utf-8" standalone="no"?>
<!DOCTYPE svg PUBLIC "-//W3C//DTD SVG 1.1//EN"
  "http://www.w3.org/Graphics/SVG/1.1/DTD/svg11.dtd">
<!-- Created with matplotlib (http://matplotlib.org/) -->
<svg height="508pt" version="1.1" viewBox="0 0 724 508" width="724pt" xmlns="http://www.w3.org/2000/svg" xmlns:xlink="http://www.w3.org/1999/xlink">
 <defs>
  <style type="text/css">
*{stroke-linecap:butt;stroke-linejoin:round;}
  </style>
 </defs>
 <g id="figure_1">
  <g id="patch_1">
   <path d="
M0 508.21
L724.745 508.21
L724.745 0
L0 0
L0 508.21" style="fill:none;"/>
  </g>
  <g id="axes_1">
   <g id="patch_2">
    <path d="
M42.3856 467.718
L711.986 467.718
L711.986 21.3181
L42.3856 21.3181
z
" style="fill:#ffffff;"/>
   </g>
   <g id="matplotlib.axis_1">
    <g id="xtick_1">
     <g id="line2d_1">
      <path clip-path="url(#p440ca91bfd)" d="
M42.3856 467.718
L42.3856 21.3181" style="fill:none;stroke:#cccccc;stroke-linecap:round;"/>
     </g>
     <g id="line2d_2">
      <defs>
       <path d="
M0 0
L0 0" id="m219da94a98" style="stroke:#262626;"/>
      </defs>
      <g>
       <use style="fill:#262626;stroke:#262626;" x="42.385625" xlink:href="#m219da94a98" y="467.718125"/>
      </g>
     </g>
     <g id="line2d_3">
      <g>
       <use style="fill:#262626;stroke:#262626;" x="42.385625" xlink:href="#m219da94a98" y="21.318125"/>
      </g>
     </g>
     <g id="text_1">
      <!-- 0 -->
      <defs>
       <path d="
M31.7812 66.4062
Q24.1719 66.4062 20.3281 58.9062
Q16.5 51.4219 16.5 36.375
Q16.5 21.3906 20.3281 13.8906
Q24.1719 6.39062 31.7812 6.39062
Q39.4531 6.39062 43.2812 13.8906
Q47.125 21.3906 47.125 36.375
Q47.125 51.4219 43.2812 58.9062
Q39.4531 66.4062 31.7812 66.4062
M31.7812 74.2188
Q44.0469 74.2188 50.5156 64.5156
Q56.9844 54.8281 56.9844 36.375
Q56.9844 17.9688 50.5156 8.26562
Q44.0469 -1.42188 31.7812 -1.42188
Q19.5312 -1.42188 13.0625 8.26562
Q6.59375 17.9688 6.59375 36.375
Q6.59375 54.8281 13.0625 64.5156
Q19.5312 74.2188 31.7812 74.2188" id="BitstreamVeraSans-Roman-30"/>
      </defs>
      <g style="fill:#262626;" transform="translate(39.86609375 482.3165625)scale(0.1 -0.1)">
       <use xlink:href="#BitstreamVeraSans-Roman-30"/>
      </g>
     </g>
    </g>
    <g id="xtick_2">
     <g id="line2d_4">
      <path clip-path="url(#p440ca91bfd)" d="
M176.306 467.718
L176.306 21.3181" style="fill:none;stroke:#cccccc;stroke-linecap:round;"/>
     </g>
     <g id="line2d_5">
      <g>
       <use style="fill:#262626;stroke:#262626;" x="176.305625" xlink:href="#m219da94a98" y="467.718125"/>
      </g>
     </g>
     <g id="line2d_6">
      <g>
       <use style="fill:#262626;stroke:#262626;" x="176.305625" xlink:href="#m219da94a98" y="21.318125"/>
      </g>
     </g>
     <g id="text_2">
      <!-- 5 -->
      <defs>
       <path d="
M10.7969 72.9062
L49.5156 72.9062
L49.5156 64.5938
L19.8281 64.5938
L19.8281 46.7344
Q21.9688 47.4688 24.1094 47.8281
Q26.2656 48.1875 28.4219 48.1875
Q40.625 48.1875 47.75 41.5
Q54.8906 34.8125 54.8906 23.3906
Q54.8906 11.625 47.5625 5.09375
Q40.2344 -1.42188 26.9062 -1.42188
Q22.3125 -1.42188 17.5469 -0.640625
Q12.7969 0.140625 7.71875 1.70312
L7.71875 11.625
Q12.1094 9.23438 16.7969 8.0625
Q21.4844 6.89062 26.7031 6.89062
Q35.1562 6.89062 40.0781 11.3281
Q45.0156 15.7656 45.0156 23.3906
Q45.0156 31 40.0781 35.4375
Q35.1562 39.8906 26.7031 39.8906
Q22.75 39.8906 18.8125 39.0156
Q14.8906 38.1406 10.7969 36.2812
z
" id="BitstreamVeraSans-Roman-35"/>
      </defs>
      <g style="fill:#262626;" transform="translate(173.94703125 482.3165625)scale(0.1 -0.1)">
       <use xlink:href="#BitstreamVeraSans-Roman-35"/>
      </g>
     </g>
    </g>
    <g id="xtick_3">
     <g id="line2d_7">
      <path clip-path="url(#p440ca91bfd)" d="
M310.226 467.718
L310.226 21.3181" style="fill:none;stroke:#cccccc;stroke-linecap:round;"/>
     </g>
     <g id="line2d_8">
      <g>
       <use style="fill:#262626;stroke:#262626;" x="310.225625" xlink:href="#m219da94a98" y="467.718125"/>
      </g>
     </g>
     <g id="line2d_9">
      <g>
       <use style="fill:#262626;stroke:#262626;" x="310.225625" xlink:href="#m219da94a98" y="21.318125"/>
      </g>
     </g>
     <g id="text_3">
      <!-- 10 -->
      <defs>
       <path d="
M12.4062 8.29688
L28.5156 8.29688
L28.5156 63.9219
L10.9844 60.4062
L10.9844 69.3906
L28.4219 72.9062
L38.2812 72.9062
L38.2812 8.29688
L54.3906 8.29688
L54.3906 0
L12.4062 0
z
" id="BitstreamVeraSans-Roman-31"/>
      </defs>
      <g style="fill:#262626;" transform="translate(304.744375 482.3165625)scale(0.1 -0.1)">
       <use xlink:href="#BitstreamVeraSans-Roman-31"/>
       <use x="63.623046875" xlink:href="#BitstreamVeraSans-Roman-30"/>
      </g>
     </g>
    </g>
    <g id="xtick_4">
     <g id="line2d_10">
      <path clip-path="url(#p440ca91bfd)" d="
M444.146 467.718
L444.146 21.3181" style="fill:none;stroke:#cccccc;stroke-linecap:round;"/>
     </g>
     <g id="line2d_11">
      <g>
       <use style="fill:#262626;stroke:#262626;" x="444.145625" xlink:href="#m219da94a98" y="467.718125"/>
      </g>
     </g>
     <g id="line2d_12">
      <g>
       <use style="fill:#262626;stroke:#262626;" x="444.145625" xlink:href="#m219da94a98" y="21.318125"/>
      </g>
     </g>
     <g id="text_4">
      <!-- 15 -->
      <g style="fill:#262626;" transform="translate(438.7690625 482.3165625)scale(0.1 -0.1)">
       <use xlink:href="#BitstreamVeraSans-Roman-31"/>
       <use x="63.623046875" xlink:href="#BitstreamVeraSans-Roman-35"/>
      </g>
     </g>
    </g>
    <g id="xtick_5">
     <g id="line2d_13">
      <path clip-path="url(#p440ca91bfd)" d="
M578.066 467.718
L578.066 21.3181" style="fill:none;stroke:#cccccc;stroke-linecap:round;"/>
     </g>
     <g id="line2d_14">
      <g>
       <use style="fill:#262626;stroke:#262626;" x="578.065625" xlink:href="#m219da94a98" y="467.718125"/>
      </g>
     </g>
     <g id="line2d_15">
      <g>
       <use style="fill:#262626;stroke:#262626;" x="578.065625" xlink:href="#m219da94a98" y="21.318125"/>
      </g>
     </g>
     <g id="text_5">
      <!-- 20 -->
      <defs>
       <path d="
M19.1875 8.29688
L53.6094 8.29688
L53.6094 0
L7.32812 0
L7.32812 8.29688
Q12.9375 14.1094 22.625 23.8906
Q32.3281 33.6875 34.8125 36.5312
Q39.5469 41.8438 41.4219 45.5312
Q43.3125 49.2188 43.3125 52.7812
Q43.3125 58.5938 39.2344 62.25
Q35.1562 65.9219 28.6094 65.9219
Q23.9688 65.9219 18.8125 64.3125
Q13.6719 62.7031 7.8125 59.4219
L7.8125 69.3906
Q13.7656 71.7812 18.9375 73
Q24.125 74.2188 28.4219 74.2188
Q39.75 74.2188 46.4844 68.5469
Q53.2188 62.8906 53.2188 53.4219
Q53.2188 48.9219 51.5312 44.8906
Q49.8594 40.875 45.4062 35.4062
Q44.1875 33.9844 37.6406 27.2188
Q31.1094 20.4531 19.1875 8.29688" id="BitstreamVeraSans-Roman-32"/>
      </defs>
      <g style="fill:#262626;" transform="translate(572.4015625 482.3165625)scale(0.1 -0.1)">
       <use xlink:href="#BitstreamVeraSans-Roman-32"/>
       <use x="63.623046875" xlink:href="#BitstreamVeraSans-Roman-30"/>
      </g>
     </g>
    </g>
    <g id="xtick_6">
     <g id="line2d_16">
      <path clip-path="url(#p440ca91bfd)" d="
M711.986 467.718
L711.986 21.3181" style="fill:none;stroke:#cccccc;stroke-linecap:round;"/>
     </g>
     <g id="line2d_17">
      <g>
       <use style="fill:#262626;stroke:#262626;" x="711.985625" xlink:href="#m219da94a98" y="467.718125"/>
      </g>
     </g>
     <g id="line2d_18">
      <g>
       <use style="fill:#262626;stroke:#262626;" x="711.985625" xlink:href="#m219da94a98" y="21.318125"/>
      </g>
     </g>
     <g id="text_6">
      <!-- 25 -->
      <g style="fill:#262626;" transform="translate(706.42625 482.3165625)scale(0.1 -0.1)">
       <use xlink:href="#BitstreamVeraSans-Roman-32"/>
       <use x="63.623046875" xlink:href="#BitstreamVeraSans-Roman-35"/>
      </g>
     </g>
    </g>
    <g id="text_7">
     <!-- Time of the day (hours) -->
     <defs>
      <path id="BitstreamVeraSans-Roman-20"/>
      <path d="
M8.5 21.5781
L8.5 54.6875
L17.4844 54.6875
L17.4844 21.9219
Q17.4844 14.1562 20.5 10.2656
Q23.5312 6.39062 29.5938 6.39062
Q36.8594 6.39062 41.0781 11.0312
Q45.3125 15.6719 45.3125 23.6875
L45.3125 54.6875
L54.2969 54.6875
L54.2969 0
L45.3125 0
L45.3125 8.40625
Q42.0469 3.42188 37.7188 1
Q33.4062 -1.42188 27.6875 -1.42188
Q18.2656 -1.42188 13.375 4.4375
Q8.5 10.2969 8.5 21.5781" id="BitstreamVeraSans-Roman-75"/>
      <path d="
M41.1094 46.2969
Q39.5938 47.1719 37.8125 47.5781
Q36.0312 48 33.8906 48
Q26.2656 48 22.1875 43.0469
Q18.1094 38.0938 18.1094 28.8125
L18.1094 0
L9.07812 0
L9.07812 54.6875
L18.1094 54.6875
L18.1094 46.1875
Q20.9531 51.1719 25.4844 53.5781
Q30.0312 56 36.5312 56
Q37.4531 56 38.5781 55.875
Q39.7031 55.7656 41.0625 55.5156
z
" id="BitstreamVeraSans-Roman-72"/>
      <path d="
M52 44.1875
Q55.375 50.25 60.0625 53.125
Q64.75 56 71.0938 56
Q79.6406 56 84.2812 50.0156
Q88.9219 44.0469 88.9219 33.0156
L88.9219 0
L79.8906 0
L79.8906 32.7188
Q79.8906 40.5781 77.0938 44.375
Q74.3125 48.1875 68.6094 48.1875
Q61.625 48.1875 57.5625 43.5469
Q53.5156 38.9219 53.5156 30.9062
L53.5156 0
L44.4844 0
L44.4844 32.7188
Q44.4844 40.625 41.7031 44.4062
Q38.9219 48.1875 33.1094 48.1875
Q26.2188 48.1875 22.1562 43.5312
Q18.1094 38.875 18.1094 30.9062
L18.1094 0
L9.07812 0
L9.07812 54.6875
L18.1094 54.6875
L18.1094 46.1875
Q21.1875 51.2188 25.4844 53.6094
Q29.7812 56 35.6875 56
Q41.6562 56 45.8281 52.9688
Q50 49.9531 52 44.1875" id="BitstreamVeraSans-Roman-6d"/>
      <path d="
M30.6094 48.3906
Q23.3906 48.3906 19.1875 42.75
Q14.9844 37.1094 14.9844 27.2969
Q14.9844 17.4844 19.1562 11.8438
Q23.3438 6.20312 30.6094 6.20312
Q37.7969 6.20312 41.9844 11.8594
Q46.1875 17.5312 46.1875 27.2969
Q46.1875 37.0156 41.9844 42.7031
Q37.7969 48.3906 30.6094 48.3906
M30.6094 56
Q42.3281 56 49.0156 48.375
Q55.7188 40.7656 55.7188 27.2969
Q55.7188 13.875 49.0156 6.21875
Q42.3281 -1.42188 30.6094 -1.42188
Q18.8438 -1.42188 12.1719 6.21875
Q5.51562 13.875 5.51562 27.2969
Q5.51562 40.7656 12.1719 48.375
Q18.8438 56 30.6094 56" id="BitstreamVeraSans-Roman-6f"/>
      <path d="
M31 75.875
Q24.4688 64.6562 21.2812 53.6562
Q18.1094 42.6719 18.1094 31.3906
Q18.1094 20.125 21.3125 9.0625
Q24.5156 -2 31 -13.1875
L23.1875 -13.1875
Q15.875 -1.70312 12.2344 9.375
Q8.59375 20.4531 8.59375 31.3906
Q8.59375 42.2812 12.2031 53.3125
Q15.8281 64.3594 23.1875 75.875
z
" id="BitstreamVeraSans-Roman-28"/>
      <path d="
M8.01562 75.875
L15.8281 75.875
Q23.1406 64.3594 26.7812 53.3125
Q30.4219 42.2812 30.4219 31.3906
Q30.4219 20.4531 26.7812 9.375
Q23.1406 -1.70312 15.8281 -13.1875
L8.01562 -13.1875
Q14.5 -2 17.7031 9.0625
Q20.9062 20.125 20.9062 31.3906
Q20.9062 42.6719 17.7031 53.6562
Q14.5 64.6562 8.01562 75.875" id="BitstreamVeraSans-Roman-29"/>
      <path d="
M32.1719 -5.07812
Q28.375 -14.8438 24.75 -17.8125
Q21.1406 -20.7969 15.0938 -20.7969
L7.90625 -20.7969
L7.90625 -13.2812
L13.1875 -13.2812
Q16.8906 -13.2812 18.9375 -11.5156
Q21 -9.76562 23.4844 -3.21875
L25.0938 0.875
L2.98438 54.6875
L12.5 54.6875
L29.5938 11.9219
L46.6875 54.6875
L56.2031 54.6875
z
" id="BitstreamVeraSans-Roman-79"/>
      <path d="
M9.42188 54.6875
L18.4062 54.6875
L18.4062 0
L9.42188 0
z

M9.42188 75.9844
L18.4062 75.9844
L18.4062 64.5938
L9.42188 64.5938
z
" id="BitstreamVeraSans-Roman-69"/>
      <path d="
M54.8906 33.0156
L54.8906 0
L45.9062 0
L45.9062 32.7188
Q45.9062 40.4844 42.875 44.3281
Q39.8438 48.1875 33.7969 48.1875
Q26.5156 48.1875 22.3125 43.5469
Q18.1094 38.9219 18.1094 30.9062
L18.1094 0
L9.07812 0
L9.07812 75.9844
L18.1094 75.9844
L18.1094 46.1875
Q21.3438 51.125 25.7031 53.5625
Q30.0781 56 35.7969 56
Q45.2188 56 50.0469 50.1719
Q54.8906 44.3438 54.8906 33.0156" id="BitstreamVeraSans-Roman-68"/>
      <path d="
M45.4062 46.3906
L45.4062 75.9844
L54.3906 75.9844
L54.3906 0
L45.4062 0
L45.4062 8.20312
Q42.5781 3.32812 38.25 0.953125
Q33.9375 -1.42188 27.875 -1.42188
Q17.9688 -1.42188 11.7344 6.48438
Q5.51562 14.4062 5.51562 27.2969
Q5.51562 40.1875 11.7344 48.0938
Q17.9688 56 27.875 56
Q33.9375 56 38.25 53.625
Q42.5781 51.2656 45.4062 46.3906
M14.7969 27.2969
Q14.7969 17.3906 18.875 11.75
Q22.9531 6.10938 30.0781 6.10938
Q37.2031 6.10938 41.2969 11.75
Q45.4062 17.3906 45.4062 27.2969
Q45.4062 37.2031 41.2969 42.8438
Q37.2031 48.4844 30.0781 48.4844
Q22.9531 48.4844 18.875 42.8438
Q14.7969 37.2031 14.7969 27.2969" id="BitstreamVeraSans-Roman-64"/>
      <path d="
M56.2031 29.5938
L56.2031 25.2031
L14.8906 25.2031
Q15.4844 15.9219 20.4844 11.0625
Q25.4844 6.20312 34.4219 6.20312
Q39.5938 6.20312 44.4531 7.46875
Q49.3125 8.73438 54.1094 11.2812
L54.1094 2.78125
Q49.2656 0.734375 44.1875 -0.34375
Q39.1094 -1.42188 33.8906 -1.42188
Q20.7969 -1.42188 13.1562 6.1875
Q5.51562 13.8125 5.51562 26.8125
Q5.51562 40.2344 12.7656 48.1094
Q20.0156 56 32.3281 56
Q43.3594 56 49.7812 48.8906
Q56.2031 41.7969 56.2031 29.5938
M47.2188 32.2344
Q47.125 39.5938 43.0938 43.9844
Q39.0625 48.3906 32.4219 48.3906
Q24.9062 48.3906 20.3906 44.1406
Q15.875 39.8906 15.1875 32.1719
z
" id="BitstreamVeraSans-Roman-65"/>
      <path d="
M-0.296875 72.9062
L61.375 72.9062
L61.375 64.5938
L35.5 64.5938
L35.5 0
L25.5938 0
L25.5938 64.5938
L-0.296875 64.5938
z
" id="BitstreamVeraSans-Roman-54"/>
      <path d="
M18.3125 70.2188
L18.3125 54.6875
L36.8125 54.6875
L36.8125 47.7031
L18.3125 47.7031
L18.3125 18.0156
Q18.3125 11.3281 20.1406 9.42188
Q21.9688 7.51562 27.5938 7.51562
L36.8125 7.51562
L36.8125 0
L27.5938 0
Q17.1875 0 13.2344 3.875
Q9.28125 7.76562 9.28125 18.0156
L9.28125 47.7031
L2.6875 47.7031
L2.6875 54.6875
L9.28125 54.6875
L9.28125 70.2188
z
" id="BitstreamVeraSans-Roman-74"/>
      <path d="
M37.1094 75.9844
L37.1094 68.5
L28.5156 68.5
Q23.6875 68.5 21.7969 66.5469
Q19.9219 64.5938 19.9219 59.5156
L19.9219 54.6875
L34.7188 54.6875
L34.7188 47.7031
L19.9219 47.7031
L19.9219 0
L10.8906 0
L10.8906 47.7031
L2.29688 47.7031
L2.29688 54.6875
L10.8906 54.6875
L10.8906 58.5
Q10.8906 67.625 15.1406 71.7969
Q19.3906 75.9844 28.6094 75.9844
z
" id="BitstreamVeraSans-Roman-66"/>
      <path d="
M34.2812 27.4844
Q23.3906 27.4844 19.1875 25
Q14.9844 22.5156 14.9844 16.5
Q14.9844 11.7188 18.1406 8.90625
Q21.2969 6.10938 26.7031 6.10938
Q34.1875 6.10938 38.7031 11.4062
Q43.2188 16.7031 43.2188 25.4844
L43.2188 27.4844
z

M52.2031 31.2031
L52.2031 0
L43.2188 0
L43.2188 8.29688
Q40.1406 3.32812 35.5469 0.953125
Q30.9531 -1.42188 24.3125 -1.42188
Q15.9219 -1.42188 10.9531 3.29688
Q6 8.01562 6 15.9219
Q6 25.1406 12.1719 29.8281
Q18.3594 34.5156 30.6094 34.5156
L43.2188 34.5156
L43.2188 35.4062
Q43.2188 41.6094 39.1406 45
Q35.0625 48.3906 27.6875 48.3906
Q23 48.3906 18.5469 47.2656
Q14.1094 46.1406 10.0156 43.8906
L10.0156 52.2031
Q14.9375 54.1094 19.5781 55.0469
Q24.2188 56 28.6094 56
Q40.4844 56 46.3438 49.8438
Q52.2031 43.7031 52.2031 31.2031" id="BitstreamVeraSans-Roman-61"/>
      <path d="
M44.2812 53.0781
L44.2812 44.5781
Q40.4844 46.5312 36.375 47.5
Q32.2812 48.4844 27.875 48.4844
Q21.1875 48.4844 17.8438 46.4375
Q14.5 44.3906 14.5 40.2812
Q14.5 37.1562 16.8906 35.375
Q19.2812 33.5938 26.5156 31.9844
L29.5938 31.2969
Q39.1562 29.25 43.1875 25.5156
Q47.2188 21.7812 47.2188 15.0938
Q47.2188 7.46875 41.1875 3.01562
Q35.1562 -1.42188 24.6094 -1.42188
Q20.2188 -1.42188 15.4531 -0.5625
Q10.6875 0.296875 5.42188 2
L5.42188 11.2812
Q10.4062 8.6875 15.2344 7.39062
Q20.0625 6.10938 24.8125 6.10938
Q31.1562 6.10938 34.5625 8.28125
Q37.9844 10.4531 37.9844 14.4062
Q37.9844 18.0625 35.5156 20.0156
Q33.0625 21.9688 24.7031 23.7812
L21.5781 24.5156
Q13.2344 26.2656 9.51562 29.9062
Q5.8125 33.5469 5.8125 39.8906
Q5.8125 47.6094 11.2812 51.7969
Q16.75 56 26.8125 56
Q31.7812 56 36.1719 55.2656
Q40.5781 54.5469 44.2812 53.0781" id="BitstreamVeraSans-Roman-73"/>
     </defs>
     <g style="fill:#262626;" transform="translate(307.158125 498.514375)scale(0.12 -0.12)">
      <use xlink:href="#BitstreamVeraSans-Roman-54"/>
      <use x="57.958984375" xlink:href="#BitstreamVeraSans-Roman-69"/>
      <use x="85.7421875" xlink:href="#BitstreamVeraSans-Roman-6d"/>
      <use x="183.154296875" xlink:href="#BitstreamVeraSans-Roman-65"/>
      <use x="244.677734375" xlink:href="#BitstreamVeraSans-Roman-20"/>
      <use x="276.46484375" xlink:href="#BitstreamVeraSans-Roman-6f"/>
      <use x="337.646484375" xlink:href="#BitstreamVeraSans-Roman-66"/>
      <use x="372.8515625" xlink:href="#BitstreamVeraSans-Roman-20"/>
      <use x="404.638671875" xlink:href="#BitstreamVeraSans-Roman-74"/>
      <use x="443.84765625" xlink:href="#BitstreamVeraSans-Roman-68"/>
      <use x="507.2265625" xlink:href="#BitstreamVeraSans-Roman-65"/>
      <use x="568.75" xlink:href="#BitstreamVeraSans-Roman-20"/>
      <use x="600.537109375" xlink:href="#BitstreamVeraSans-Roman-64"/>
      <use x="664.013671875" xlink:href="#BitstreamVeraSans-Roman-61"/>
      <use x="725.29296875" xlink:href="#BitstreamVeraSans-Roman-79"/>
      <use x="784.47265625" xlink:href="#BitstreamVeraSans-Roman-20"/>
      <use x="816.259765625" xlink:href="#BitstreamVeraSans-Roman-28"/>
      <use x="855.2734375" xlink:href="#BitstreamVeraSans-Roman-68"/>
      <use x="918.65234375" xlink:href="#BitstreamVeraSans-Roman-6f"/>
      <use x="979.833984375" xlink:href="#BitstreamVeraSans-Roman-75"/>
      <use x="1043.21289062" xlink:href="#BitstreamVeraSans-Roman-72"/>
      <use x="1084.32617188" xlink:href="#BitstreamVeraSans-Roman-73"/>
      <use x="1136.42578125" xlink:href="#BitstreamVeraSans-Roman-29"/>
     </g>
    </g>
   </g>
   <g id="matplotlib.axis_2">
    <g id="ytick_1">
     <g id="line2d_19">
      <path clip-path="url(#p440ca91bfd)" d="
M42.3856 467.718
L711.986 467.718" style="fill:none;stroke:#cccccc;stroke-linecap:round;"/>
     </g>
     <g id="line2d_20">
      <g>
       <use style="fill:#262626;stroke:#262626;" x="42.385625" xlink:href="#m219da94a98" y="467.718125"/>
      </g>
     </g>
     <g id="line2d_21">
      <g>
       <use style="fill:#262626;stroke:#262626;" x="711.985625" xlink:href="#m219da94a98" y="467.718125"/>
      </g>
     </g>
     <g id="text_8">
      <!-- 0 -->
      <g style="fill:#262626;" transform="translate(30.3465625 470.4775)scale(0.1 -0.1)">
       <use xlink:href="#BitstreamVeraSans-Roman-30"/>
      </g>
     </g>
    </g>
    <g id="ytick_2">
     <g id="line2d_22">
      <path clip-path="url(#p440ca91bfd)" d="
M42.3856 378.438
L711.986 378.438" style="fill:none;stroke:#cccccc;stroke-linecap:round;"/>
     </g>
     <g id="line2d_23">
      <g>
       <use style="fill:#262626;stroke:#262626;" x="42.385625" xlink:href="#m219da94a98" y="378.438125"/>
      </g>
     </g>
     <g id="line2d_24">
      <g>
       <use style="fill:#262626;stroke:#262626;" x="711.985625" xlink:href="#m219da94a98" y="378.438125"/>
      </g>
     </g>
     <g id="text_9">
      <!-- 10 -->
      <g style="fill:#262626;" transform="translate(24.423125 381.1975)scale(0.1 -0.1)">
       <use xlink:href="#BitstreamVeraSans-Roman-31"/>
       <use x="63.623046875" xlink:href="#BitstreamVeraSans-Roman-30"/>
      </g>
     </g>
    </g>
    <g id="ytick_3">
     <g id="line2d_25">
      <path clip-path="url(#p440ca91bfd)" d="
M42.3856 289.158
L711.986 289.158" style="fill:none;stroke:#cccccc;stroke-linecap:round;"/>
     </g>
     <g id="line2d_26">
      <g>
       <use style="fill:#262626;stroke:#262626;" x="42.385625" xlink:href="#m219da94a98" y="289.158125"/>
      </g>
     </g>
     <g id="line2d_27">
      <g>
       <use style="fill:#262626;stroke:#262626;" x="711.985625" xlink:href="#m219da94a98" y="289.158125"/>
      </g>
     </g>
     <g id="text_10">
      <!-- 20 -->
      <g style="fill:#262626;" transform="translate(24.0575 291.9175)scale(0.1 -0.1)">
       <use xlink:href="#BitstreamVeraSans-Roman-32"/>
       <use x="63.623046875" xlink:href="#BitstreamVeraSans-Roman-30"/>
      </g>
     </g>
    </g>
    <g id="ytick_4">
     <g id="line2d_28">
      <path clip-path="url(#p440ca91bfd)" d="
M42.3856 199.878
L711.986 199.878" style="fill:none;stroke:#cccccc;stroke-linecap:round;"/>
     </g>
     <g id="line2d_29">
      <g>
       <use style="fill:#262626;stroke:#262626;" x="42.385625" xlink:href="#m219da94a98" y="199.878125"/>
      </g>
     </g>
     <g id="line2d_30">
      <g>
       <use style="fill:#262626;stroke:#262626;" x="711.985625" xlink:href="#m219da94a98" y="199.878125"/>
      </g>
     </g>
     <g id="text_11">
      <!-- 30 -->
      <defs>
       <path d="
M40.5781 39.3125
Q47.6562 37.7969 51.625 33
Q55.6094 28.2188 55.6094 21.1875
Q55.6094 10.4062 48.1875 4.48438
Q40.7656 -1.42188 27.0938 -1.42188
Q22.5156 -1.42188 17.6562 -0.515625
Q12.7969 0.390625 7.625 2.20312
L7.625 11.7188
Q11.7188 9.32812 16.5938 8.10938
Q21.4844 6.89062 26.8125 6.89062
Q36.0781 6.89062 40.9375 10.5469
Q45.7969 14.2031 45.7969 21.1875
Q45.7969 27.6406 41.2812 31.2656
Q36.7656 34.9062 28.7188 34.9062
L20.2188 34.9062
L20.2188 43.0156
L29.1094 43.0156
Q36.375 43.0156 40.2344 45.9219
Q44.0938 48.8281 44.0938 54.2969
Q44.0938 59.9062 40.1094 62.9062
Q36.1406 65.9219 28.7188 65.9219
Q24.6562 65.9219 20.0156 65.0312
Q15.375 64.1562 9.8125 62.3125
L9.8125 71.0938
Q15.4375 72.6562 20.3438 73.4375
Q25.25 74.2188 29.5938 74.2188
Q40.8281 74.2188 47.3594 69.1094
Q53.9062 64.0156 53.9062 55.3281
Q53.9062 49.2656 50.4375 45.0938
Q46.9688 40.9219 40.5781 39.3125" id="BitstreamVeraSans-Roman-33"/>
      </defs>
      <g style="fill:#262626;" transform="translate(24.0871875 202.6375)scale(0.1 -0.1)">
       <use xlink:href="#BitstreamVeraSans-Roman-33"/>
       <use x="63.623046875" xlink:href="#BitstreamVeraSans-Roman-30"/>
      </g>
     </g>
    </g>
    <g id="ytick_5">
     <g id="line2d_31">
      <path clip-path="url(#p440ca91bfd)" d="
M42.3856 110.598
L711.986 110.598" style="fill:none;stroke:#cccccc;stroke-linecap:round;"/>
     </g>
     <g id="line2d_32">
      <g>
       <use style="fill:#262626;stroke:#262626;" x="42.385625" xlink:href="#m219da94a98" y="110.598125"/>
      </g>
     </g>
     <g id="line2d_33">
      <g>
       <use style="fill:#262626;stroke:#262626;" x="711.985625" xlink:href="#m219da94a98" y="110.598125"/>
      </g>
     </g>
     <g id="text_12">
      <!-- 40 -->
      <defs>
       <path d="
M37.7969 64.3125
L12.8906 25.3906
L37.7969 25.3906
z

M35.2031 72.9062
L47.6094 72.9062
L47.6094 25.3906
L58.0156 25.3906
L58.0156 17.1875
L47.6094 17.1875
L47.6094 0
L37.7969 0
L37.7969 17.1875
L4.89062 17.1875
L4.89062 26.7031
z
" id="BitstreamVeraSans-Roman-34"/>
      </defs>
      <g style="fill:#262626;" transform="translate(23.81375 113.3575)scale(0.1 -0.1)">
       <use xlink:href="#BitstreamVeraSans-Roman-34"/>
       <use x="63.623046875" xlink:href="#BitstreamVeraSans-Roman-30"/>
      </g>
     </g>
    </g>
    <g id="ytick_6">
     <g id="line2d_34">
      <path clip-path="url(#p440ca91bfd)" d="
M42.3856 21.3181
L711.986 21.3181" style="fill:none;stroke:#cccccc;stroke-linecap:round;"/>
     </g>
     <g id="line2d_35">
      <g>
       <use style="fill:#262626;stroke:#262626;" x="42.385625" xlink:href="#m219da94a98" y="21.318125"/>
      </g>
     </g>
     <g id="line2d_36">
      <g>
       <use style="fill:#262626;stroke:#262626;" x="711.985625" xlink:href="#m219da94a98" y="21.318125"/>
      </g>
     </g>
     <g id="text_13">
      <!-- 50 -->
      <g style="fill:#262626;" transform="translate(24.0965625 24.0775)scale(0.1 -0.1)">
       <use xlink:href="#BitstreamVeraSans-Roman-35"/>
       <use x="63.623046875" xlink:href="#BitstreamVeraSans-Roman-30"/>
      </g>
     </g>
    </g>
    <g id="text_14">
     <!-- Number of stranded -->
     <defs>
      <path d="
M54.8906 33.0156
L54.8906 0
L45.9062 0
L45.9062 32.7188
Q45.9062 40.4844 42.875 44.3281
Q39.8438 48.1875 33.7969 48.1875
Q26.5156 48.1875 22.3125 43.5469
Q18.1094 38.9219 18.1094 30.9062
L18.1094 0
L9.07812 0
L9.07812 54.6875
L18.1094 54.6875
L18.1094 46.1875
Q21.3438 51.125 25.7031 53.5625
Q30.0781 56 35.7969 56
Q45.2188 56 50.0469 50.1719
Q54.8906 44.3438 54.8906 33.0156" id="BitstreamVeraSans-Roman-6e"/>
      <path d="
M9.8125 72.9062
L23.0938 72.9062
L55.4219 11.9219
L55.4219 72.9062
L64.9844 72.9062
L64.9844 0
L51.7031 0
L19.3906 60.9844
L19.3906 0
L9.8125 0
z
" id="BitstreamVeraSans-Roman-4e"/>
      <path d="
M48.6875 27.2969
Q48.6875 37.2031 44.6094 42.8438
Q40.5312 48.4844 33.4062 48.4844
Q26.2656 48.4844 22.1875 42.8438
Q18.1094 37.2031 18.1094 27.2969
Q18.1094 17.3906 22.1875 11.75
Q26.2656 6.10938 33.4062 6.10938
Q40.5312 6.10938 44.6094 11.75
Q48.6875 17.3906 48.6875 27.2969
M18.1094 46.3906
Q20.9531 51.2656 25.2656 53.625
Q29.5938 56 35.5938 56
Q45.5625 56 51.7812 48.0938
Q58.0156 40.1875 58.0156 27.2969
Q58.0156 14.4062 51.7812 6.48438
Q45.5625 -1.42188 35.5938 -1.42188
Q29.5938 -1.42188 25.2656 0.953125
Q20.9531 3.32812 18.1094 8.20312
L18.1094 0
L9.07812 0
L9.07812 75.9844
L18.1094 75.9844
z
" id="BitstreamVeraSans-Roman-62"/>
     </defs>
     <g style="fill:#262626;" transform="translate(16.318125 304.4065625)rotate(-90.0)scale(0.12 -0.12)">
      <use xlink:href="#BitstreamVeraSans-Roman-4e"/>
      <use x="74.8046875" xlink:href="#BitstreamVeraSans-Roman-75"/>
      <use x="138.18359375" xlink:href="#BitstreamVeraSans-Roman-6d"/>
      <use x="235.595703125" xlink:href="#BitstreamVeraSans-Roman-62"/>
      <use x="299.072265625" xlink:href="#BitstreamVeraSans-Roman-65"/>
      <use x="360.595703125" xlink:href="#BitstreamVeraSans-Roman-72"/>
      <use x="401.708984375" xlink:href="#BitstreamVeraSans-Roman-20"/>
      <use x="433.49609375" xlink:href="#BitstreamVeraSans-Roman-6f"/>
      <use x="494.677734375" xlink:href="#BitstreamVeraSans-Roman-66"/>
      <use x="529.8828125" xlink:href="#BitstreamVeraSans-Roman-20"/>
      <use x="561.669921875" xlink:href="#BitstreamVeraSans-Roman-73"/>
      <use x="613.76953125" xlink:href="#BitstreamVeraSans-Roman-74"/>
      <use x="652.978515625" xlink:href="#BitstreamVeraSans-Roman-72"/>
      <use x="694.091796875" xlink:href="#BitstreamVeraSans-Roman-61"/>
      <use x="755.37109375" xlink:href="#BitstreamVeraSans-Roman-6e"/>
      <use x="818.75" xlink:href="#BitstreamVeraSans-Roman-64"/>
      <use x="882.2265625" xlink:href="#BitstreamVeraSans-Roman-65"/>
      <use x="943.75" xlink:href="#BitstreamVeraSans-Roman-64"/>
     </g>
    </g>
   </g>
   <g id="patch_3">
    <path clip-path="url(#p440ca91bfd)" d="
M57.4795 467.718
L65.5594 467.718
L65.5594 449.862
L57.4795 449.862
z
" style="fill:#4c72b0;stroke:#000000;stroke-linejoin:miter;stroke-width:0.3;"/>
   </g>
   <g id="patch_4">
    <path clip-path="url(#p440ca91bfd)" d="
M107.979 467.718
L116.058 467.718
L116.058 467.718
L107.979 467.718
z
" style="fill:#4c72b0;stroke:#000000;stroke-linejoin:miter;stroke-width:0.3;"/>
   </g>
   <g id="patch_5">
    <path clip-path="url(#p440ca91bfd)" d="
M158.478 467.718
L166.557 467.718
L166.557 396.294
L158.478 396.294
z
" style="fill:#4c72b0;stroke:#000000;stroke-linejoin:miter;stroke-width:0.3;"/>
   </g>
   <g id="patch_6">
    <path clip-path="url(#p440ca91bfd)" d="
M208.977 467.718
L217.056 467.718
L217.056 315.942
L208.977 315.942
z
" style="fill:#4c72b0;stroke:#000000;stroke-linejoin:miter;stroke-width:0.3;"/>
   </g>
   <g id="patch_7">
    <path clip-path="url(#p440ca91bfd)" d="
M259.476 467.718
L267.555 467.718
L267.555 342.726
L259.476 342.726
z
" style="fill:#4c72b0;stroke:#000000;stroke-linejoin:miter;stroke-width:0.3;"/>
   </g>
   <g id="patch_8">
    <path clip-path="url(#p440ca91bfd)" d="
M309.975 467.718
L318.054 467.718
L318.054 342.726
L309.975 342.726
z
" style="fill:#4c72b0;stroke:#000000;stroke-linejoin:miter;stroke-width:0.3;"/>
   </g>
   <g id="patch_9">
    <path clip-path="url(#p440ca91bfd)" d="
M360.474 467.718
L368.553 467.718
L368.553 137.382
L360.474 137.382
z
" style="fill:#4c72b0;stroke:#000000;stroke-linejoin:miter;stroke-width:0.3;"/>
   </g>
   <g id="patch_10">
    <path clip-path="url(#p440ca91bfd)" d="
M410.973 467.718
L419.052 467.718
L419.052 110.598
L410.973 110.598
z
" style="fill:#4c72b0;stroke:#000000;stroke-linejoin:miter;stroke-width:0.3;"/>
   </g>
   <g id="patch_11">
    <path clip-path="url(#p440ca91bfd)" d="
M461.472 467.718
L469.551 467.718
L469.551 262.374
L461.472 262.374
z
" style="fill:#4c72b0;stroke:#000000;stroke-linejoin:miter;stroke-width:0.3;"/>
   </g>
   <g id="patch_12">
    <path clip-path="url(#p440ca91bfd)" d="
M511.971 467.718
L520.05 467.718
L520.05 387.366
L511.971 387.366
z
" style="fill:#4c72b0;stroke:#000000;stroke-linejoin:miter;stroke-width:0.3;"/>
   </g>
   <g id="patch_13">
    <path clip-path="url(#p440ca91bfd)" d="
M562.47 467.718
L570.549 467.718
L570.549 369.51
L562.47 369.51
z
" style="fill:#4c72b0;stroke:#000000;stroke-linejoin:miter;stroke-width:0.3;"/>
   </g>
   <g id="patch_14">
    <path clip-path="url(#p440ca91bfd)" d="
M612.969 467.718
L621.048 467.718
L621.048 405.222
L612.969 405.222
z
" style="fill:#4c72b0;stroke:#000000;stroke-linejoin:miter;stroke-width:0.3;"/>
   </g>
   <g id="patch_15">
    <path clip-path="url(#p440ca91bfd)" d="
M65.5594 467.718
L73.6392 467.718
L73.6392 440.934
L65.5594 440.934
z
" style="fill:#55a868;stroke:#000000;stroke-linejoin:miter;stroke-width:0.3;"/>
   </g>
   <g id="patch_16">
    <path clip-path="url(#p440ca91bfd)" d="
M116.058 467.718
L124.138 467.718
L124.138 467.718
L116.058 467.718
z
" style="fill:#55a868;stroke:#000000;stroke-linejoin:miter;stroke-width:0.3;"/>
   </g>
   <g id="patch_17">
    <path clip-path="url(#p440ca91bfd)" d="
M166.557 467.718
L174.637 467.718
L174.637 342.726
L166.557 342.726
z
" style="fill:#55a868;stroke:#000000;stroke-linejoin:miter;stroke-width:0.3;"/>
   </g>
   <g id="patch_18">
    <path clip-path="url(#p440ca91bfd)" d="
M217.056 467.718
L225.136 467.718
L225.136 244.518
L217.056 244.518
z
" style="fill:#55a868;stroke:#000000;stroke-linejoin:miter;stroke-width:0.3;"/>
   </g>
   <g id="patch_19">
    <path clip-path="url(#p440ca91bfd)" d="
M267.555 467.718
L275.635 467.718
L275.635 235.59
L267.555 235.59
z
" style="fill:#55a868;stroke:#000000;stroke-linejoin:miter;stroke-width:0.3;"/>
   </g>
   <g id="patch_20">
    <path clip-path="url(#p440ca91bfd)" d="
M318.054 467.718
L326.134 467.718
L326.134 235.59
L318.054 235.59
z
" style="fill:#55a868;stroke:#000000;stroke-linejoin:miter;stroke-width:0.3;"/>
   </g>
   <g id="patch_21">
    <path clip-path="url(#p440ca91bfd)" d="
M368.553 467.718
L376.633 467.718
L376.633 137.382
L368.553 137.382
z
" style="fill:#55a868;stroke:#000000;stroke-linejoin:miter;stroke-width:0.3;"/>
   </g>
   <g id="patch_22">
    <path clip-path="url(#p440ca91bfd)" d="
M419.052 467.718
L427.132 467.718
L427.132 92.7421
L419.052 92.7421
z
" style="fill:#55a868;stroke:#000000;stroke-linejoin:miter;stroke-width:0.3;"/>
   </g>
   <g id="patch_23">
    <path clip-path="url(#p440ca91bfd)" d="
M469.551 467.718
L477.631 467.718
L477.631 128.454
L469.551 128.454
z
" style="fill:#55a868;stroke:#000000;stroke-linejoin:miter;stroke-width:0.3;"/>
   </g>
   <g id="patch_24">
    <path clip-path="url(#p440ca91bfd)" d="
M520.05 467.718
L528.13 467.718
L528.13 298.086
L520.05 298.086
z
" style="fill:#55a868;stroke:#000000;stroke-linejoin:miter;stroke-width:0.3;"/>
   </g>
   <g id="patch_25">
    <path clip-path="url(#p440ca91bfd)" d="
M570.549 467.718
L578.629 467.718
L578.629 387.366
L570.549 387.366
z
" style="fill:#55a868;stroke:#000000;stroke-linejoin:miter;stroke-width:0.3;"/>
   </g>
   <g id="patch_26">
    <path clip-path="url(#p440ca91bfd)" d="
M621.048 467.718
L629.128 467.718
L629.128 369.51
L621.048 369.51
z
" style="fill:#55a868;stroke:#000000;stroke-linejoin:miter;stroke-width:0.3;"/>
   </g>
   <g id="patch_27">
    <path clip-path="url(#p440ca91bfd)" d="
M73.6392 467.718
L81.719 467.718
L81.719 458.79
L73.6392 458.79
z
" style="fill:#c44e52;stroke:#000000;stroke-linejoin:miter;stroke-width:0.3;"/>
   </g>
   <g id="patch_28">
    <path clip-path="url(#p440ca91bfd)" d="
M124.138 467.718
L132.218 467.718
L132.218 467.718
L124.138 467.718
z
" style="fill:#c44e52;stroke:#000000;stroke-linejoin:miter;stroke-width:0.3;"/>
   </g>
   <g id="patch_29">
    <path clip-path="url(#p440ca91bfd)" d="
M174.637 467.718
L182.717 467.718
L182.717 414.15
L174.637 414.15
z
" style="fill:#c44e52;stroke:#000000;stroke-linejoin:miter;stroke-width:0.3;"/>
   </g>
   <g id="patch_30">
    <path clip-path="url(#p440ca91bfd)" d="
M225.136 467.718
L233.216 467.718
L233.216 396.294
L225.136 396.294
z
" style="fill:#c44e52;stroke:#000000;stroke-linejoin:miter;stroke-width:0.3;"/>
   </g>
   <g id="patch_31">
    <path clip-path="url(#p440ca91bfd)" d="
M275.635 467.718
L283.715 467.718
L283.715 360.582
L275.635 360.582
z
" style="fill:#c44e52;stroke:#000000;stroke-linejoin:miter;stroke-width:0.3;"/>
   </g>
   <g id="patch_32">
    <path clip-path="url(#p440ca91bfd)" d="
M326.134 467.718
L334.214 467.718
L334.214 378.438
L326.134 378.438
z
" style="fill:#c44e52;stroke:#000000;stroke-linejoin:miter;stroke-width:0.3;"/>
   </g>
   <g id="patch_33">
    <path clip-path="url(#p440ca91bfd)" d="
M376.633 467.718
L384.713 467.718
L384.713 253.446
L376.633 253.446
z
" style="fill:#c44e52;stroke:#000000;stroke-linejoin:miter;stroke-width:0.3;"/>
   </g>
   <g id="patch_34">
    <path clip-path="url(#p440ca91bfd)" d="
M427.132 467.718
L435.212 467.718
L435.212 244.518
L427.132 244.518
z
" style="fill:#c44e52;stroke:#000000;stroke-linejoin:miter;stroke-width:0.3;"/>
   </g>
   <g id="patch_35">
    <path clip-path="url(#p440ca91bfd)" d="
M477.631 467.718
L485.711 467.718
L485.711 271.302
L477.631 271.302
z
" style="fill:#c44e52;stroke:#000000;stroke-linejoin:miter;stroke-width:0.3;"/>
   </g>
   <g id="patch_36">
    <path clip-path="url(#p440ca91bfd)" d="
M528.13 467.718
L536.21 467.718
L536.21 351.654
L528.13 351.654
z
" style="fill:#c44e52;stroke:#000000;stroke-linejoin:miter;stroke-width:0.3;"/>
   </g>
   <g id="patch_37">
    <path clip-path="url(#p440ca91bfd)" d="
M578.629 467.718
L586.709 467.718
L586.709 432.006
L578.629 432.006
z
" style="fill:#c44e52;stroke:#000000;stroke-linejoin:miter;stroke-width:0.3;"/>
   </g>
   <g id="patch_38">
    <path clip-path="url(#p440ca91bfd)" d="
M629.128 467.718
L637.208 467.718
L637.208 432.006
L629.128 432.006
z
" style="fill:#c44e52;stroke:#000000;stroke-linejoin:miter;stroke-width:0.3;"/>
   </g>
   <g id="patch_39">
    <path clip-path="url(#p440ca91bfd)" d="
M81.719 467.718
L89.7989 467.718
L89.7989 449.862
L81.719 449.862
z
" style="fill:#8172b2;stroke:#000000;stroke-linejoin:miter;stroke-width:0.3;"/>
   </g>
   <g id="patch_40">
    <path clip-path="url(#p440ca91bfd)" d="
M132.218 467.718
L140.298 467.718
L140.298 467.718
L132.218 467.718
z
" style="fill:#8172b2;stroke:#000000;stroke-linejoin:miter;stroke-width:0.3;"/>
   </g>
   <g id="patch_41">
    <path clip-path="url(#p440ca91bfd)" d="
M182.717 467.718
L190.797 467.718
L190.797 396.294
L182.717 396.294
z
" style="fill:#8172b2;stroke:#000000;stroke-linejoin:miter;stroke-width:0.3;"/>
   </g>
   <g id="patch_42">
    <path clip-path="url(#p440ca91bfd)" d="
M233.216 467.718
L241.296 467.718
L241.296 369.51
L233.216 369.51
z
" style="fill:#8172b2;stroke:#000000;stroke-linejoin:miter;stroke-width:0.3;"/>
   </g>
   <g id="patch_43">
    <path clip-path="url(#p440ca91bfd)" d="
M283.715 467.718
L291.795 467.718
L291.795 333.798
L283.715 333.798
z
" style="fill:#8172b2;stroke:#000000;stroke-linejoin:miter;stroke-width:0.3;"/>
   </g>
   <g id="patch_44">
    <path clip-path="url(#p440ca91bfd)" d="
M334.214 467.718
L342.294 467.718
L342.294 360.582
L334.214 360.582
z
" style="fill:#8172b2;stroke:#000000;stroke-linejoin:miter;stroke-width:0.3;"/>
   </g>
   <g id="patch_45">
    <path clip-path="url(#p440ca91bfd)" d="
M384.713 467.718
L392.793 467.718
L392.793 217.734
L384.713 217.734
z
" style="fill:#8172b2;stroke:#000000;stroke-linejoin:miter;stroke-width:0.3;"/>
   </g>
   <g id="patch_46">
    <path clip-path="url(#p440ca91bfd)" d="
M435.212 467.718
L443.292 467.718
L443.292 182.022
L435.212 182.022
z
" style="fill:#8172b2;stroke:#000000;stroke-linejoin:miter;stroke-width:0.3;"/>
   </g>
   <g id="patch_47">
    <path clip-path="url(#p440ca91bfd)" d="
M485.711 467.718
L493.791 467.718
L493.791 289.158
L485.711 289.158
z
" style="fill:#8172b2;stroke:#000000;stroke-linejoin:miter;stroke-width:0.3;"/>
   </g>
   <g id="patch_48">
    <path clip-path="url(#p440ca91bfd)" d="
M536.21 467.718
L544.29 467.718
L544.29 387.366
L536.21 387.366
z
" style="fill:#8172b2;stroke:#000000;stroke-linejoin:miter;stroke-width:0.3;"/>
   </g>
   <g id="patch_49">
    <path clip-path="url(#p440ca91bfd)" d="
M586.709 467.718
L594.789 467.718
L594.789 414.15
L586.709 414.15
z
" style="fill:#8172b2;stroke:#000000;stroke-linejoin:miter;stroke-width:0.3;"/>
   </g>
   <g id="patch_50">
    <path clip-path="url(#p440ca91bfd)" d="
M637.208 467.718
L645.288 467.718
L645.288 423.078
L637.208 423.078
z
" style="fill:#8172b2;stroke:#000000;stroke-linejoin:miter;stroke-width:0.3;"/>
   </g>
   <g id="patch_51">
    <path clip-path="url(#p440ca91bfd)" d="
M89.7989 467.718
L97.8787 467.718
L97.8787 440.934
L89.7989 440.934
z
" style="fill:#ccb974;stroke:#000000;stroke-linejoin:miter;stroke-width:0.3;"/>
   </g>
   <g id="patch_52">
    <path clip-path="url(#p440ca91bfd)" d="
M140.298 467.718
L148.378 467.718
L148.378 467.718
L140.298 467.718
z
" style="fill:#ccb974;stroke:#000000;stroke-linejoin:miter;stroke-width:0.3;"/>
   </g>
   <g id="patch_53">
    <path clip-path="url(#p440ca91bfd)" d="
M190.797 467.718
L198.877 467.718
L198.877 351.654
L190.797 351.654
z
" style="fill:#ccb974;stroke:#000000;stroke-linejoin:miter;stroke-width:0.3;"/>
   </g>
   <g id="patch_54">
    <path clip-path="url(#p440ca91bfd)" d="
M241.296 467.718
L249.376 467.718
L249.376 280.23
L241.296 280.23
z
" style="fill:#ccb974;stroke:#000000;stroke-linejoin:miter;stroke-width:0.3;"/>
   </g>
   <g id="patch_55">
    <path clip-path="url(#p440ca91bfd)" d="
M291.795 467.718
L299.875 467.718
L299.875 262.374
L291.795 262.374
z
" style="fill:#ccb974;stroke:#000000;stroke-linejoin:miter;stroke-width:0.3;"/>
   </g>
   <g id="patch_56">
    <path clip-path="url(#p440ca91bfd)" d="
M342.294 467.718
L350.374 467.718
L350.374 244.518
L342.294 244.518
z
" style="fill:#ccb974;stroke:#000000;stroke-linejoin:miter;stroke-width:0.3;"/>
   </g>
   <g id="patch_57">
    <path clip-path="url(#p440ca91bfd)" d="
M392.793 467.718
L400.873 467.718
L400.873 110.598
L392.793 110.598
z
" style="fill:#ccb974;stroke:#000000;stroke-linejoin:miter;stroke-width:0.3;"/>
   </g>
   <g id="patch_58">
    <path clip-path="url(#p440ca91bfd)" d="
M443.292 467.718
L451.372 467.718
L451.372 39.1741
L443.292 39.1741
z
" style="fill:#ccb974;stroke:#000000;stroke-linejoin:miter;stroke-width:0.3;"/>
   </g>
   <g id="patch_59">
    <path clip-path="url(#p440ca91bfd)" d="
M493.791 467.718
L501.871 467.718
L501.871 119.526
L493.791 119.526
z
" style="fill:#ccb974;stroke:#000000;stroke-linejoin:miter;stroke-width:0.3;"/>
   </g>
   <g id="patch_60">
    <path clip-path="url(#p440ca91bfd)" d="
M544.29 467.718
L552.37 467.718
L552.37 271.302
L544.29 271.302
z
" style="fill:#ccb974;stroke:#000000;stroke-linejoin:miter;stroke-width:0.3;"/>
   </g>
   <g id="patch_61">
    <path clip-path="url(#p440ca91bfd)" d="
M594.789 467.718
L602.869 467.718
L602.869 369.51
L594.789 369.51
z
" style="fill:#ccb974;stroke:#000000;stroke-linejoin:miter;stroke-width:0.3;"/>
   </g>
   <g id="patch_62">
    <path clip-path="url(#p440ca91bfd)" d="
M645.288 467.718
L653.368 467.718
L653.368 387.366
L645.288 387.366
z
" style="fill:#ccb974;stroke:#000000;stroke-linejoin:miter;stroke-width:0.3;"/>
   </g>
   <g id="patch_63">
    <path d="
M42.3856 21.3181
L711.986 21.3181" style="fill:none;stroke:#cccccc;stroke-linecap:square;stroke-linejoin:miter;"/>
   </g>
   <g id="patch_64">
    <path d="
M711.986 467.718
L711.986 21.3181" style="fill:none;stroke:#cccccc;stroke-linecap:square;stroke-linejoin:miter;"/>
   </g>
   <g id="patch_65">
    <path d="
M42.3856 467.718
L711.986 467.718" style="fill:none;stroke:#cccccc;stroke-linecap:square;stroke-linejoin:miter;"/>
   </g>
   <g id="patch_66">
    <path d="
M42.3856 467.718
L42.3856 21.3181" style="fill:none;stroke:#cccccc;stroke-linecap:square;stroke-linejoin:miter;"/>
   </g>
   <g id="text_15">
    <!-- Stranded repartition throught out the day -->
    <defs>
     <path d="
M45.4062 27.9844
Q45.4062 37.75 41.375 43.1094
Q37.3594 48.4844 30.0781 48.4844
Q22.8594 48.4844 18.8281 43.1094
Q14.7969 37.75 14.7969 27.9844
Q14.7969 18.2656 18.8281 12.8906
Q22.8594 7.51562 30.0781 7.51562
Q37.3594 7.51562 41.375 12.8906
Q45.4062 18.2656 45.4062 27.9844
M54.3906 6.78125
Q54.3906 -7.17188 48.1875 -13.9844
Q42 -20.7969 29.2031 -20.7969
Q24.4688 -20.7969 20.2656 -20.0938
Q16.0625 -19.3906 12.1094 -17.9219
L12.1094 -9.1875
Q16.0625 -11.3281 19.9219 -12.3438
Q23.7812 -13.375 27.7812 -13.375
Q36.625 -13.375 41.0156 -8.76562
Q45.4062 -4.15625 45.4062 5.17188
L45.4062 9.625
Q42.625 4.78125 38.2812 2.39062
Q33.9375 0 27.875 0
Q17.8281 0 11.6719 7.65625
Q5.51562 15.3281 5.51562 27.9844
Q5.51562 40.6719 11.6719 48.3281
Q17.8281 56 27.875 56
Q33.9375 56 38.2812 53.6094
Q42.625 51.2188 45.4062 46.3906
L45.4062 54.6875
L54.3906 54.6875
z
" id="BitstreamVeraSans-Roman-67"/>
     <path d="
M53.5156 70.5156
L53.5156 60.8906
Q47.9062 63.5781 42.9219 64.8906
Q37.9375 66.2188 33.2969 66.2188
Q25.25 66.2188 20.875 63.0938
Q16.5 59.9688 16.5 54.2031
Q16.5 49.3594 19.4062 46.8906
Q22.3125 44.4375 30.4219 42.9219
L36.375 41.7031
Q47.4062 39.5938 52.6562 34.2969
Q57.9062 29 57.9062 20.125
Q57.9062 9.51562 50.7969 4.04688
Q43.7031 -1.42188 29.9844 -1.42188
Q24.8125 -1.42188 18.9688 -0.25
Q13.1406 0.921875 6.89062 3.21875
L6.89062 13.375
Q12.8906 10.0156 18.6562 8.29688
Q24.4219 6.59375 29.9844 6.59375
Q38.4219 6.59375 43.0156 9.90625
Q47.6094 13.2344 47.6094 19.3906
Q47.6094 24.75 44.3125 27.7812
Q41.0156 30.8125 33.5 32.3281
L27.4844 33.5
Q16.4531 35.6875 11.5156 40.375
Q6.59375 45.0625 6.59375 53.4219
Q6.59375 63.0938 13.4062 68.6562
Q20.2188 74.2188 32.1719 74.2188
Q37.3125 74.2188 42.625 73.2812
Q47.9531 72.3594 53.5156 70.5156" id="BitstreamVeraSans-Roman-53"/>
     <path d="
M18.1094 8.20312
L18.1094 -20.7969
L9.07812 -20.7969
L9.07812 54.6875
L18.1094 54.6875
L18.1094 46.3906
Q20.9531 51.2656 25.2656 53.625
Q29.5938 56 35.5938 56
Q45.5625 56 51.7812 48.0938
Q58.0156 40.1875 58.0156 27.2969
Q58.0156 14.4062 51.7812 6.48438
Q45.5625 -1.42188 35.5938 -1.42188
Q29.5938 -1.42188 25.2656 0.953125
Q20.9531 3.32812 18.1094 8.20312
M48.6875 27.2969
Q48.6875 37.2031 44.6094 42.8438
Q40.5312 48.4844 33.4062 48.4844
Q26.2656 48.4844 22.1875 42.8438
Q18.1094 37.2031 18.1094 27.2969
Q18.1094 17.3906 22.1875 11.75
Q26.2656 6.10938 33.4062 6.10938
Q40.5312 6.10938 44.6094 11.75
Q48.6875 17.3906 48.6875 27.2969" id="BitstreamVeraSans-Roman-70"/>
    </defs>
    <g style="fill:#262626;" transform="translate(252.291875 16.318125)scale(0.12 -0.12)">
     <use xlink:href="#BitstreamVeraSans-Roman-53"/>
     <use x="63.4765625" xlink:href="#BitstreamVeraSans-Roman-74"/>
     <use x="102.685546875" xlink:href="#BitstreamVeraSans-Roman-72"/>
     <use x="143.798828125" xlink:href="#BitstreamVeraSans-Roman-61"/>
     <use x="205.078125" xlink:href="#BitstreamVeraSans-Roman-6e"/>
     <use x="268.45703125" xlink:href="#BitstreamVeraSans-Roman-64"/>
     <use x="331.93359375" xlink:href="#BitstreamVeraSans-Roman-65"/>
     <use x="393.45703125" xlink:href="#BitstreamVeraSans-Roman-64"/>
     <use x="456.93359375" xlink:href="#BitstreamVeraSans-Roman-20"/>
     <use x="488.720703125" xlink:href="#BitstreamVeraSans-Roman-72"/>
     <use x="527.583984375" xlink:href="#BitstreamVeraSans-Roman-65"/>
     <use x="589.107421875" xlink:href="#BitstreamVeraSans-Roman-70"/>
     <use x="652.583984375" xlink:href="#BitstreamVeraSans-Roman-61"/>
     <use x="713.86328125" xlink:href="#BitstreamVeraSans-Roman-72"/>
     <use x="754.9765625" xlink:href="#BitstreamVeraSans-Roman-74"/>
     <use x="794.185546875" xlink:href="#BitstreamVeraSans-Roman-69"/>
     <use x="821.96875" xlink:href="#BitstreamVeraSans-Roman-74"/>
     <use x="861.177734375" xlink:href="#BitstreamVeraSans-Roman-69"/>
     <use x="888.9609375" xlink:href="#BitstreamVeraSans-Roman-6f"/>
     <use x="950.142578125" xlink:href="#BitstreamVeraSans-Roman-6e"/>
     <use x="1013.52148438" xlink:href="#BitstreamVeraSans-Roman-20"/>
     <use x="1045.30859375" xlink:href="#BitstreamVeraSans-Roman-74"/>
     <use x="1084.51757812" xlink:href="#BitstreamVeraSans-Roman-68"/>
     <use x="1147.89648438" xlink:href="#BitstreamVeraSans-Roman-72"/>
     <use x="1186.75976562" xlink:href="#BitstreamVeraSans-Roman-6f"/>
     <use x="1247.94140625" xlink:href="#BitstreamVeraSans-Roman-75"/>
     <use x="1311.3203125" xlink:href="#BitstreamVeraSans-Roman-67"/>
     <use x="1374.796875" xlink:href="#BitstreamVeraSans-Roman-68"/>
     <use x="1438.17578125" xlink:href="#BitstreamVeraSans-Roman-74"/>
     <use x="1477.38476562" xlink:href="#BitstreamVeraSans-Roman-20"/>
     <use x="1509.171875" xlink:href="#BitstreamVeraSans-Roman-6f"/>
     <use x="1570.35351562" xlink:href="#BitstreamVeraSans-Roman-75"/>
     <use x="1633.73242188" xlink:href="#BitstreamVeraSans-Roman-74"/>
     <use x="1672.94140625" xlink:href="#BitstreamVeraSans-Roman-20"/>
     <use x="1704.72851562" xlink:href="#BitstreamVeraSans-Roman-74"/>
     <use x="1743.9375" xlink:href="#BitstreamVeraSans-Roman-68"/>
     <use x="1807.31640625" xlink:href="#BitstreamVeraSans-Roman-65"/>
     <use x="1868.83984375" xlink:href="#BitstreamVeraSans-Roman-20"/>
     <use x="1900.62695312" xlink:href="#BitstreamVeraSans-Roman-64"/>
     <use x="1964.10351562" xlink:href="#BitstreamVeraSans-Roman-61"/>
     <use x="2025.3828125" xlink:href="#BitstreamVeraSans-Roman-79"/>
    </g>
   </g>
   <g id="legend_1">
    <g id="patch_67">
     <path d="
M552.337 37.9166
L572.337 37.9166
L572.337 30.9166
L552.337 30.9166
z
" style="fill:#4c72b0;stroke:#000000;stroke-linejoin:miter;stroke-width:0.3;"/>
    </g>
    <g id="text_16">
     <!-- default Leaf -->
     <defs>
      <path d="
M9.8125 72.9062
L19.6719 72.9062
L19.6719 8.29688
L55.1719 8.29688
L55.1719 0
L9.8125 0
z
" id="BitstreamVeraSans-Roman-4c"/>
      <path d="
M9.42188 75.9844
L18.4062 75.9844
L18.4062 0
L9.42188 0
z
" id="BitstreamVeraSans-Roman-6c"/>
     </defs>
     <g style="fill:#262626;" transform="translate(580.3371875 37.9165625)scale(0.1 -0.1)">
      <use xlink:href="#BitstreamVeraSans-Roman-64"/>
      <use x="63.4765625" xlink:href="#BitstreamVeraSans-Roman-65"/>
      <use x="125.0" xlink:href="#BitstreamVeraSans-Roman-66"/>
      <use x="160.205078125" xlink:href="#BitstreamVeraSans-Roman-61"/>
      <use x="221.484375" xlink:href="#BitstreamVeraSans-Roman-75"/>
      <use x="284.86328125" xlink:href="#BitstreamVeraSans-Roman-6c"/>
      <use x="312.646484375" xlink:href="#BitstreamVeraSans-Roman-74"/>
      <use x="351.85546875" xlink:href="#BitstreamVeraSans-Roman-20"/>
      <use x="383.642578125" xlink:href="#BitstreamVeraSans-Roman-4c"/>
      <use x="437.60546875" xlink:href="#BitstreamVeraSans-Roman-65"/>
      <use x="499.12890625" xlink:href="#BitstreamVeraSans-Roman-61"/>
      <use x="560.408203125" xlink:href="#BitstreamVeraSans-Roman-66"/>
     </g>
    </g>
    <g id="patch_68">
     <path d="
M552.337 52.5947
L572.337 52.5947
L572.337 45.5947
L552.337 45.5947
z
" style="fill:#55a868;stroke:#000000;stroke-linejoin:miter;stroke-width:0.3;"/>
    </g>
    <g id="text_17">
     <!-- Leaf 20.0 % 23832 Wh -->
     <defs>
      <path d="
M72.7031 32.0781
Q68.4531 32.0781 66.0312 28.4688
Q63.625 24.8594 63.625 18.4062
Q63.625 12.0625 66.0312 8.42188
Q68.4531 4.78125 72.7031 4.78125
Q76.8594 4.78125 79.2656 8.42188
Q81.6875 12.0625 81.6875 18.4062
Q81.6875 24.8125 79.2656 28.4375
Q76.8594 32.0781 72.7031 32.0781
M72.7031 38.2812
Q80.4219 38.2812 84.9531 32.9062
Q89.5 27.5469 89.5 18.4062
Q89.5 9.28125 84.9375 3.92188
Q80.375 -1.42188 72.7031 -1.42188
Q64.8906 -1.42188 60.3438 3.92188
Q55.8125 9.28125 55.8125 18.4062
Q55.8125 27.5938 60.375 32.9375
Q64.9375 38.2812 72.7031 38.2812
M22.3125 68.0156
Q18.1094 68.0156 15.6875 64.375
Q13.2812 60.75 13.2812 54.3906
Q13.2812 47.9531 15.6719 44.3281
Q18.0625 40.7188 22.3125 40.7188
Q26.5625 40.7188 28.9688 44.3281
Q31.3906 47.9531 31.3906 54.3906
Q31.3906 60.6875 28.9531 64.3438
Q26.5156 68.0156 22.3125 68.0156
M66.4062 74.2188
L74.2188 74.2188
L28.6094 -1.42188
L20.7969 -1.42188
z

M22.3125 74.2188
Q30.0312 74.2188 34.6094 68.875
Q39.2031 63.5312 39.2031 54.3906
Q39.2031 45.1719 34.6406 39.8438
Q30.0781 34.5156 22.3125 34.5156
Q14.5469 34.5156 10.0312 39.8594
Q5.51562 45.2188 5.51562 54.3906
Q5.51562 63.4844 10.0469 68.8438
Q14.5938 74.2188 22.3125 74.2188" id="BitstreamVeraSans-Roman-25"/>
      <path d="
M31.7812 34.625
Q24.75 34.625 20.7188 30.8594
Q16.7031 27.0938 16.7031 20.5156
Q16.7031 13.9219 20.7188 10.1562
Q24.75 6.39062 31.7812 6.39062
Q38.8125 6.39062 42.8594 10.1719
Q46.9219 13.9688 46.9219 20.5156
Q46.9219 27.0938 42.8906 30.8594
Q38.875 34.625 31.7812 34.625
M21.9219 38.8125
Q15.5781 40.375 12.0312 44.7188
Q8.5 49.0781 8.5 55.3281
Q8.5 64.0625 14.7188 69.1406
Q20.9531 74.2188 31.7812 74.2188
Q42.6719 74.2188 48.875 69.1406
Q55.0781 64.0625 55.0781 55.3281
Q55.0781 49.0781 51.5312 44.7188
Q48 40.375 41.7031 38.8125
Q48.8281 37.1562 52.7969 32.3125
Q56.7812 27.4844 56.7812 20.5156
Q56.7812 9.90625 50.3125 4.23438
Q43.8438 -1.42188 31.7812 -1.42188
Q19.7344 -1.42188 13.25 4.23438
Q6.78125 9.90625 6.78125 20.5156
Q6.78125 27.4844 10.7812 32.3125
Q14.7969 37.1562 21.9219 38.8125
M18.3125 54.3906
Q18.3125 48.7344 21.8438 45.5625
Q25.3906 42.3906 31.7812 42.3906
Q38.1406 42.3906 41.7188 45.5625
Q45.3125 48.7344 45.3125 54.3906
Q45.3125 60.0625 41.7188 63.2344
Q38.1406 66.4062 31.7812 66.4062
Q25.3906 66.4062 21.8438 63.2344
Q18.3125 60.0625 18.3125 54.3906" id="BitstreamVeraSans-Roman-38"/>
      <path d="
M10.6875 12.4062
L21 12.4062
L21 0
L10.6875 0
z
" id="BitstreamVeraSans-Roman-2e"/>
      <path d="
M3.32812 72.9062
L13.2812 72.9062
L28.6094 11.2812
L43.8906 72.9062
L54.9844 72.9062
L70.3125 11.2812
L85.5938 72.9062
L95.6094 72.9062
L77.2969 0
L64.8906 0
L49.5156 63.2812
L33.9844 0
L21.5781 0
z
" id="BitstreamVeraSans-Roman-57"/>
     </defs>
     <g style="fill:#262626;" transform="translate(580.3371875 52.5946875)scale(0.1 -0.1)">
      <use xlink:href="#BitstreamVeraSans-Roman-4c"/>
      <use x="53.962890625" xlink:href="#BitstreamVeraSans-Roman-65"/>
      <use x="115.486328125" xlink:href="#BitstreamVeraSans-Roman-61"/>
      <use x="176.765625" xlink:href="#BitstreamVeraSans-Roman-66"/>
      <use x="211.970703125" xlink:href="#BitstreamVeraSans-Roman-20"/>
      <use x="243.7578125" xlink:href="#BitstreamVeraSans-Roman-32"/>
      <use x="307.380859375" xlink:href="#BitstreamVeraSans-Roman-30"/>
      <use x="371.00390625" xlink:href="#BitstreamVeraSans-Roman-2e"/>
      <use x="402.791015625" xlink:href="#BitstreamVeraSans-Roman-30"/>
      <use x="466.4140625" xlink:href="#BitstreamVeraSans-Roman-20"/>
      <use x="498.201171875" xlink:href="#BitstreamVeraSans-Roman-25"/>
      <use x="593.220703125" xlink:href="#BitstreamVeraSans-Roman-20"/>
      <use x="625.0078125" xlink:href="#BitstreamVeraSans-Roman-32"/>
      <use x="688.630859375" xlink:href="#BitstreamVeraSans-Roman-33"/>
      <use x="752.25390625" xlink:href="#BitstreamVeraSans-Roman-38"/>
      <use x="815.876953125" xlink:href="#BitstreamVeraSans-Roman-33"/>
      <use x="879.5" xlink:href="#BitstreamVeraSans-Roman-32"/>
      <use x="943.123046875" xlink:href="#BitstreamVeraSans-Roman-20"/>
      <use x="974.91015625" xlink:href="#BitstreamVeraSans-Roman-57"/>
      <use x="1073.78710938" xlink:href="#BitstreamVeraSans-Roman-68"/>
     </g>
    </g>
    <g id="patch_69">
     <path d="
M552.337 67.2728
L572.337 67.2728
L572.337 60.2728
L552.337 60.2728
z
" style="fill:#c44e52;stroke:#000000;stroke-linejoin:miter;stroke-width:0.3;"/>
    </g>
    <g id="text_18">
     <!-- Leaf -20.0 % 23832 Wh -->
     <defs>
      <path d="
M4.89062 31.3906
L31.2031 31.3906
L31.2031 23.3906
L4.89062 23.3906
z
" id="BitstreamVeraSans-Roman-2d"/>
     </defs>
     <g style="fill:#262626;" transform="translate(580.3371875 67.2728125)scale(0.1 -0.1)">
      <use xlink:href="#BitstreamVeraSans-Roman-4c"/>
      <use x="53.962890625" xlink:href="#BitstreamVeraSans-Roman-65"/>
      <use x="115.486328125" xlink:href="#BitstreamVeraSans-Roman-61"/>
      <use x="176.765625" xlink:href="#BitstreamVeraSans-Roman-66"/>
      <use x="211.970703125" xlink:href="#BitstreamVeraSans-Roman-20"/>
      <use x="243.7578125" xlink:href="#BitstreamVeraSans-Roman-2d"/>
      <use x="279.841796875" xlink:href="#BitstreamVeraSans-Roman-32"/>
      <use x="343.46484375" xlink:href="#BitstreamVeraSans-Roman-30"/>
      <use x="407.087890625" xlink:href="#BitstreamVeraSans-Roman-2e"/>
      <use x="438.875" xlink:href="#BitstreamVeraSans-Roman-30"/>
      <use x="502.498046875" xlink:href="#BitstreamVeraSans-Roman-20"/>
      <use x="534.28515625" xlink:href="#BitstreamVeraSans-Roman-25"/>
      <use x="629.3046875" xlink:href="#BitstreamVeraSans-Roman-20"/>
      <use x="661.091796875" xlink:href="#BitstreamVeraSans-Roman-32"/>
      <use x="724.71484375" xlink:href="#BitstreamVeraSans-Roman-33"/>
      <use x="788.337890625" xlink:href="#BitstreamVeraSans-Roman-38"/>
      <use x="851.9609375" xlink:href="#BitstreamVeraSans-Roman-33"/>
      <use x="915.583984375" xlink:href="#BitstreamVeraSans-Roman-32"/>
      <use x="979.20703125" xlink:href="#BitstreamVeraSans-Roman-20"/>
      <use x="1010.99414062" xlink:href="#BitstreamVeraSans-Roman-57"/>
      <use x="1109.87109375" xlink:href="#BitstreamVeraSans-Roman-68"/>
     </g>
    </g>
    <g id="patch_70">
     <path d="
M552.337 81.9509
L572.337 81.9509
L572.337 74.9509
L552.337 74.9509
z
" style="fill:#8172b2;stroke:#000000;stroke-linejoin:miter;stroke-width:0.3;"/>
    </g>
    <g id="text_19">
     <!-- Leaf default 28598.4 Wh -->
     <defs>
      <path d="
M10.9844 1.51562
L10.9844 10.5
Q14.7031 8.73438 18.5 7.8125
Q22.3125 6.89062 25.9844 6.89062
Q35.75 6.89062 40.8906 13.4531
Q46.0469 20.0156 46.7812 33.4062
Q43.9531 29.2031 39.5938 26.9531
Q35.25 24.7031 29.9844 24.7031
Q19.0469 24.7031 12.6719 31.3125
Q6.29688 37.9375 6.29688 49.4219
Q6.29688 60.6406 12.9375 67.4219
Q19.5781 74.2188 30.6094 74.2188
Q43.2656 74.2188 49.9219 64.5156
Q56.5938 54.8281 56.5938 36.375
Q56.5938 19.1406 48.4062 8.85938
Q40.2344 -1.42188 26.4219 -1.42188
Q22.7031 -1.42188 18.8906 -0.6875
Q15.0938 0.046875 10.9844 1.51562
M30.6094 32.4219
Q37.25 32.4219 41.125 36.9531
Q45.0156 41.5 45.0156 49.4219
Q45.0156 57.2812 41.125 61.8438
Q37.25 66.4062 30.6094 66.4062
Q23.9688 66.4062 20.0938 61.8438
Q16.2188 57.2812 16.2188 49.4219
Q16.2188 41.5 20.0938 36.9531
Q23.9688 32.4219 30.6094 32.4219" id="BitstreamVeraSans-Roman-39"/>
     </defs>
     <g style="fill:#262626;" transform="translate(580.3371875 81.9509375)scale(0.1 -0.1)">
      <use xlink:href="#BitstreamVeraSans-Roman-4c"/>
      <use x="53.962890625" xlink:href="#BitstreamVeraSans-Roman-65"/>
      <use x="115.486328125" xlink:href="#BitstreamVeraSans-Roman-61"/>
      <use x="176.765625" xlink:href="#BitstreamVeraSans-Roman-66"/>
      <use x="211.970703125" xlink:href="#BitstreamVeraSans-Roman-20"/>
      <use x="243.7578125" xlink:href="#BitstreamVeraSans-Roman-64"/>
      <use x="307.234375" xlink:href="#BitstreamVeraSans-Roman-65"/>
      <use x="368.7578125" xlink:href="#BitstreamVeraSans-Roman-66"/>
      <use x="403.962890625" xlink:href="#BitstreamVeraSans-Roman-61"/>
      <use x="465.2421875" xlink:href="#BitstreamVeraSans-Roman-75"/>
      <use x="528.62109375" xlink:href="#BitstreamVeraSans-Roman-6c"/>
      <use x="556.404296875" xlink:href="#BitstreamVeraSans-Roman-74"/>
      <use x="595.61328125" xlink:href="#BitstreamVeraSans-Roman-20"/>
      <use x="627.400390625" xlink:href="#BitstreamVeraSans-Roman-32"/>
      <use x="691.0234375" xlink:href="#BitstreamVeraSans-Roman-38"/>
      <use x="754.646484375" xlink:href="#BitstreamVeraSans-Roman-35"/>
      <use x="818.26953125" xlink:href="#BitstreamVeraSans-Roman-39"/>
      <use x="881.892578125" xlink:href="#BitstreamVeraSans-Roman-38"/>
      <use x="945.515625" xlink:href="#BitstreamVeraSans-Roman-2e"/>
      <use x="977.302734375" xlink:href="#BitstreamVeraSans-Roman-34"/>
      <use x="1040.92578125" xlink:href="#BitstreamVeraSans-Roman-20"/>
      <use x="1072.71289062" xlink:href="#BitstreamVeraSans-Roman-57"/>
      <use x="1171.58984375" xlink:href="#BitstreamVeraSans-Roman-68"/>
     </g>
    </g>
    <g id="patch_71">
     <path d="
M552.337 96.6291
L572.337 96.6291
L572.337 89.6291
L552.337 89.6291
z
" style="fill:#ccb974;stroke:#000000;stroke-linejoin:miter;stroke-width:0.3;"/>
    </g>
    <g id="text_20">
     <!-- Leaf default 19065.6 Wh -->
     <defs>
      <path d="
M33.0156 40.375
Q26.375 40.375 22.4844 35.8281
Q18.6094 31.2969 18.6094 23.3906
Q18.6094 15.5312 22.4844 10.9531
Q26.375 6.39062 33.0156 6.39062
Q39.6562 6.39062 43.5312 10.9531
Q47.4062 15.5312 47.4062 23.3906
Q47.4062 31.2969 43.5312 35.8281
Q39.6562 40.375 33.0156 40.375
M52.5938 71.2969
L52.5938 62.3125
Q48.875 64.0625 45.0938 64.9844
Q41.3125 65.9219 37.5938 65.9219
Q27.8281 65.9219 22.6719 59.3281
Q17.5312 52.7344 16.7969 39.4062
Q19.6719 43.6562 24.0156 45.9219
Q28.375 48.1875 33.5938 48.1875
Q44.5781 48.1875 50.9531 41.5156
Q57.3281 34.8594 57.3281 23.3906
Q57.3281 12.1562 50.6875 5.35938
Q44.0469 -1.42188 33.0156 -1.42188
Q20.3594 -1.42188 13.6719 8.26562
Q6.98438 17.9688 6.98438 36.375
Q6.98438 53.6562 15.1875 63.9375
Q23.3906 74.2188 37.2031 74.2188
Q40.9219 74.2188 44.7031 73.4844
Q48.4844 72.75 52.5938 71.2969" id="BitstreamVeraSans-Roman-36"/>
     </defs>
     <g style="fill:#262626;" transform="translate(580.3371875 96.6290625)scale(0.1 -0.1)">
      <use xlink:href="#BitstreamVeraSans-Roman-4c"/>
      <use x="53.962890625" xlink:href="#BitstreamVeraSans-Roman-65"/>
      <use x="115.486328125" xlink:href="#BitstreamVeraSans-Roman-61"/>
      <use x="176.765625" xlink:href="#BitstreamVeraSans-Roman-66"/>
      <use x="211.970703125" xlink:href="#BitstreamVeraSans-Roman-20"/>
      <use x="243.7578125" xlink:href="#BitstreamVeraSans-Roman-64"/>
      <use x="307.234375" xlink:href="#BitstreamVeraSans-Roman-65"/>
      <use x="368.7578125" xlink:href="#BitstreamVeraSans-Roman-66"/>
      <use x="403.962890625" xlink:href="#BitstreamVeraSans-Roman-61"/>
      <use x="465.2421875" xlink:href="#BitstreamVeraSans-Roman-75"/>
      <use x="528.62109375" xlink:href="#BitstreamVeraSans-Roman-6c"/>
      <use x="556.404296875" xlink:href="#BitstreamVeraSans-Roman-74"/>
      <use x="595.61328125" xlink:href="#BitstreamVeraSans-Roman-20"/>
      <use x="627.400390625" xlink:href="#BitstreamVeraSans-Roman-31"/>
      <use x="691.0234375" xlink:href="#BitstreamVeraSans-Roman-39"/>
      <use x="754.646484375" xlink:href="#BitstreamVeraSans-Roman-30"/>
      <use x="818.26953125" xlink:href="#BitstreamVeraSans-Roman-36"/>
      <use x="881.892578125" xlink:href="#BitstreamVeraSans-Roman-35"/>
      <use x="945.515625" xlink:href="#BitstreamVeraSans-Roman-2e"/>
      <use x="977.302734375" xlink:href="#BitstreamVeraSans-Roman-36"/>
      <use x="1040.92578125" xlink:href="#BitstreamVeraSans-Roman-20"/>
      <use x="1072.71289062" xlink:href="#BitstreamVeraSans-Roman-57"/>
      <use x="1171.58984375" xlink:href="#BitstreamVeraSans-Roman-68"/>
     </g>
    </g>
   </g>
  </g>
 </g>
 <defs>
  <clipPath id="p440ca91bfd">
   <rect height="446.4" width="669.6" x="42.385625" y="21.318125"/>
  </clipPath>
 </defs>
</svg>
