<?xml version="1.0" encoding="utf-8" standalone="no"?>
<!DOCTYPE svg PUBLIC "-//W3C//DTD SVG 1.1//EN"
  "http://www.w3.org/Graphics/SVG/1.1/DTD/svg11.dtd">
<!-- Created with matplotlib (http://matplotlib.org/) -->
<svg height="508pt" version="1.1" viewBox="0 0 741 508" width="741pt" xmlns="http://www.w3.org/2000/svg" xmlns:xlink="http://www.w3.org/1999/xlink">
 <defs>
  <style type="text/css">
*{stroke-linecap:butt;stroke-linejoin:round;}
  </style>
 </defs>
 <g id="figure_1">
  <g id="patch_1">
   <path d="
M0 508.21
L741.757 508.21
L741.757 0
L0 0
L0 508.21" style="fill:none;"/>
  </g>
  <g id="axes_1">
   <g id="patch_2">
    <path d="
M59.3981 467.718
L728.998 467.718
L728.998 21.3181
L59.3981 21.3181
z
" style="fill:#ffffff;"/>
   </g>
   <g id="matplotlib.axis_1">
    <g id="xtick_1">
     <g id="line2d_1">
      <path clip-path="url(#pf97e01e5ff)" d="
M59.3981 467.718
L59.3981 21.3181" style="fill:none;stroke:#cccccc;stroke-linecap:round;"/>
     </g>
     <g id="line2d_2">
      <defs>
       <path d="
M0 0
L0 0" id="m219da94a98" style="stroke:#262626;"/>
      </defs>
      <g>
       <use style="fill:#262626;stroke:#262626;" x="59.398125" xlink:href="#m219da94a98" y="467.718125"/>
      </g>
     </g>
     <g id="line2d_3">
      <g>
       <use style="fill:#262626;stroke:#262626;" x="59.398125" xlink:href="#m219da94a98" y="21.318125"/>
      </g>
     </g>
     <g id="text_1">
      <!-- 0 -->
      <defs>
       <path d="
M31.7812 66.4062
Q24.1719 66.4062 20.3281 58.9062
Q16.5 51.4219 16.5 36.375
Q16.5 21.3906 20.3281 13.8906
Q24.1719 6.39062 31.7812 6.39062
Q39.4531 6.39062 43.2812 13.8906
Q47.125 21.3906 47.125 36.375
Q47.125 51.4219 43.2812 58.9062
Q39.4531 66.4062 31.7812 66.4062
M31.7812 74.2188
Q44.0469 74.2188 50.5156 64.5156
Q56.9844 54.8281 56.9844 36.375
Q56.9844 17.9688 50.5156 8.26562
Q44.0469 -1.42188 31.7812 -1.42188
Q19.5312 -1.42188 13.0625 8.26562
Q6.59375 17.9688 6.59375 36.375
Q6.59375 54.8281 13.0625 64.5156
Q19.5312 74.2188 31.7812 74.2188" id="BitstreamVeraSans-Roman-30"/>
      </defs>
      <g style="fill:#262626;" transform="translate(56.87859375 482.3165625)scale(0.1 -0.1)">
       <use xlink:href="#BitstreamVeraSans-Roman-30"/>
      </g>
     </g>
    </g>
    <g id="xtick_2">
     <g id="line2d_4">
      <path clip-path="url(#pf97e01e5ff)" d="
M193.318 467.718
L193.318 21.3181" style="fill:none;stroke:#cccccc;stroke-linecap:round;"/>
     </g>
     <g id="line2d_5">
      <g>
       <use style="fill:#262626;stroke:#262626;" x="193.318125" xlink:href="#m219da94a98" y="467.718125"/>
      </g>
     </g>
     <g id="line2d_6">
      <g>
       <use style="fill:#262626;stroke:#262626;" x="193.318125" xlink:href="#m219da94a98" y="21.318125"/>
      </g>
     </g>
     <g id="text_2">
      <!-- 5 -->
      <defs>
       <path d="
M10.7969 72.9062
L49.5156 72.9062
L49.5156 64.5938
L19.8281 64.5938
L19.8281 46.7344
Q21.9688 47.4688 24.1094 47.8281
Q26.2656 48.1875 28.4219 48.1875
Q40.625 48.1875 47.75 41.5
Q54.8906 34.8125 54.8906 23.3906
Q54.8906 11.625 47.5625 5.09375
Q40.2344 -1.42188 26.9062 -1.42188
Q22.3125 -1.42188 17.5469 -0.640625
Q12.7969 0.140625 7.71875 1.70312
L7.71875 11.625
Q12.1094 9.23438 16.7969 8.0625
Q21.4844 6.89062 26.7031 6.89062
Q35.1562 6.89062 40.0781 11.3281
Q45.0156 15.7656 45.0156 23.3906
Q45.0156 31 40.0781 35.4375
Q35.1562 39.8906 26.7031 39.8906
Q22.75 39.8906 18.8125 39.0156
Q14.8906 38.1406 10.7969 36.2812
z
" id="BitstreamVeraSans-Roman-35"/>
      </defs>
      <g style="fill:#262626;" transform="translate(190.95953125 482.3165625)scale(0.1 -0.1)">
       <use xlink:href="#BitstreamVeraSans-Roman-35"/>
      </g>
     </g>
    </g>
    <g id="xtick_3">
     <g id="line2d_7">
      <path clip-path="url(#pf97e01e5ff)" d="
M327.238 467.718
L327.238 21.3181" style="fill:none;stroke:#cccccc;stroke-linecap:round;"/>
     </g>
     <g id="line2d_8">
      <g>
       <use style="fill:#262626;stroke:#262626;" x="327.238125" xlink:href="#m219da94a98" y="467.718125"/>
      </g>
     </g>
     <g id="line2d_9">
      <g>
       <use style="fill:#262626;stroke:#262626;" x="327.238125" xlink:href="#m219da94a98" y="21.318125"/>
      </g>
     </g>
     <g id="text_3">
      <!-- 10 -->
      <defs>
       <path d="
M12.4062 8.29688
L28.5156 8.29688
L28.5156 63.9219
L10.9844 60.4062
L10.9844 69.3906
L28.4219 72.9062
L38.2812 72.9062
L38.2812 8.29688
L54.3906 8.29688
L54.3906 0
L12.4062 0
z
" id="BitstreamVeraSans-Roman-31"/>
      </defs>
      <g style="fill:#262626;" transform="translate(321.756875 482.3165625)scale(0.1 -0.1)">
       <use xlink:href="#BitstreamVeraSans-Roman-31"/>
       <use x="63.623046875" xlink:href="#BitstreamVeraSans-Roman-30"/>
      </g>
     </g>
    </g>
    <g id="xtick_4">
     <g id="line2d_10">
      <path clip-path="url(#pf97e01e5ff)" d="
M461.158 467.718
L461.158 21.3181" style="fill:none;stroke:#cccccc;stroke-linecap:round;"/>
     </g>
     <g id="line2d_11">
      <g>
       <use style="fill:#262626;stroke:#262626;" x="461.158125" xlink:href="#m219da94a98" y="467.718125"/>
      </g>
     </g>
     <g id="line2d_12">
      <g>
       <use style="fill:#262626;stroke:#262626;" x="461.158125" xlink:href="#m219da94a98" y="21.318125"/>
      </g>
     </g>
     <g id="text_4">
      <!-- 15 -->
      <g style="fill:#262626;" transform="translate(455.7815625 482.3165625)scale(0.1 -0.1)">
       <use xlink:href="#BitstreamVeraSans-Roman-31"/>
       <use x="63.623046875" xlink:href="#BitstreamVeraSans-Roman-35"/>
      </g>
     </g>
    </g>
    <g id="xtick_5">
     <g id="line2d_13">
      <path clip-path="url(#pf97e01e5ff)" d="
M595.078 467.718
L595.078 21.3181" style="fill:none;stroke:#cccccc;stroke-linecap:round;"/>
     </g>
     <g id="line2d_14">
      <g>
       <use style="fill:#262626;stroke:#262626;" x="595.078125" xlink:href="#m219da94a98" y="467.718125"/>
      </g>
     </g>
     <g id="line2d_15">
      <g>
       <use style="fill:#262626;stroke:#262626;" x="595.078125" xlink:href="#m219da94a98" y="21.318125"/>
      </g>
     </g>
     <g id="text_5">
      <!-- 20 -->
      <defs>
       <path d="
M19.1875 8.29688
L53.6094 8.29688
L53.6094 0
L7.32812 0
L7.32812 8.29688
Q12.9375 14.1094 22.625 23.8906
Q32.3281 33.6875 34.8125 36.5312
Q39.5469 41.8438 41.4219 45.5312
Q43.3125 49.2188 43.3125 52.7812
Q43.3125 58.5938 39.2344 62.25
Q35.1562 65.9219 28.6094 65.9219
Q23.9688 65.9219 18.8125 64.3125
Q13.6719 62.7031 7.8125 59.4219
L7.8125 69.3906
Q13.7656 71.7812 18.9375 73
Q24.125 74.2188 28.4219 74.2188
Q39.75 74.2188 46.4844 68.5469
Q53.2188 62.8906 53.2188 53.4219
Q53.2188 48.9219 51.5312 44.8906
Q49.8594 40.875 45.4062 35.4062
Q44.1875 33.9844 37.6406 27.2188
Q31.1094 20.4531 19.1875 8.29688" id="BitstreamVeraSans-Roman-32"/>
      </defs>
      <g style="fill:#262626;" transform="translate(589.4140625 482.3165625)scale(0.1 -0.1)">
       <use xlink:href="#BitstreamVeraSans-Roman-32"/>
       <use x="63.623046875" xlink:href="#BitstreamVeraSans-Roman-30"/>
      </g>
     </g>
    </g>
    <g id="xtick_6">
     <g id="line2d_16">
      <path clip-path="url(#pf97e01e5ff)" d="
M728.998 467.718
L728.998 21.3181" style="fill:none;stroke:#cccccc;stroke-linecap:round;"/>
     </g>
     <g id="line2d_17">
      <g>
       <use style="fill:#262626;stroke:#262626;" x="728.998125" xlink:href="#m219da94a98" y="467.718125"/>
      </g>
     </g>
     <g id="line2d_18">
      <g>
       <use style="fill:#262626;stroke:#262626;" x="728.998125" xlink:href="#m219da94a98" y="21.318125"/>
      </g>
     </g>
     <g id="text_6">
      <!-- 25 -->
      <g style="fill:#262626;" transform="translate(723.43875 482.3165625)scale(0.1 -0.1)">
       <use xlink:href="#BitstreamVeraSans-Roman-32"/>
       <use x="63.623046875" xlink:href="#BitstreamVeraSans-Roman-35"/>
      </g>
     </g>
    </g>
    <g id="text_7">
     <!-- Time of the day (hours) -->
     <defs>
      <path id="BitstreamVeraSans-Roman-20"/>
      <path d="
M8.5 21.5781
L8.5 54.6875
L17.4844 54.6875
L17.4844 21.9219
Q17.4844 14.1562 20.5 10.2656
Q23.5312 6.39062 29.5938 6.39062
Q36.8594 6.39062 41.0781 11.0312
Q45.3125 15.6719 45.3125 23.6875
L45.3125 54.6875
L54.2969 54.6875
L54.2969 0
L45.3125 0
L45.3125 8.40625
Q42.0469 3.42188 37.7188 1
Q33.4062 -1.42188 27.6875 -1.42188
Q18.2656 -1.42188 13.375 4.4375
Q8.5 10.2969 8.5 21.5781" id="BitstreamVeraSans-Roman-75"/>
      <path d="
M41.1094 46.2969
Q39.5938 47.1719 37.8125 47.5781
Q36.0312 48 33.8906 48
Q26.2656 48 22.1875 43.0469
Q18.1094 38.0938 18.1094 28.8125
L18.1094 0
L9.07812 0
L9.07812 54.6875
L18.1094 54.6875
L18.1094 46.1875
Q20.9531 51.1719 25.4844 53.5781
Q30.0312 56 36.5312 56
Q37.4531 56 38.5781 55.875
Q39.7031 55.7656 41.0625 55.5156
z
" id="BitstreamVeraSans-Roman-72"/>
      <path d="
M52 44.1875
Q55.375 50.25 60.0625 53.125
Q64.75 56 71.0938 56
Q79.6406 56 84.2812 50.0156
Q88.9219 44.0469 88.9219 33.0156
L88.9219 0
L79.8906 0
L79.8906 32.7188
Q79.8906 40.5781 77.0938 44.375
Q74.3125 48.1875 68.6094 48.1875
Q61.625 48.1875 57.5625 43.5469
Q53.5156 38.9219 53.5156 30.9062
L53.5156 0
L44.4844 0
L44.4844 32.7188
Q44.4844 40.625 41.7031 44.4062
Q38.9219 48.1875 33.1094 48.1875
Q26.2188 48.1875 22.1562 43.5312
Q18.1094 38.875 18.1094 30.9062
L18.1094 0
L9.07812 0
L9.07812 54.6875
L18.1094 54.6875
L18.1094 46.1875
Q21.1875 51.2188 25.4844 53.6094
Q29.7812 56 35.6875 56
Q41.6562 56 45.8281 52.9688
Q50 49.9531 52 44.1875" id="BitstreamVeraSans-Roman-6d"/>
      <path d="
M30.6094 48.3906
Q23.3906 48.3906 19.1875 42.75
Q14.9844 37.1094 14.9844 27.2969
Q14.9844 17.4844 19.1562 11.8438
Q23.3438 6.20312 30.6094 6.20312
Q37.7969 6.20312 41.9844 11.8594
Q46.1875 17.5312 46.1875 27.2969
Q46.1875 37.0156 41.9844 42.7031
Q37.7969 48.3906 30.6094 48.3906
M30.6094 56
Q42.3281 56 49.0156 48.375
Q55.7188 40.7656 55.7188 27.2969
Q55.7188 13.875 49.0156 6.21875
Q42.3281 -1.42188 30.6094 -1.42188
Q18.8438 -1.42188 12.1719 6.21875
Q5.51562 13.875 5.51562 27.2969
Q5.51562 40.7656 12.1719 48.375
Q18.8438 56 30.6094 56" id="BitstreamVeraSans-Roman-6f"/>
      <path d="
M31 75.875
Q24.4688 64.6562 21.2812 53.6562
Q18.1094 42.6719 18.1094 31.3906
Q18.1094 20.125 21.3125 9.0625
Q24.5156 -2 31 -13.1875
L23.1875 -13.1875
Q15.875 -1.70312 12.2344 9.375
Q8.59375 20.4531 8.59375 31.3906
Q8.59375 42.2812 12.2031 53.3125
Q15.8281 64.3594 23.1875 75.875
z
" id="BitstreamVeraSans-Roman-28"/>
      <path d="
M8.01562 75.875
L15.8281 75.875
Q23.1406 64.3594 26.7812 53.3125
Q30.4219 42.2812 30.4219 31.3906
Q30.4219 20.4531 26.7812 9.375
Q23.1406 -1.70312 15.8281 -13.1875
L8.01562 -13.1875
Q14.5 -2 17.7031 9.0625
Q20.9062 20.125 20.9062 31.3906
Q20.9062 42.6719 17.7031 53.6562
Q14.5 64.6562 8.01562 75.875" id="BitstreamVeraSans-Roman-29"/>
      <path d="
M32.1719 -5.07812
Q28.375 -14.8438 24.75 -17.8125
Q21.1406 -20.7969 15.0938 -20.7969
L7.90625 -20.7969
L7.90625 -13.2812
L13.1875 -13.2812
Q16.8906 -13.2812 18.9375 -11.5156
Q21 -9.76562 23.4844 -3.21875
L25.0938 0.875
L2.98438 54.6875
L12.5 54.6875
L29.5938 11.9219
L46.6875 54.6875
L56.2031 54.6875
z
" id="BitstreamVeraSans-Roman-79"/>
      <path d="
M9.42188 54.6875
L18.4062 54.6875
L18.4062 0
L9.42188 0
z

M9.42188 75.9844
L18.4062 75.9844
L18.4062 64.5938
L9.42188 64.5938
z
" id="BitstreamVeraSans-Roman-69"/>
      <path d="
M54.8906 33.0156
L54.8906 0
L45.9062 0
L45.9062 32.7188
Q45.9062 40.4844 42.875 44.3281
Q39.8438 48.1875 33.7969 48.1875
Q26.5156 48.1875 22.3125 43.5469
Q18.1094 38.9219 18.1094 30.9062
L18.1094 0
L9.07812 0
L9.07812 75.9844
L18.1094 75.9844
L18.1094 46.1875
Q21.3438 51.125 25.7031 53.5625
Q30.0781 56 35.7969 56
Q45.2188 56 50.0469 50.1719
Q54.8906 44.3438 54.8906 33.0156" id="BitstreamVeraSans-Roman-68"/>
      <path d="
M45.4062 46.3906
L45.4062 75.9844
L54.3906 75.9844
L54.3906 0
L45.4062 0
L45.4062 8.20312
Q42.5781 3.32812 38.25 0.953125
Q33.9375 -1.42188 27.875 -1.42188
Q17.9688 -1.42188 11.7344 6.48438
Q5.51562 14.4062 5.51562 27.2969
Q5.51562 40.1875 11.7344 48.0938
Q17.9688 56 27.875 56
Q33.9375 56 38.25 53.625
Q42.5781 51.2656 45.4062 46.3906
M14.7969 27.2969
Q14.7969 17.3906 18.875 11.75
Q22.9531 6.10938 30.0781 6.10938
Q37.2031 6.10938 41.2969 11.75
Q45.4062 17.3906 45.4062 27.2969
Q45.4062 37.2031 41.2969 42.8438
Q37.2031 48.4844 30.0781 48.4844
Q22.9531 48.4844 18.875 42.8438
Q14.7969 37.2031 14.7969 27.2969" id="BitstreamVeraSans-Roman-64"/>
      <path d="
M56.2031 29.5938
L56.2031 25.2031
L14.8906 25.2031
Q15.4844 15.9219 20.4844 11.0625
Q25.4844 6.20312 34.4219 6.20312
Q39.5938 6.20312 44.4531 7.46875
Q49.3125 8.73438 54.1094 11.2812
L54.1094 2.78125
Q49.2656 0.734375 44.1875 -0.34375
Q39.1094 -1.42188 33.8906 -1.42188
Q20.7969 -1.42188 13.1562 6.1875
Q5.51562 13.8125 5.51562 26.8125
Q5.51562 40.2344 12.7656 48.1094
Q20.0156 56 32.3281 56
Q43.3594 56 49.7812 48.8906
Q56.2031 41.7969 56.2031 29.5938
M47.2188 32.2344
Q47.125 39.5938 43.0938 43.9844
Q39.0625 48.3906 32.4219 48.3906
Q24.9062 48.3906 20.3906 44.1406
Q15.875 39.8906 15.1875 32.1719
z
" id="BitstreamVeraSans-Roman-65"/>
      <path d="
M-0.296875 72.9062
L61.375 72.9062
L61.375 64.5938
L35.5 64.5938
L35.5 0
L25.5938 0
L25.5938 64.5938
L-0.296875 64.5938
z
" id="BitstreamVeraSans-Roman-54"/>
      <path d="
M18.3125 70.2188
L18.3125 54.6875
L36.8125 54.6875
L36.8125 47.7031
L18.3125 47.7031
L18.3125 18.0156
Q18.3125 11.3281 20.1406 9.42188
Q21.9688 7.51562 27.5938 7.51562
L36.8125 7.51562
L36.8125 0
L27.5938 0
Q17.1875 0 13.2344 3.875
Q9.28125 7.76562 9.28125 18.0156
L9.28125 47.7031
L2.6875 47.7031
L2.6875 54.6875
L9.28125 54.6875
L9.28125 70.2188
z
" id="BitstreamVeraSans-Roman-74"/>
      <path d="
M37.1094 75.9844
L37.1094 68.5
L28.5156 68.5
Q23.6875 68.5 21.7969 66.5469
Q19.9219 64.5938 19.9219 59.5156
L19.9219 54.6875
L34.7188 54.6875
L34.7188 47.7031
L19.9219 47.7031
L19.9219 0
L10.8906 0
L10.8906 47.7031
L2.29688 47.7031
L2.29688 54.6875
L10.8906 54.6875
L10.8906 58.5
Q10.8906 67.625 15.1406 71.7969
Q19.3906 75.9844 28.6094 75.9844
z
" id="BitstreamVeraSans-Roman-66"/>
      <path d="
M34.2812 27.4844
Q23.3906 27.4844 19.1875 25
Q14.9844 22.5156 14.9844 16.5
Q14.9844 11.7188 18.1406 8.90625
Q21.2969 6.10938 26.7031 6.10938
Q34.1875 6.10938 38.7031 11.4062
Q43.2188 16.7031 43.2188 25.4844
L43.2188 27.4844
z

M52.2031 31.2031
L52.2031 0
L43.2188 0
L43.2188 8.29688
Q40.1406 3.32812 35.5469 0.953125
Q30.9531 -1.42188 24.3125 -1.42188
Q15.9219 -1.42188 10.9531 3.29688
Q6 8.01562 6 15.9219
Q6 25.1406 12.1719 29.8281
Q18.3594 34.5156 30.6094 34.5156
L43.2188 34.5156
L43.2188 35.4062
Q43.2188 41.6094 39.1406 45
Q35.0625 48.3906 27.6875 48.3906
Q23 48.3906 18.5469 47.2656
Q14.1094 46.1406 10.0156 43.8906
L10.0156 52.2031
Q14.9375 54.1094 19.5781 55.0469
Q24.2188 56 28.6094 56
Q40.4844 56 46.3438 49.8438
Q52.2031 43.7031 52.2031 31.2031" id="BitstreamVeraSans-Roman-61"/>
      <path d="
M44.2812 53.0781
L44.2812 44.5781
Q40.4844 46.5312 36.375 47.5
Q32.2812 48.4844 27.875 48.4844
Q21.1875 48.4844 17.8438 46.4375
Q14.5 44.3906 14.5 40.2812
Q14.5 37.1562 16.8906 35.375
Q19.2812 33.5938 26.5156 31.9844
L29.5938 31.2969
Q39.1562 29.25 43.1875 25.5156
Q47.2188 21.7812 47.2188 15.0938
Q47.2188 7.46875 41.1875 3.01562
Q35.1562 -1.42188 24.6094 -1.42188
Q20.2188 -1.42188 15.4531 -0.5625
Q10.6875 0.296875 5.42188 2
L5.42188 11.2812
Q10.4062 8.6875 15.2344 7.39062
Q20.0625 6.10938 24.8125 6.10938
Q31.1562 6.10938 34.5625 8.28125
Q37.9844 10.4531 37.9844 14.4062
Q37.9844 18.0625 35.5156 20.0156
Q33.0625 21.9688 24.7031 23.7812
L21.5781 24.5156
Q13.2344 26.2656 9.51562 29.9062
Q5.8125 33.5469 5.8125 39.8906
Q5.8125 47.6094 11.2812 51.7969
Q16.75 56 26.8125 56
Q31.7812 56 36.1719 55.2656
Q40.5781 54.5469 44.2812 53.0781" id="BitstreamVeraSans-Roman-73"/>
     </defs>
     <g style="fill:#262626;" transform="translate(324.170625 498.514375)scale(0.12 -0.12)">
      <use xlink:href="#BitstreamVeraSans-Roman-54"/>
      <use x="57.958984375" xlink:href="#BitstreamVeraSans-Roman-69"/>
      <use x="85.7421875" xlink:href="#BitstreamVeraSans-Roman-6d"/>
      <use x="183.154296875" xlink:href="#BitstreamVeraSans-Roman-65"/>
      <use x="244.677734375" xlink:href="#BitstreamVeraSans-Roman-20"/>
      <use x="276.46484375" xlink:href="#BitstreamVeraSans-Roman-6f"/>
      <use x="337.646484375" xlink:href="#BitstreamVeraSans-Roman-66"/>
      <use x="372.8515625" xlink:href="#BitstreamVeraSans-Roman-20"/>
      <use x="404.638671875" xlink:href="#BitstreamVeraSans-Roman-74"/>
      <use x="443.84765625" xlink:href="#BitstreamVeraSans-Roman-68"/>
      <use x="507.2265625" xlink:href="#BitstreamVeraSans-Roman-65"/>
      <use x="568.75" xlink:href="#BitstreamVeraSans-Roman-20"/>
      <use x="600.537109375" xlink:href="#BitstreamVeraSans-Roman-64"/>
      <use x="664.013671875" xlink:href="#BitstreamVeraSans-Roman-61"/>
      <use x="725.29296875" xlink:href="#BitstreamVeraSans-Roman-79"/>
      <use x="784.47265625" xlink:href="#BitstreamVeraSans-Roman-20"/>
      <use x="816.259765625" xlink:href="#BitstreamVeraSans-Roman-28"/>
      <use x="855.2734375" xlink:href="#BitstreamVeraSans-Roman-68"/>
      <use x="918.65234375" xlink:href="#BitstreamVeraSans-Roman-6f"/>
      <use x="979.833984375" xlink:href="#BitstreamVeraSans-Roman-75"/>
      <use x="1043.21289062" xlink:href="#BitstreamVeraSans-Roman-72"/>
      <use x="1084.32617188" xlink:href="#BitstreamVeraSans-Roman-73"/>
      <use x="1136.42578125" xlink:href="#BitstreamVeraSans-Roman-29"/>
     </g>
    </g>
   </g>
   <g id="matplotlib.axis_2">
    <g id="ytick_1">
     <g id="line2d_19">
      <path clip-path="url(#pf97e01e5ff)" d="
M59.3981 467.718
L728.998 467.718" style="fill:none;stroke:#cccccc;stroke-linecap:round;"/>
     </g>
     <g id="line2d_20">
      <g>
       <use style="fill:#262626;stroke:#262626;" x="59.398125" xlink:href="#m219da94a98" y="467.718125"/>
      </g>
     </g>
     <g id="line2d_21">
      <g>
       <use style="fill:#262626;stroke:#262626;" x="728.998125" xlink:href="#m219da94a98" y="467.718125"/>
      </g>
     </g>
     <g id="text_8">
      <!-- −0.02 -->
      <defs>
       <path d="
M10.5938 35.5
L73.1875 35.5
L73.1875 27.2031
L10.5938 27.2031
z
" id="BitstreamVeraSans-Roman-2212"/>
       <path d="
M10.6875 12.4062
L21 12.4062
L21 0
L10.6875 0
z
" id="BitstreamVeraSans-Roman-2e"/>
      </defs>
      <g style="fill:#262626;" transform="translate(23.81375 470.4775)scale(0.1 -0.1)">
       <use xlink:href="#BitstreamVeraSans-Roman-2212"/>
       <use x="83.7890625" xlink:href="#BitstreamVeraSans-Roman-30"/>
       <use x="147.412109375" xlink:href="#BitstreamVeraSans-Roman-2e"/>
       <use x="179.19921875" xlink:href="#BitstreamVeraSans-Roman-30"/>
       <use x="242.822265625" xlink:href="#BitstreamVeraSans-Roman-32"/>
      </g>
     </g>
    </g>
    <g id="ytick_2">
     <g id="line2d_22">
      <path clip-path="url(#pf97e01e5ff)" d="
M59.3981 393.318
L728.998 393.318" style="fill:none;stroke:#cccccc;stroke-linecap:round;"/>
     </g>
     <g id="line2d_23">
      <g>
       <use style="fill:#262626;stroke:#262626;" x="59.398125" xlink:href="#m219da94a98" y="393.318125"/>
      </g>
     </g>
     <g id="line2d_24">
      <g>
       <use style="fill:#262626;stroke:#262626;" x="728.998125" xlink:href="#m219da94a98" y="393.318125"/>
      </g>
     </g>
     <g id="text_9">
      <!-- 0.00 -->
      <g style="fill:#262626;" transform="translate(31.4559375 396.0775)scale(0.1 -0.1)">
       <use xlink:href="#BitstreamVeraSans-Roman-30"/>
       <use x="63.623046875" xlink:href="#BitstreamVeraSans-Roman-2e"/>
       <use x="95.41015625" xlink:href="#BitstreamVeraSans-Roman-30"/>
       <use x="159.033203125" xlink:href="#BitstreamVeraSans-Roman-30"/>
      </g>
     </g>
    </g>
    <g id="ytick_3">
     <g id="line2d_25">
      <path clip-path="url(#pf97e01e5ff)" d="
M59.3981 318.918
L728.998 318.918" style="fill:none;stroke:#cccccc;stroke-linecap:round;"/>
     </g>
     <g id="line2d_26">
      <g>
       <use style="fill:#262626;stroke:#262626;" x="59.398125" xlink:href="#m219da94a98" y="318.918125"/>
      </g>
     </g>
     <g id="line2d_27">
      <g>
       <use style="fill:#262626;stroke:#262626;" x="728.998125" xlink:href="#m219da94a98" y="318.918125"/>
      </g>
     </g>
     <g id="text_10">
      <!-- 0.02 -->
      <g style="fill:#262626;" transform="translate(31.7934375 321.6775)scale(0.1 -0.1)">
       <use xlink:href="#BitstreamVeraSans-Roman-30"/>
       <use x="63.623046875" xlink:href="#BitstreamVeraSans-Roman-2e"/>
       <use x="95.41015625" xlink:href="#BitstreamVeraSans-Roman-30"/>
       <use x="159.033203125" xlink:href="#BitstreamVeraSans-Roman-32"/>
      </g>
     </g>
    </g>
    <g id="ytick_4">
     <g id="line2d_28">
      <path clip-path="url(#pf97e01e5ff)" d="
M59.3981 244.518
L728.998 244.518" style="fill:none;stroke:#cccccc;stroke-linecap:round;"/>
     </g>
     <g id="line2d_29">
      <g>
       <use style="fill:#262626;stroke:#262626;" x="59.398125" xlink:href="#m219da94a98" y="244.518125"/>
      </g>
     </g>
     <g id="line2d_30">
      <g>
       <use style="fill:#262626;stroke:#262626;" x="728.998125" xlink:href="#m219da94a98" y="244.518125"/>
      </g>
     </g>
     <g id="text_11">
      <!-- 0.04 -->
      <defs>
       <path d="
M37.7969 64.3125
L12.8906 25.3906
L37.7969 25.3906
z

M35.2031 72.9062
L47.6094 72.9062
L47.6094 25.3906
L58.0156 25.3906
L58.0156 17.1875
L47.6094 17.1875
L47.6094 0
L37.7969 0
L37.7969 17.1875
L4.89062 17.1875
L4.89062 26.7031
z
" id="BitstreamVeraSans-Roman-34"/>
      </defs>
      <g style="fill:#262626;" transform="translate(31.3528125 247.2775)scale(0.1 -0.1)">
       <use xlink:href="#BitstreamVeraSans-Roman-30"/>
       <use x="63.623046875" xlink:href="#BitstreamVeraSans-Roman-2e"/>
       <use x="95.41015625" xlink:href="#BitstreamVeraSans-Roman-30"/>
       <use x="159.033203125" xlink:href="#BitstreamVeraSans-Roman-34"/>
      </g>
     </g>
    </g>
    <g id="ytick_5">
     <g id="line2d_31">
      <path clip-path="url(#pf97e01e5ff)" d="
M59.3981 170.118
L728.998 170.118" style="fill:none;stroke:#cccccc;stroke-linecap:round;"/>
     </g>
     <g id="line2d_32">
      <g>
       <use style="fill:#262626;stroke:#262626;" x="59.398125" xlink:href="#m219da94a98" y="170.118125"/>
      </g>
     </g>
     <g id="line2d_33">
      <g>
       <use style="fill:#262626;stroke:#262626;" x="728.998125" xlink:href="#m219da94a98" y="170.118125"/>
      </g>
     </g>
     <g id="text_12">
      <!-- 0.06 -->
      <defs>
       <path d="
M33.0156 40.375
Q26.375 40.375 22.4844 35.8281
Q18.6094 31.2969 18.6094 23.3906
Q18.6094 15.5312 22.4844 10.9531
Q26.375 6.39062 33.0156 6.39062
Q39.6562 6.39062 43.5312 10.9531
Q47.4062 15.5312 47.4062 23.3906
Q47.4062 31.2969 43.5312 35.8281
Q39.6562 40.375 33.0156 40.375
M52.5938 71.2969
L52.5938 62.3125
Q48.875 64.0625 45.0938 64.9844
Q41.3125 65.9219 37.5938 65.9219
Q27.8281 65.9219 22.6719 59.3281
Q17.5312 52.7344 16.7969 39.4062
Q19.6719 43.6562 24.0156 45.9219
Q28.375 48.1875 33.5938 48.1875
Q44.5781 48.1875 50.9531 41.5156
Q57.3281 34.8594 57.3281 23.3906
Q57.3281 12.1562 50.6875 5.35938
Q44.0469 -1.42188 33.0156 -1.42188
Q20.3594 -1.42188 13.6719 8.26562
Q6.98438 17.9688 6.98438 36.375
Q6.98438 53.6562 15.1875 63.9375
Q23.3906 74.2188 37.2031 74.2188
Q40.9219 74.2188 44.7031 73.4844
Q48.4844 72.75 52.5938 71.2969" id="BitstreamVeraSans-Roman-36"/>
      </defs>
      <g style="fill:#262626;" transform="translate(31.4215625 172.8775)scale(0.1 -0.1)">
       <use xlink:href="#BitstreamVeraSans-Roman-30"/>
       <use x="63.623046875" xlink:href="#BitstreamVeraSans-Roman-2e"/>
       <use x="95.41015625" xlink:href="#BitstreamVeraSans-Roman-30"/>
       <use x="159.033203125" xlink:href="#BitstreamVeraSans-Roman-36"/>
      </g>
     </g>
    </g>
    <g id="ytick_6">
     <g id="line2d_34">
      <path clip-path="url(#pf97e01e5ff)" d="
M59.3981 95.7181
L728.998 95.7181" style="fill:none;stroke:#cccccc;stroke-linecap:round;"/>
     </g>
     <g id="line2d_35">
      <g>
       <use style="fill:#262626;stroke:#262626;" x="59.398125" xlink:href="#m219da94a98" y="95.718125"/>
      </g>
     </g>
     <g id="line2d_36">
      <g>
       <use style="fill:#262626;stroke:#262626;" x="728.998125" xlink:href="#m219da94a98" y="95.718125"/>
      </g>
     </g>
     <g id="text_13">
      <!-- 0.08 -->
      <defs>
       <path d="
M31.7812 34.625
Q24.75 34.625 20.7188 30.8594
Q16.7031 27.0938 16.7031 20.5156
Q16.7031 13.9219 20.7188 10.1562
Q24.75 6.39062 31.7812 6.39062
Q38.8125 6.39062 42.8594 10.1719
Q46.9219 13.9688 46.9219 20.5156
Q46.9219 27.0938 42.8906 30.8594
Q38.875 34.625 31.7812 34.625
M21.9219 38.8125
Q15.5781 40.375 12.0312 44.7188
Q8.5 49.0781 8.5 55.3281
Q8.5 64.0625 14.7188 69.1406
Q20.9531 74.2188 31.7812 74.2188
Q42.6719 74.2188 48.875 69.1406
Q55.0781 64.0625 55.0781 55.3281
Q55.0781 49.0781 51.5312 44.7188
Q48 40.375 41.7031 38.8125
Q48.8281 37.1562 52.7969 32.3125
Q56.7812 27.4844 56.7812 20.5156
Q56.7812 9.90625 50.3125 4.23438
Q43.8438 -1.42188 31.7812 -1.42188
Q19.7344 -1.42188 13.25 4.23438
Q6.78125 9.90625 6.78125 20.5156
Q6.78125 27.4844 10.7812 32.3125
Q14.7969 37.1562 21.9219 38.8125
M18.3125 54.3906
Q18.3125 48.7344 21.8438 45.5625
Q25.3906 42.3906 31.7812 42.3906
Q38.1406 42.3906 41.7188 45.5625
Q45.3125 48.7344 45.3125 54.3906
Q45.3125 60.0625 41.7188 63.2344
Q38.1406 66.4062 31.7812 66.4062
Q25.3906 66.4062 21.8438 63.2344
Q18.3125 60.0625 18.3125 54.3906" id="BitstreamVeraSans-Roman-38"/>
      </defs>
      <g style="fill:#262626;" transform="translate(31.47625 98.4775)scale(0.1 -0.1)">
       <use xlink:href="#BitstreamVeraSans-Roman-30"/>
       <use x="63.623046875" xlink:href="#BitstreamVeraSans-Roman-2e"/>
       <use x="95.41015625" xlink:href="#BitstreamVeraSans-Roman-30"/>
       <use x="159.033203125" xlink:href="#BitstreamVeraSans-Roman-38"/>
      </g>
     </g>
    </g>
    <g id="ytick_7">
     <g id="line2d_37">
      <path clip-path="url(#pf97e01e5ff)" d="
M59.3981 21.3181
L728.998 21.3181" style="fill:none;stroke:#cccccc;stroke-linecap:round;"/>
     </g>
     <g id="line2d_38">
      <g>
       <use style="fill:#262626;stroke:#262626;" x="59.398125" xlink:href="#m219da94a98" y="21.318125"/>
      </g>
     </g>
     <g id="line2d_39">
      <g>
       <use style="fill:#262626;stroke:#262626;" x="728.998125" xlink:href="#m219da94a98" y="21.318125"/>
      </g>
     </g>
     <g id="text_14">
      <!-- 0.10 -->
      <g style="fill:#262626;" transform="translate(31.4559375 24.0775)scale(0.1 -0.1)">
       <use xlink:href="#BitstreamVeraSans-Roman-30"/>
       <use x="63.623046875" xlink:href="#BitstreamVeraSans-Roman-2e"/>
       <use x="95.41015625" xlink:href="#BitstreamVeraSans-Roman-31"/>
       <use x="159.033203125" xlink:href="#BitstreamVeraSans-Roman-30"/>
      </g>
     </g>
    </g>
    <g id="text_15">
     <!-- Power consumption (MW) -->
     <defs>
      <path d="
M9.8125 72.9062
L24.5156 72.9062
L43.1094 23.2969
L61.8125 72.9062
L76.5156 72.9062
L76.5156 0
L66.8906 0
L66.8906 64.0156
L48.0938 14.0156
L38.1875 14.0156
L19.3906 64.0156
L19.3906 0
L9.8125 0
z
" id="BitstreamVeraSans-Roman-4d"/>
      <path d="
M54.8906 33.0156
L54.8906 0
L45.9062 0
L45.9062 32.7188
Q45.9062 40.4844 42.875 44.3281
Q39.8438 48.1875 33.7969 48.1875
Q26.5156 48.1875 22.3125 43.5469
Q18.1094 38.9219 18.1094 30.9062
L18.1094 0
L9.07812 0
L9.07812 54.6875
L18.1094 54.6875
L18.1094 46.1875
Q21.3438 51.125 25.7031 53.5625
Q30.0781 56 35.7969 56
Q45.2188 56 50.0469 50.1719
Q54.8906 44.3438 54.8906 33.0156" id="BitstreamVeraSans-Roman-6e"/>
      <path d="
M19.6719 64.7969
L19.6719 37.4062
L32.0781 37.4062
Q38.9688 37.4062 42.7188 40.9688
Q46.4844 44.5312 46.4844 51.125
Q46.4844 57.6719 42.7188 61.2344
Q38.9688 64.7969 32.0781 64.7969
z

M9.8125 72.9062
L32.0781 72.9062
Q44.3438 72.9062 50.6094 67.3594
Q56.8906 61.8125 56.8906 51.125
Q56.8906 40.3281 50.6094 34.8125
Q44.3438 29.2969 32.0781 29.2969
L19.6719 29.2969
L19.6719 0
L9.8125 0
z
" id="BitstreamVeraSans-Roman-50"/>
      <path d="
M48.7812 52.5938
L48.7812 44.1875
Q44.9688 46.2969 41.1406 47.3438
Q37.3125 48.3906 33.4062 48.3906
Q24.6562 48.3906 19.8125 42.8438
Q14.9844 37.3125 14.9844 27.2969
Q14.9844 17.2812 19.8125 11.7344
Q24.6562 6.20312 33.4062 6.20312
Q37.3125 6.20312 41.1406 7.25
Q44.9688 8.29688 48.7812 10.4062
L48.7812 2.09375
Q45.0156 0.34375 40.9844 -0.53125
Q36.9688 -1.42188 32.4219 -1.42188
Q20.0625 -1.42188 12.7812 6.34375
Q5.51562 14.1094 5.51562 27.2969
Q5.51562 40.6719 12.8594 48.3281
Q20.2188 56 33.0156 56
Q37.1562 56 41.1094 55.1406
Q45.0625 54.2969 48.7812 52.5938" id="BitstreamVeraSans-Roman-63"/>
      <path d="
M3.32812 72.9062
L13.2812 72.9062
L28.6094 11.2812
L43.8906 72.9062
L54.9844 72.9062
L70.3125 11.2812
L85.5938 72.9062
L95.6094 72.9062
L77.2969 0
L64.8906 0
L49.5156 63.2812
L33.9844 0
L21.5781 0
z
" id="BitstreamVeraSans-Roman-57"/>
      <path d="
M4.20312 54.6875
L13.1875 54.6875
L24.4219 12.0156
L35.5938 54.6875
L46.1875 54.6875
L57.4219 12.0156
L68.6094 54.6875
L77.5938 54.6875
L63.2812 0
L52.6875 0
L40.9219 44.8281
L29.1094 0
L18.5 0
z
" id="BitstreamVeraSans-Roman-77"/>
      <path d="
M18.1094 8.20312
L18.1094 -20.7969
L9.07812 -20.7969
L9.07812 54.6875
L18.1094 54.6875
L18.1094 46.3906
Q20.9531 51.2656 25.2656 53.625
Q29.5938 56 35.5938 56
Q45.5625 56 51.7812 48.0938
Q58.0156 40.1875 58.0156 27.2969
Q58.0156 14.4062 51.7812 6.48438
Q45.5625 -1.42188 35.5938 -1.42188
Q29.5938 -1.42188 25.2656 0.953125
Q20.9531 3.32812 18.1094 8.20312
M48.6875 27.2969
Q48.6875 37.2031 44.6094 42.8438
Q40.5312 48.4844 33.4062 48.4844
Q26.2656 48.4844 22.1875 42.8438
Q18.1094 37.2031 18.1094 27.2969
Q18.1094 17.3906 22.1875 11.75
Q26.2656 6.10938 33.4062 6.10938
Q40.5312 6.10938 44.6094 11.75
Q48.6875 17.3906 48.6875 27.2969" id="BitstreamVeraSans-Roman-70"/>
     </defs>
     <g style="fill:#262626;" transform="translate(16.318125 320.5915625)rotate(-90.0)scale(0.12 -0.12)">
      <use xlink:href="#BitstreamVeraSans-Roman-50"/>
      <use x="56.677734375" xlink:href="#BitstreamVeraSans-Roman-6f"/>
      <use x="117.859375" xlink:href="#BitstreamVeraSans-Roman-77"/>
      <use x="199.646484375" xlink:href="#BitstreamVeraSans-Roman-65"/>
      <use x="261.169921875" xlink:href="#BitstreamVeraSans-Roman-72"/>
      <use x="302.283203125" xlink:href="#BitstreamVeraSans-Roman-20"/>
      <use x="334.0703125" xlink:href="#BitstreamVeraSans-Roman-63"/>
      <use x="389.05078125" xlink:href="#BitstreamVeraSans-Roman-6f"/>
      <use x="450.232421875" xlink:href="#BitstreamVeraSans-Roman-6e"/>
      <use x="513.611328125" xlink:href="#BitstreamVeraSans-Roman-73"/>
      <use x="565.7109375" xlink:href="#BitstreamVeraSans-Roman-75"/>
      <use x="629.08984375" xlink:href="#BitstreamVeraSans-Roman-6d"/>
      <use x="726.501953125" xlink:href="#BitstreamVeraSans-Roman-70"/>
      <use x="789.978515625" xlink:href="#BitstreamVeraSans-Roman-74"/>
      <use x="829.1875" xlink:href="#BitstreamVeraSans-Roman-69"/>
      <use x="856.970703125" xlink:href="#BitstreamVeraSans-Roman-6f"/>
      <use x="918.15234375" xlink:href="#BitstreamVeraSans-Roman-6e"/>
      <use x="981.53125" xlink:href="#BitstreamVeraSans-Roman-20"/>
      <use x="1013.31835938" xlink:href="#BitstreamVeraSans-Roman-28"/>
      <use x="1052.33203125" xlink:href="#BitstreamVeraSans-Roman-4d"/>
      <use x="1138.61132812" xlink:href="#BitstreamVeraSans-Roman-57"/>
      <use x="1237.48828125" xlink:href="#BitstreamVeraSans-Roman-29"/>
     </g>
    </g>
   </g>
   <g id="line2d_40">
    <path clip-path="url(#pf97e01e5ff)" d="
M59.3981 347.339
L60.2909 347.339
L60.7373 341.982
L62.5229 341.982
L62.9693 347.339
L63.4157 336.625
L63.8621 347.339
L64.3085 341.982
L64.7549 347.339
L65.2013 347.339
L65.6477 341.982
L66.0941 341.982
L66.5405 336.625
L67.4333 336.625
L67.8797 331.269
L68.3261 331.269
L68.7725 336.625
L70.1117 336.625
L70.5581 312.073
L71.0045 312.073
L71.4509 306.717
L71.8973 312.073
L72.3437 290.646
L72.7901 312.073
L73.2365 306.717
L73.6829 306.717
L74.1293 312.073
L75.0221 312.073
L75.4685 306.717
L75.9149 312.073
L77.7005 312.073
L78.1469 336.625
L78.5933 336.625
L79.0397 331.269
L79.9325 306.717
L80.3789 312.073
L81.7181 312.073
L82.1645 306.717
L82.6109 312.073
L83.9501 312.073
L84.3965 306.717
L84.8429 306.717
L85.2893 287.521
L85.7357 282.165
L86.1821 287.521
L86.6285 282.165
L87.0749 287.521
L87.5213 282.165
L87.9677 287.521
L88.4141 312.073
L88.8605 317.43
L89.3069 317.43
L89.7533 312.073
L90.1997 322.787
L90.6461 312.073
L91.9853 312.073
L92.4317 317.43
L92.8781 312.073
L93.7709 312.073
L94.2173 262.969
L94.6637 317.43
L95.1101 296.003
L95.5565 306.717
L96.0029 306.717
L96.4493 296.003
L96.8957 271.451
L97.3421 301.36
L97.7885 290.646
L98.2349 320.555
L98.6813 320.555
L99.1277 315.198
L101.36 315.198
L101.806 299.128
L102.253 299.128
L102.699 293.771
L103.145 293.771
L104.038 304.485
L104.485 299.128
L108.056 299.128
L108.502 293.771
L108.949 304.485
L109.395 299.128
L109.841 304.485
L110.288 304.485
L110.734 299.128
L111.181 304.485
L111.627 304.485
L112.073 299.128
L112.52 304.485
L112.966 304.485
L113.413 293.771
L113.859 299.128
L114.305 269.219
L114.752 274.576
L115.198 258.505
L115.645 263.862
L116.984 263.862
L117.43 253.149
L118.323 253.149
L118.769 247.792
L119.216 253.149
L119.662 247.792
L120.109 253.149
L120.555 247.792
L121.001 253.149
L121.894 253.149
L122.341 288.414
L123.233 288.414
L123.68 293.771
L124.126 288.414
L125.912 288.414
L126.358 283.057
L126.805 283.057
L127.251 288.414
L127.697 277.701
L128.144 277.701
L128.59 283.057
L130.376 283.057
L130.822 277.701
L131.269 283.057
L131.715 283.057
L132.161 288.414
L132.608 283.057
L133.054 263.862
L133.501 258.505
L134.393 269.219
L134.84 247.792
L135.286 253.149
L135.733 253.149
L136.179 258.505
L136.625 258.505
L137.072 269.219
L137.518 253.149
L137.965 242.435
L138.411 242.435
L138.857 237.078
L139.304 237.078
L139.75 242.435
L140.197 237.078
L141.536 237.078
L141.982 231.721
L142.429 237.078
L142.875 231.721
L143.321 231.721
L143.768 226.365
L144.661 226.365
L145.107 221.008
L146 231.721
L146.446 215.651
L146.893 215.651
L147.339 210.294
L147.785 215.651
L149.571 215.651
L150.017 221.008
L150.464 221.008
L150.91 240.203
L151.357 245.56
L154.928 245.56
L155.374 234.846
L157.16 234.846
L157.606 229.489
L158.053 234.846
L158.945 234.846
L159.838 224.133
L160.731 224.133
L161.177 213.419
L161.624 229.489
L162.07 213.419
L162.517 218.776
L164.302 218.776
L164.749 224.133
L165.195 224.133
L165.641 218.776
L166.088 224.133
L168.32 224.133
L168.766 213.419
L169.213 213.419
L169.659 237.971
L170.105 243.328
L170.552 237.971
L170.998 227.257
L171.891 227.257
L172.337 232.614
L173.23 221.901
L174.123 221.901
L174.569 227.257
L175.016 221.901
L175.462 200.473
L175.909 200.473
L176.355 205.83
L177.248 205.83
L178.141 195.117
L178.587 200.473
L179.033 195.117
L180.819 195.117
L181.265 200.473
L181.712 189.76
L182.158 173.689
L183.051 173.689
L183.497 179.046
L183.944 173.689
L185.729 173.689
L186.176 179.046
L186.622 168.333
L187.515 168.333
L187.961 173.689
L188.408 162.976
L188.854 168.333
L190.193 168.333
L190.64 162.976
L191.979 162.976
L192.425 157.619
L193.765 157.619
L194.211 162.976
L194.657 162.976
L195.104 168.333
L195.55 152.262
L196.443 152.262
L197.336 141.549
L197.782 141.549
L198.229 146.905
L198.675 141.549
L199.568 141.549
L200.014 130.835
L200.461 130.835
L200.907 125.478
L201.353 130.835
L201.8 130.835
L202.246 125.478
L203.585 125.478
L204.032 114.765
L204.925 114.765
L205.817 104.051
L206.264 104.051
L206.71 114.765
L207.157 120.121
L208.942 120.121
L209.389 130.835
L210.728 130.835
L211.174 125.478
L211.621 130.835
L212.96 130.835
L213.406 125.478
L215.192 125.478
L215.638 120.121
L216.531 120.121
L216.977 125.478
L217.424 125.478
L217.87 130.835
L218.317 130.835
L218.763 136.192
L219.209 136.192
L219.656 160.744
L220.102 111.64
L220.549 136.192
L222.781 136.192
L223.227 130.835
L223.673 136.192
L224.12 136.192
L224.566 100.926
L225.013 125.478
L225.459 106.283
L226.352 116.997
L227.691 116.997
L228.137 122.353
L229.03 111.64
L229.477 111.64
L229.923 106.283
L230.816 106.283
L231.262 111.64
L233.048 111.64
L233.494 122.353
L233.941 122.353
L234.387 116.997
L234.833 122.353
L235.28 122.353
L235.726 111.64
L237.512 111.64
L237.958 87.0877
L239.297 87.0877
L239.744 81.7309
L240.19 87.0877
L240.637 62.5357
L241.083 62.5357
L241.529 92.4445
L242.422 81.7309
L242.869 111.64
L243.315 81.7309
L244.208 136.192
L244.654 141.549
L245.101 130.835
L245.547 130.835
L245.993 111.64
L246.44 155.387
L246.886 146.905
L247.333 127.71
L247.779 152.262
L248.225 127.71
L248.672 133.067
L249.118 122.353
L250.011 122.353
L250.457 116.997
L250.904 122.353
L251.35 116.997
L252.689 116.997
L253.136 141.549
L253.582 141.549
L254.029 136.192
L255.368 136.192
L256.261 81.7309
L256.707 106.283
L258.046 106.283
L258.939 57.1789
L259.385 81.7309
L259.832 81.7309
L260.278 29.5021
L260.725 54.0541
L261.171 54.0541
L261.617 29.5021
L262.064 59.4109
L262.51 54.0541
L262.957 29.5021
L263.403 78.6061
L263.849 83.9629
L264.296 83.9629
L264.742 89.3197
L266.081 89.3197
L266.528 64.7677
L266.974 94.6765
L267.421 94.6765
L267.867 70.1245
L268.313 75.4813
L268.76 70.1245
L269.206 75.4813
L269.653 75.4813
L270.099 105.39
L270.545 91.5517
L270.992 116.104
L271.438 110.747
L272.331 110.747
L272.777 86.1949
L273.224 116.104
L273.67 137.531
L274.117 167.44
L274.563 142.888
L275.009 142.888
L275.456 118.336
L275.902 137.531
L276.795 137.531
L277.241 118.336
L277.688 123.693
L279.027 123.693
L279.473 99.1405
L279.92 99.1405
L280.366 104.497
L280.813 104.497
L281.259 79.9453
L282.152 129.049
L282.598 79.9453
L283.045 60.7501
L283.491 85.3021
L284.384 96.0157
L285.277 96.0157
L285.723 120.568
L286.169 76.8205
L287.062 131.281
L288.401 131.281
L288.848 106.729
L289.294 125.925
L289.741 101.373
L290.187 101.373
L290.633 125.925
L291.973 125.925
L292.419 150.477
L293.312 150.477
L293.758 155.833
L294.205 155.833
L294.651 131.281
L295.097 131.281
L295.544 136.638
L295.99 171.904
L296.883 171.904
L297.329 196.456
L297.776 196.456
L298.222 215.651
L298.669 191.099
L299.115 191.099
L299.561 185.742
L300.008 191.099
L300.454 207.169
L300.901 231.721
L301.347 201.813
L301.793 182.617
L302.24 207.169
L302.686 201.813
L303.133 201.813
L303.579 226.365
L304.025 177.261
L304.472 177.261
L304.918 152.709
L305.365 152.709
L305.811 128.157
L306.257 152.709
L306.704 152.709
L307.15 144.227
L307.597 163.422
L308.489 163.422
L308.936 138.87
L309.382 163.422
L310.275 114.318
L310.721 144.227
L311.168 114.318
L311.614 133.513
L312.061 89.7661
L312.507 95.1229
L312.953 105.837
L313.4 100.48
L316.078 100.48
L316.525 95.1229
L316.971 70.5709
L317.417 70.5709
L317.864 75.9277
L318.31 46.0189
L318.757 46.0189
L319.203 70.5709
L319.649 81.2845
L320.096 105.837
L320.989 56.7325
L321.435 81.2845
L322.328 81.2845
L322.774 75.9277
L323.667 75.9277
L324.113 81.2845
L325.006 81.2845
L325.453 86.6413
L325.899 81.2845
L326.345 81.2845
L326.792 86.6413
L327.238 86.6413
L327.685 81.2845
L328.131 81.2845
L328.577 56.7325
L329.024 81.2845
L329.917 91.9981
L331.256 91.9981
L331.702 97.3549
L333.934 97.3549
L334.381 91.9981
L334.827 97.3549
L335.273 97.3549
L335.72 72.8029
L337.059 72.8029
L337.505 48.2509
L337.952 97.3549
L338.398 91.9981
L339.291 91.9981
L339.737 116.55
L340.184 91.9981
L340.63 121.907
L341.523 121.907
L341.969 116.55
L342.416 116.55
L342.862 135.745
L343.309 135.745
L344.648 151.816
L345.094 146.459
L347.326 146.459
L347.773 195.563
L348.219 195.563
L348.665 244.667
L349.112 220.115
L349.558 225.472
L350.005 225.472
L350.451 220.115
L350.897 225.472
L351.344 250.024
L351.79 244.667
L353.129 244.667
L353.576 274.576
L354.469 285.289
L354.915 304.485
L355.361 304.485
L355.808 274.576
L356.254 269.219
L356.701 274.576
L357.147 263.862
L357.593 263.862
L358.04 269.219
L358.486 279.933
L358.933 304.485
L359.379 274.576
L359.825 279.933
L360.272 304.485
L361.165 304.485
L361.611 279.933
L362.504 279.933
L362.95 250.024
L363.397 274.576
L363.843 250.024
L364.289 244.667
L364.736 255.381
L365.182 230.829
L365.629 225.472
L366.075 225.472
L366.521 220.115
L366.968 206.277
L367.414 200.92
L368.307 200.92
L368.753 206.277
L369.2 206.277
L369.646 200.92
L370.093 225.472
L370.539 220.115
L371.432 220.115
L371.878 225.472
L372.325 225.472
L372.771 260.737
L373.217 250.024
L373.664 255.381
L374.557 255.381
L375.003 260.737
L375.449 255.381
L375.896 260.737
L376.789 260.737
L377.235 279.933
L377.681 279.933
L378.574 290.646
L379.021 279.933
L379.467 290.646
L379.913 285.289
L380.36 296.003
L380.806 285.289
L382.145 285.289
L382.592 296.003
L383.038 285.289
L383.931 285.289
L384.377 279.933
L384.824 285.289
L386.163 285.289
L386.609 279.933
L387.056 309.841
L387.502 315.198
L387.949 309.841
L388.395 309.841
L388.841 315.198
L389.288 290.646
L389.734 309.841
L391.073 309.841
L391.52 315.198
L391.966 309.841
L392.413 309.841
L392.859 285.289
L393.752 285.289
L394.198 312.073
L394.645 306.717
L395.091 312.073
L395.537 306.717
L395.984 317.43
L396.43 301.36
L398.216 301.36
L398.662 276.808
L399.109 276.808
L399.555 252.256
L400.001 301.36
L400.448 301.36
L400.894 325.912
L401.341 320.555
L401.787 325.912
L402.233 315.198
L402.68 325.912
L403.126 331.269
L403.573 325.912
L404.912 341.982
L405.358 336.625
L405.805 336.625
L406.251 341.982
L406.697 336.625
L407.59 347.339
L408.037 347.339
L408.483 377.248
L408.929 347.339
L410.269 347.339
L410.715 341.982
L411.161 352.696
L411.608 333.501
L412.054 322.787
L412.501 303.592
L412.947 352.696
L413.393 322.787
L414.286 333.501
L414.733 328.144
L415.179 328.144
L415.625 352.696
L416.072 333.501
L416.518 352.696
L416.965 352.696
L417.411 347.339
L417.857 371.891
L418.304 352.696
L419.197 341.982
L419.643 347.339
L420.536 347.339
L420.982 352.696
L422.321 352.696
L422.768 358.053
L423.214 352.696
L424.107 363.409
L425 352.696
L425.446 352.696
L425.893 358.053
L426.785 358.053
L427.232 352.696
L427.678 377.248
L428.571 322.787
L429.017 331.269
L429.464 352.696
L429.91 358.053
L430.357 352.696
L431.249 352.696
L431.696 347.339
L432.142 347.339
L432.589 341.982
L433.035 347.339
L433.481 341.982
L433.928 347.339
L434.374 358.053
L434.821 352.696
L435.267 352.696
L435.713 377.248
L437.499 377.248
L437.945 382.605
L438.392 407.157
L438.838 382.605
L439.731 382.605
L440.177 377.248
L440.624 396.443
L441.07 377.248
L441.517 377.248
L441.963 371.891
L442.409 377.248
L443.302 377.248
L443.749 366.534
L444.195 377.248
L444.641 377.248
L445.088 333.501
L445.534 352.696
L445.981 328.144
L446.427 358.053
L446.873 352.696
L447.32 328.144
L447.766 352.696
L448.213 347.339
L448.659 352.696
L449.105 347.339
L449.552 352.696
L449.998 352.696
L450.445 358.053
L450.891 358.053
L451.337 352.696
L453.123 352.696
L454.016 363.409
L454.909 352.696
L455.355 352.696
L455.801 377.248
L456.248 347.339
L456.694 352.696
L457.141 352.696
L457.587 347.339
L458.033 347.339
L458.48 352.696
L458.926 347.339
L459.819 347.339
L460.265 352.696
L460.712 352.696
L461.158 358.053
L461.605 333.501
L462.051 358.053
L462.497 352.696
L463.39 363.409
L463.837 358.053
L464.729 358.053
L465.176 363.409
L465.622 358.053
L466.069 363.409
L466.515 363.409
L466.961 358.053
L467.408 363.409
L467.854 363.409
L468.301 358.053
L469.64 358.053
L470.086 363.409
L470.533 363.409
L470.979 352.696
L471.425 358.053
L472.318 358.053
L472.765 352.696
L473.211 358.053
L473.657 352.696
L474.104 382.605
L474.55 358.053
L475.889 358.053
L476.336 368.766
L476.782 358.053
L477.229 358.053
L477.675 352.696
L478.568 363.409
L479.014 358.053
L479.907 358.053
L480.353 374.123
L480.8 363.409
L481.246 387.961
L482.139 387.961
L482.585 382.605
L483.032 387.961
L483.925 377.248
L484.371 382.605
L484.817 382.605
L485.264 377.248
L485.71 382.605
L486.603 382.605
L487.049 377.248
L487.496 382.605
L487.942 382.605
L488.389 387.961
L490.174 387.961
L490.621 382.605
L491.067 393.318
L491.513 393.318
L491.96 398.675
L492.406 387.961
L493.745 387.961
L494.192 382.605
L494.638 387.961
L495.085 382.605
L496.424 382.605
L496.87 387.961
L497.317 398.675
L497.763 387.961
L498.209 393.318
L498.656 393.318
L499.102 382.605
L499.549 387.961
L499.995 387.961
L500.441 404.032
L500.888 387.961
L501.334 387.961
L501.781 393.318
L502.227 387.961
L502.673 377.248
L503.12 387.961
L503.566 382.605
L504.013 387.961
L504.905 387.961
L505.352 382.605
L505.798 371.891
L506.245 382.605
L506.691 382.605
L507.137 377.248
L507.584 382.605
L508.03 358.053
L508.477 347.339
L509.816 363.409
L510.262 333.501
L511.155 333.501
L511.601 338.857
L512.048 333.501
L512.494 333.501
L512.941 328.144
L513.387 317.43
L513.833 328.144
L514.28 333.501
L514.726 352.696
L515.173 363.409
L516.065 363.409
L516.512 374.123
L516.958 368.766
L517.405 368.766
L517.851 363.409
L518.744 363.409
L519.19 368.766
L520.083 368.766
L520.529 363.409
L520.976 363.409
L521.422 352.696
L521.869 363.409
L522.315 363.409
L522.761 358.053
L523.208 363.409
L523.654 363.409
L524.101 358.053
L524.547 338.857
L526.333 338.857
L526.779 349.571
L527.225 322.787
L527.672 338.857
L529.457 338.857
L529.904 344.214
L530.35 338.857
L530.797 338.857
L531.243 387.961
L531.689 358.053
L532.136 363.409
L532.582 333.501
L533.475 344.214
L533.921 333.501
L534.368 344.214
L534.814 344.214
L535.261 338.857
L537.493 338.857
L537.939 344.214
L538.385 333.501
L538.832 354.928
L539.278 338.857
L539.725 338.857
L540.617 328.144
L541.064 344.214
L541.51 314.305
L542.403 314.305
L542.849 319.662
L543.296 303.592
L543.742 308.949
L544.189 303.592
L544.635 328.144
L545.081 322.787
L545.528 344.214
L545.974 333.501
L546.421 338.857
L546.867 333.501
L547.313 338.857
L547.76 333.501
L548.206 333.501
L548.653 344.214
L549.099 338.857
L549.545 349.571
L549.992 333.501
L550.438 328.144
L550.885 328.144
L551.331 333.501
L551.777 333.501
L552.224 328.144
L553.117 338.857
L553.563 333.501
L554.009 333.501
L554.456 338.857
L554.902 328.144
L555.349 344.214
L556.241 344.214
L556.688 360.285
L557.134 349.571
L557.581 349.571
L558.027 344.214
L558.473 349.571
L559.366 338.857
L559.813 338.857
L560.259 349.571
L560.705 354.928
L561.152 344.214
L562.491 344.214
L563.384 368.766
L563.83 368.766
L564.277 363.409
L564.723 368.766
L565.169 363.409
L565.616 374.123
L567.401 374.123
L567.848 363.409
L568.294 358.053
L568.741 358.053
L569.187 393.318
L569.633 382.605
L570.08 393.318
L570.973 393.318
L571.865 382.605
L572.312 387.961
L572.758 382.605
L573.205 398.675
L573.651 382.605
L574.097 393.318
L574.99 382.605
L575.437 382.605
L576.329 393.318
L576.776 393.318
L577.222 382.605
L577.669 398.675
L578.115 393.318
L578.561 393.318
L579.008 382.605
L579.454 387.961
L580.793 387.961
L581.24 393.318
L582.133 382.605
L582.579 393.318
L583.472 382.605
L583.918 393.318
L584.365 387.961
L584.811 387.961
L585.257 393.318
L587.043 393.318
L587.489 387.961
L589.721 387.961
L590.168 382.605
L591.061 382.605
L591.507 387.961
L591.953 398.675
L592.4 404.032
L593.293 393.318
L594.632 393.318
L595.078 387.961
L595.525 387.961
L595.971 393.318
L596.417 387.961
L596.864 393.318
L597.31 393.318
L597.757 387.961
L598.203 387.961
L598.649 382.605
L599.096 393.318
L599.542 382.605
L599.989 382.605
L600.435 387.961
L600.881 382.605
L601.328 382.605
L602.667 398.675
L603.113 387.961
L603.56 398.675
L604.006 387.961
L604.453 382.605
L604.899 387.961
L605.792 387.961
L606.238 363.409
L606.685 382.605
L607.131 387.961
L607.577 398.675
L608.024 387.961
L608.47 404.032
L608.917 393.318
L609.363 387.961
L609.809 393.318
L610.702 382.605
L611.149 387.961
L611.595 387.961
L612.041 382.605
L612.934 393.318
L613.381 387.961
L613.827 393.318
L614.273 393.318
L614.72 398.675
L615.166 363.409
L617.398 363.409
L617.845 368.766
L618.291 363.409
L619.184 363.409
L619.63 368.766
L620.077 358.053
L620.523 363.409
L620.969 352.696
L621.416 363.409
L622.309 363.409
L622.755 393.318
L623.201 387.961
L623.648 387.961
L624.094 382.605
L624.541 387.961
L624.987 387.961
L625.433 393.318
L625.88 387.961
L626.773 387.961
L627.219 393.318
L627.665 382.605
L628.558 393.318
L629.005 387.961
L629.451 387.961
L629.897 393.318
L630.344 393.318
L630.79 387.961
L631.683 387.961
L632.129 358.053
L632.576 393.318
L633.022 363.409
L633.915 363.409
L634.361 368.766
L634.808 368.766
L635.254 352.696
L636.147 363.409
L636.593 358.053
L637.04 368.766
L638.379 368.766
L638.825 363.409
L640.165 363.409
L640.611 368.766
L641.057 363.409
L641.504 363.409
L641.95 338.857
L642.397 333.501
L642.843 358.053
L643.289 363.409
L643.736 358.053
L644.182 368.766
L644.629 352.696
L645.075 363.409
L645.521 358.053
L645.968 363.409
L646.414 358.053
L646.861 368.766
L647.307 363.409
L647.753 352.696
L648.2 363.409
L648.646 368.766
L649.093 363.409
L649.985 363.409
L650.432 358.053
L650.878 368.766
L651.325 363.409
L651.771 363.409
L652.217 358.053
L652.664 363.409
L654.896 363.409
L655.342 368.766
L655.789 368.766
L656.235 363.409
L656.681 363.409
L657.128 368.766
L657.574 358.053
L658.021 363.409
L658.467 363.409
L658.913 358.053
L659.36 368.766
L659.806 352.696
L660.253 358.053
L660.699 368.766
L661.145 368.766
L661.592 363.409
L662.038 363.409
L662.485 358.053
L662.931 363.409
L663.377 358.053
L663.824 363.409
L665.163 363.409
L665.609 358.053
L666.056 358.053
L666.502 363.409
L666.949 358.053
L667.395 374.123
L667.841 368.766
L668.288 358.053
L668.734 358.053
L669.627 368.766
L670.073 368.766
L670.52 363.409
L670.966 368.766
L671.859 358.053
L672.305 363.409
L672.752 358.053
L673.198 363.409
L673.645 363.409
L674.091 368.766
L674.537 363.409
L674.984 368.766
L675.43 363.409
L676.769 363.409
L677.216 358.053
L677.662 363.409
L678.109 363.409
L678.555 387.961
L679.001 393.318
L679.448 393.318
L679.894 387.961
L681.68 387.961
L682.573 398.675
L683.465 387.961
L683.912 393.318
L684.805 382.605
L685.251 387.961
L687.037 387.961
L687.483 393.318
L687.929 387.961
L688.376 387.961
L688.822 382.605
L689.269 382.605
L689.715 387.961
L691.054 387.961
L691.501 393.318
L691.947 387.961
L692.84 387.961
L693.286 393.318
L695.072 393.318
L695.518 387.961
L695.965 387.961
L696.857 377.248
L697.304 387.961
L697.75 382.605
L698.643 382.605
L699.089 377.248
L699.536 377.248
L699.982 366.534
L700.429 371.891
L700.875 366.534
L701.321 355.821
L701.768 366.534
L701.768 366.534" style="fill:none;stroke:#4c72b0;stroke-linecap:round;stroke-width:2;"/>
   </g>
   <g id="patch_3">
    <path d="
M59.3981 21.3181
L728.998 21.3181" style="fill:none;stroke:#cccccc;stroke-linecap:square;stroke-linejoin:miter;"/>
   </g>
   <g id="patch_4">
    <path d="
M728.998 467.718
L728.998 21.3181" style="fill:none;stroke:#cccccc;stroke-linecap:square;stroke-linejoin:miter;"/>
   </g>
   <g id="patch_5">
    <path d="
M59.3981 467.718
L728.998 467.718" style="fill:none;stroke:#cccccc;stroke-linecap:square;stroke-linejoin:miter;"/>
   </g>
   <g id="patch_6">
    <path d="
M59.3981 467.718
L59.3981 21.3181" style="fill:none;stroke:#cccccc;stroke-linecap:square;stroke-linejoin:miter;"/>
   </g>
   <g id="text_16">
    <!-- Difference of consumption between Leaf default 28598.4 Wh and Leaf default 19065.6 Wh -->
    <defs>
     <path d="
M10.9844 1.51562
L10.9844 10.5
Q14.7031 8.73438 18.5 7.8125
Q22.3125 6.89062 25.9844 6.89062
Q35.75 6.89062 40.8906 13.4531
Q46.0469 20.0156 46.7812 33.4062
Q43.9531 29.2031 39.5938 26.9531
Q35.25 24.7031 29.9844 24.7031
Q19.0469 24.7031 12.6719 31.3125
Q6.29688 37.9375 6.29688 49.4219
Q6.29688 60.6406 12.9375 67.4219
Q19.5781 74.2188 30.6094 74.2188
Q43.2656 74.2188 49.9219 64.5156
Q56.5938 54.8281 56.5938 36.375
Q56.5938 19.1406 48.4062 8.85938
Q40.2344 -1.42188 26.4219 -1.42188
Q22.7031 -1.42188 18.8906 -0.6875
Q15.0938 0.046875 10.9844 1.51562
M30.6094 32.4219
Q37.25 32.4219 41.125 36.9531
Q45.0156 41.5 45.0156 49.4219
Q45.0156 57.2812 41.125 61.8438
Q37.25 66.4062 30.6094 66.4062
Q23.9688 66.4062 20.0938 61.8438
Q16.2188 57.2812 16.2188 49.4219
Q16.2188 41.5 20.0938 36.9531
Q23.9688 32.4219 30.6094 32.4219" id="BitstreamVeraSans-Roman-39"/>
     <path d="
M19.6719 64.7969
L19.6719 8.10938
L31.5938 8.10938
Q46.6875 8.10938 53.6875 14.9375
Q60.6875 21.7812 60.6875 36.5312
Q60.6875 51.1719 53.6875 57.9844
Q46.6875 64.7969 31.5938 64.7969
z

M9.8125 72.9062
L30.0781 72.9062
Q51.2656 72.9062 61.1719 64.0938
Q71.0938 55.2812 71.0938 36.5312
Q71.0938 17.6719 61.125 8.82812
Q51.1719 0 30.0781 0
L9.8125 0
z
" id="BitstreamVeraSans-Roman-44"/>
     <path d="
M9.8125 72.9062
L19.6719 72.9062
L19.6719 8.29688
L55.1719 8.29688
L55.1719 0
L9.8125 0
z
" id="BitstreamVeraSans-Roman-4c"/>
     <path d="
M9.42188 75.9844
L18.4062 75.9844
L18.4062 0
L9.42188 0
z
" id="BitstreamVeraSans-Roman-6c"/>
     <path d="
M48.6875 27.2969
Q48.6875 37.2031 44.6094 42.8438
Q40.5312 48.4844 33.4062 48.4844
Q26.2656 48.4844 22.1875 42.8438
Q18.1094 37.2031 18.1094 27.2969
Q18.1094 17.3906 22.1875 11.75
Q26.2656 6.10938 33.4062 6.10938
Q40.5312 6.10938 44.6094 11.75
Q48.6875 17.3906 48.6875 27.2969
M18.1094 46.3906
Q20.9531 51.2656 25.2656 53.625
Q29.5938 56 35.5938 56
Q45.5625 56 51.7812 48.0938
Q58.0156 40.1875 58.0156 27.2969
Q58.0156 14.4062 51.7812 6.48438
Q45.5625 -1.42188 35.5938 -1.42188
Q29.5938 -1.42188 25.2656 0.953125
Q20.9531 3.32812 18.1094 8.20312
L18.1094 0
L9.07812 0
L9.07812 75.9844
L18.1094 75.9844
z
" id="BitstreamVeraSans-Roman-62"/>
    </defs>
    <g style="fill:#262626;" transform="translate(122.184375 16.318125)scale(0.12 -0.12)">
     <use xlink:href="#BitstreamVeraSans-Roman-44"/>
     <use x="77.001953125" xlink:href="#BitstreamVeraSans-Roman-69"/>
     <use x="104.78515625" xlink:href="#BitstreamVeraSans-Roman-66"/>
     <use x="139.990234375" xlink:href="#BitstreamVeraSans-Roman-66"/>
     <use x="175.1953125" xlink:href="#BitstreamVeraSans-Roman-65"/>
     <use x="236.71875" xlink:href="#BitstreamVeraSans-Roman-72"/>
     <use x="275.58203125" xlink:href="#BitstreamVeraSans-Roman-65"/>
     <use x="337.10546875" xlink:href="#BitstreamVeraSans-Roman-6e"/>
     <use x="400.484375" xlink:href="#BitstreamVeraSans-Roman-63"/>
     <use x="455.46484375" xlink:href="#BitstreamVeraSans-Roman-65"/>
     <use x="516.98828125" xlink:href="#BitstreamVeraSans-Roman-20"/>
     <use x="548.775390625" xlink:href="#BitstreamVeraSans-Roman-6f"/>
     <use x="609.95703125" xlink:href="#BitstreamVeraSans-Roman-66"/>
     <use x="645.162109375" xlink:href="#BitstreamVeraSans-Roman-20"/>
     <use x="676.94921875" xlink:href="#BitstreamVeraSans-Roman-63"/>
     <use x="731.9296875" xlink:href="#BitstreamVeraSans-Roman-6f"/>
     <use x="793.111328125" xlink:href="#BitstreamVeraSans-Roman-6e"/>
     <use x="856.490234375" xlink:href="#BitstreamVeraSans-Roman-73"/>
     <use x="908.58984375" xlink:href="#BitstreamVeraSans-Roman-75"/>
     <use x="971.96875" xlink:href="#BitstreamVeraSans-Roman-6d"/>
     <use x="1069.38085938" xlink:href="#BitstreamVeraSans-Roman-70"/>
     <use x="1132.85742188" xlink:href="#BitstreamVeraSans-Roman-74"/>
     <use x="1172.06640625" xlink:href="#BitstreamVeraSans-Roman-69"/>
     <use x="1199.84960938" xlink:href="#BitstreamVeraSans-Roman-6f"/>
     <use x="1261.03125" xlink:href="#BitstreamVeraSans-Roman-6e"/>
     <use x="1324.41015625" xlink:href="#BitstreamVeraSans-Roman-20"/>
     <use x="1356.19726562" xlink:href="#BitstreamVeraSans-Roman-62"/>
     <use x="1419.67382812" xlink:href="#BitstreamVeraSans-Roman-65"/>
     <use x="1481.19726562" xlink:href="#BitstreamVeraSans-Roman-74"/>
     <use x="1520.40625" xlink:href="#BitstreamVeraSans-Roman-77"/>
     <use x="1602.19335938" xlink:href="#BitstreamVeraSans-Roman-65"/>
     <use x="1663.71679688" xlink:href="#BitstreamVeraSans-Roman-65"/>
     <use x="1725.24023438" xlink:href="#BitstreamVeraSans-Roman-6e"/>
     <use x="1788.61914062" xlink:href="#BitstreamVeraSans-Roman-20"/>
     <use x="1820.40625" xlink:href="#BitstreamVeraSans-Roman-4c"/>
     <use x="1874.36914062" xlink:href="#BitstreamVeraSans-Roman-65"/>
     <use x="1935.89257812" xlink:href="#BitstreamVeraSans-Roman-61"/>
     <use x="1997.171875" xlink:href="#BitstreamVeraSans-Roman-66"/>
     <use x="2032.37695312" xlink:href="#BitstreamVeraSans-Roman-20"/>
     <use x="2064.1640625" xlink:href="#BitstreamVeraSans-Roman-64"/>
     <use x="2127.640625" xlink:href="#BitstreamVeraSans-Roman-65"/>
     <use x="2189.1640625" xlink:href="#BitstreamVeraSans-Roman-66"/>
     <use x="2224.36914062" xlink:href="#BitstreamVeraSans-Roman-61"/>
     <use x="2285.6484375" xlink:href="#BitstreamVeraSans-Roman-75"/>
     <use x="2349.02734375" xlink:href="#BitstreamVeraSans-Roman-6c"/>
     <use x="2376.81054688" xlink:href="#BitstreamVeraSans-Roman-74"/>
     <use x="2416.01953125" xlink:href="#BitstreamVeraSans-Roman-20"/>
     <use x="2447.80664062" xlink:href="#BitstreamVeraSans-Roman-32"/>
     <use x="2511.4296875" xlink:href="#BitstreamVeraSans-Roman-38"/>
     <use x="2575.05273438" xlink:href="#BitstreamVeraSans-Roman-35"/>
     <use x="2638.67578125" xlink:href="#BitstreamVeraSans-Roman-39"/>
     <use x="2702.29882812" xlink:href="#BitstreamVeraSans-Roman-38"/>
     <use x="2765.921875" xlink:href="#BitstreamVeraSans-Roman-2e"/>
     <use x="2797.70898438" xlink:href="#BitstreamVeraSans-Roman-34"/>
     <use x="2861.33203125" xlink:href="#BitstreamVeraSans-Roman-20"/>
     <use x="2893.11914062" xlink:href="#BitstreamVeraSans-Roman-57"/>
     <use x="2991.99609375" xlink:href="#BitstreamVeraSans-Roman-68"/>
     <use x="3055.375" xlink:href="#BitstreamVeraSans-Roman-20"/>
     <use x="3087.16210938" xlink:href="#BitstreamVeraSans-Roman-61"/>
     <use x="3148.44140625" xlink:href="#BitstreamVeraSans-Roman-6e"/>
     <use x="3211.8203125" xlink:href="#BitstreamVeraSans-Roman-64"/>
     <use x="3275.296875" xlink:href="#BitstreamVeraSans-Roman-20"/>
     <use x="3307.08398438" xlink:href="#BitstreamVeraSans-Roman-4c"/>
     <use x="3361.046875" xlink:href="#BitstreamVeraSans-Roman-65"/>
     <use x="3422.5703125" xlink:href="#BitstreamVeraSans-Roman-61"/>
     <use x="3483.84960938" xlink:href="#BitstreamVeraSans-Roman-66"/>
     <use x="3519.0546875" xlink:href="#BitstreamVeraSans-Roman-20"/>
     <use x="3550.84179688" xlink:href="#BitstreamVeraSans-Roman-64"/>
     <use x="3614.31835938" xlink:href="#BitstreamVeraSans-Roman-65"/>
     <use x="3675.84179688" xlink:href="#BitstreamVeraSans-Roman-66"/>
     <use x="3711.046875" xlink:href="#BitstreamVeraSans-Roman-61"/>
     <use x="3772.32617188" xlink:href="#BitstreamVeraSans-Roman-75"/>
     <use x="3835.70507812" xlink:href="#BitstreamVeraSans-Roman-6c"/>
     <use x="3863.48828125" xlink:href="#BitstreamVeraSans-Roman-74"/>
     <use x="3902.69726562" xlink:href="#BitstreamVeraSans-Roman-20"/>
     <use x="3934.484375" xlink:href="#BitstreamVeraSans-Roman-31"/>
     <use x="3998.10742188" xlink:href="#BitstreamVeraSans-Roman-39"/>
     <use x="4061.73046875" xlink:href="#BitstreamVeraSans-Roman-30"/>
     <use x="4125.35351562" xlink:href="#BitstreamVeraSans-Roman-36"/>
     <use x="4188.9765625" xlink:href="#BitstreamVeraSans-Roman-35"/>
     <use x="4252.59960938" xlink:href="#BitstreamVeraSans-Roman-2e"/>
     <use x="4284.38671875" xlink:href="#BitstreamVeraSans-Roman-36"/>
     <use x="4348.00976562" xlink:href="#BitstreamVeraSans-Roman-20"/>
     <use x="4379.796875" xlink:href="#BitstreamVeraSans-Roman-57"/>
     <use x="4478.67382812" xlink:href="#BitstreamVeraSans-Roman-68"/>
    </g>
   </g>
  </g>
 </g>
 <defs>
  <clipPath id="pf97e01e5ff">
   <rect height="446.4" width="669.6" x="59.398125" y="21.318125"/>
  </clipPath>
 </defs>
</svg>
