<?xml version="1.0" encoding="utf-8" standalone="no"?>
<!DOCTYPE svg PUBLIC "-//W3C//DTD SVG 1.1//EN"
  "http://www.w3.org/Graphics/SVG/1.1/DTD/svg11.dtd">
<!-- Created with matplotlib (http://matplotlib.org/) -->
<svg height="508pt" version="1.1" viewBox="0 0 734 508" width="734pt" xmlns="http://www.w3.org/2000/svg" xmlns:xlink="http://www.w3.org/1999/xlink">
 <defs>
  <style type="text/css">
*{stroke-linecap:butt;stroke-linejoin:round;}
  </style>
 </defs>
 <g id="figure_1">
  <g id="patch_1">
   <path d="
M-7.10543e-15 508.21
L734.218 508.21
L734.218 0
L-7.10543e-15 0
L-7.10543e-15 508.21" style="fill:none;"/>
  </g>
  <g id="axes_1">
   <g id="patch_2">
    <path d="
M51.8591 467.718
L721.459 467.718
L721.459 21.3181
L51.8591 21.3181
z
" style="fill:#ffffff;"/>
   </g>
   <g id="matplotlib.axis_1">
    <g id="xtick_1">
     <g id="line2d_1">
      <path clip-path="url(#p77e959d7d9)" d="
M51.8591 467.718
L51.8591 21.3181" style="fill:none;stroke:#cccccc;stroke-linecap:round;"/>
     </g>
     <g id="line2d_2">
      <defs>
       <path d="
M0 0
L0 0" id="m219da94a98" style="stroke:#262626;"/>
      </defs>
      <g>
       <use style="fill:#262626;stroke:#262626;" x="51.8590625" xlink:href="#m219da94a98" y="467.718125"/>
      </g>
     </g>
     <g id="line2d_3">
      <g>
       <use style="fill:#262626;stroke:#262626;" x="51.8590625" xlink:href="#m219da94a98" y="21.318125"/>
      </g>
     </g>
     <g id="text_1">
      <!-- 0 -->
      <defs>
       <path d="
M31.7812 66.4062
Q24.1719 66.4062 20.3281 58.9062
Q16.5 51.4219 16.5 36.375
Q16.5 21.3906 20.3281 13.8906
Q24.1719 6.39062 31.7812 6.39062
Q39.4531 6.39062 43.2812 13.8906
Q47.125 21.3906 47.125 36.375
Q47.125 51.4219 43.2812 58.9062
Q39.4531 66.4062 31.7812 66.4062
M31.7812 74.2188
Q44.0469 74.2188 50.5156 64.5156
Q56.9844 54.8281 56.9844 36.375
Q56.9844 17.9688 50.5156 8.26562
Q44.0469 -1.42188 31.7812 -1.42188
Q19.5312 -1.42188 13.0625 8.26562
Q6.59375 17.9688 6.59375 36.375
Q6.59375 54.8281 13.0625 64.5156
Q19.5312 74.2188 31.7812 74.2188" id="BitstreamVeraSans-Roman-30"/>
      </defs>
      <g style="fill:#262626;" transform="translate(49.33953125 482.3165625)scale(0.1 -0.1)">
       <use xlink:href="#BitstreamVeraSans-Roman-30"/>
      </g>
     </g>
    </g>
    <g id="xtick_2">
     <g id="line2d_4">
      <path clip-path="url(#p77e959d7d9)" d="
M185.779 467.718
L185.779 21.3181" style="fill:none;stroke:#cccccc;stroke-linecap:round;"/>
     </g>
     <g id="line2d_5">
      <g>
       <use style="fill:#262626;stroke:#262626;" x="185.7790625" xlink:href="#m219da94a98" y="467.718125"/>
      </g>
     </g>
     <g id="line2d_6">
      <g>
       <use style="fill:#262626;stroke:#262626;" x="185.7790625" xlink:href="#m219da94a98" y="21.318125"/>
      </g>
     </g>
     <g id="text_2">
      <!-- 5 -->
      <defs>
       <path d="
M10.7969 72.9062
L49.5156 72.9062
L49.5156 64.5938
L19.8281 64.5938
L19.8281 46.7344
Q21.9688 47.4688 24.1094 47.8281
Q26.2656 48.1875 28.4219 48.1875
Q40.625 48.1875 47.75 41.5
Q54.8906 34.8125 54.8906 23.3906
Q54.8906 11.625 47.5625 5.09375
Q40.2344 -1.42188 26.9062 -1.42188
Q22.3125 -1.42188 17.5469 -0.640625
Q12.7969 0.140625 7.71875 1.70312
L7.71875 11.625
Q12.1094 9.23438 16.7969 8.0625
Q21.4844 6.89062 26.7031 6.89062
Q35.1562 6.89062 40.0781 11.3281
Q45.0156 15.7656 45.0156 23.3906
Q45.0156 31 40.0781 35.4375
Q35.1562 39.8906 26.7031 39.8906
Q22.75 39.8906 18.8125 39.0156
Q14.8906 38.1406 10.7969 36.2812
z
" id="BitstreamVeraSans-Roman-35"/>
      </defs>
      <g style="fill:#262626;" transform="translate(183.42046875 482.3165625)scale(0.1 -0.1)">
       <use xlink:href="#BitstreamVeraSans-Roman-35"/>
      </g>
     </g>
    </g>
    <g id="xtick_3">
     <g id="line2d_7">
      <path clip-path="url(#p77e959d7d9)" d="
M319.699 467.718
L319.699 21.3181" style="fill:none;stroke:#cccccc;stroke-linecap:round;"/>
     </g>
     <g id="line2d_8">
      <g>
       <use style="fill:#262626;stroke:#262626;" x="319.6990625" xlink:href="#m219da94a98" y="467.718125"/>
      </g>
     </g>
     <g id="line2d_9">
      <g>
       <use style="fill:#262626;stroke:#262626;" x="319.6990625" xlink:href="#m219da94a98" y="21.318125"/>
      </g>
     </g>
     <g id="text_3">
      <!-- 10 -->
      <defs>
       <path d="
M12.4062 8.29688
L28.5156 8.29688
L28.5156 63.9219
L10.9844 60.4062
L10.9844 69.3906
L28.4219 72.9062
L38.2812 72.9062
L38.2812 8.29688
L54.3906 8.29688
L54.3906 0
L12.4062 0
z
" id="BitstreamVeraSans-Roman-31"/>
      </defs>
      <g style="fill:#262626;" transform="translate(314.2178125 482.3165625)scale(0.1 -0.1)">
       <use xlink:href="#BitstreamVeraSans-Roman-31"/>
       <use x="63.623046875" xlink:href="#BitstreamVeraSans-Roman-30"/>
      </g>
     </g>
    </g>
    <g id="xtick_4">
     <g id="line2d_10">
      <path clip-path="url(#p77e959d7d9)" d="
M453.619 467.718
L453.619 21.3181" style="fill:none;stroke:#cccccc;stroke-linecap:round;"/>
     </g>
     <g id="line2d_11">
      <g>
       <use style="fill:#262626;stroke:#262626;" x="453.6190625" xlink:href="#m219da94a98" y="467.718125"/>
      </g>
     </g>
     <g id="line2d_12">
      <g>
       <use style="fill:#262626;stroke:#262626;" x="453.6190625" xlink:href="#m219da94a98" y="21.318125"/>
      </g>
     </g>
     <g id="text_4">
      <!-- 15 -->
      <g style="fill:#262626;" transform="translate(448.2425 482.3165625)scale(0.1 -0.1)">
       <use xlink:href="#BitstreamVeraSans-Roman-31"/>
       <use x="63.623046875" xlink:href="#BitstreamVeraSans-Roman-35"/>
      </g>
     </g>
    </g>
    <g id="xtick_5">
     <g id="line2d_13">
      <path clip-path="url(#p77e959d7d9)" d="
M587.539 467.718
L587.539 21.3181" style="fill:none;stroke:#cccccc;stroke-linecap:round;"/>
     </g>
     <g id="line2d_14">
      <g>
       <use style="fill:#262626;stroke:#262626;" x="587.5390625" xlink:href="#m219da94a98" y="467.718125"/>
      </g>
     </g>
     <g id="line2d_15">
      <g>
       <use style="fill:#262626;stroke:#262626;" x="587.5390625" xlink:href="#m219da94a98" y="21.318125"/>
      </g>
     </g>
     <g id="text_5">
      <!-- 20 -->
      <defs>
       <path d="
M19.1875 8.29688
L53.6094 8.29688
L53.6094 0
L7.32812 0
L7.32812 8.29688
Q12.9375 14.1094 22.625 23.8906
Q32.3281 33.6875 34.8125 36.5312
Q39.5469 41.8438 41.4219 45.5312
Q43.3125 49.2188 43.3125 52.7812
Q43.3125 58.5938 39.2344 62.25
Q35.1562 65.9219 28.6094 65.9219
Q23.9688 65.9219 18.8125 64.3125
Q13.6719 62.7031 7.8125 59.4219
L7.8125 69.3906
Q13.7656 71.7812 18.9375 73
Q24.125 74.2188 28.4219 74.2188
Q39.75 74.2188 46.4844 68.5469
Q53.2188 62.8906 53.2188 53.4219
Q53.2188 48.9219 51.5312 44.8906
Q49.8594 40.875 45.4062 35.4062
Q44.1875 33.9844 37.6406 27.2188
Q31.1094 20.4531 19.1875 8.29688" id="BitstreamVeraSans-Roman-32"/>
      </defs>
      <g style="fill:#262626;" transform="translate(581.875 482.3165625)scale(0.1 -0.1)">
       <use xlink:href="#BitstreamVeraSans-Roman-32"/>
       <use x="63.623046875" xlink:href="#BitstreamVeraSans-Roman-30"/>
      </g>
     </g>
    </g>
    <g id="xtick_6">
     <g id="line2d_16">
      <path clip-path="url(#p77e959d7d9)" d="
M721.459 467.718
L721.459 21.3181" style="fill:none;stroke:#cccccc;stroke-linecap:round;"/>
     </g>
     <g id="line2d_17">
      <g>
       <use style="fill:#262626;stroke:#262626;" x="721.4590625" xlink:href="#m219da94a98" y="467.718125"/>
      </g>
     </g>
     <g id="line2d_18">
      <g>
       <use style="fill:#262626;stroke:#262626;" x="721.4590625" xlink:href="#m219da94a98" y="21.318125"/>
      </g>
     </g>
     <g id="text_6">
      <!-- 25 -->
      <g style="fill:#262626;" transform="translate(715.8996875 482.3165625)scale(0.1 -0.1)">
       <use xlink:href="#BitstreamVeraSans-Roman-32"/>
       <use x="63.623046875" xlink:href="#BitstreamVeraSans-Roman-35"/>
      </g>
     </g>
    </g>
    <g id="text_7">
     <!-- Time of the day (hours) -->
     <defs>
      <path id="BitstreamVeraSans-Roman-20"/>
      <path d="
M8.5 21.5781
L8.5 54.6875
L17.4844 54.6875
L17.4844 21.9219
Q17.4844 14.1562 20.5 10.2656
Q23.5312 6.39062 29.5938 6.39062
Q36.8594 6.39062 41.0781 11.0312
Q45.3125 15.6719 45.3125 23.6875
L45.3125 54.6875
L54.2969 54.6875
L54.2969 0
L45.3125 0
L45.3125 8.40625
Q42.0469 3.42188 37.7188 1
Q33.4062 -1.42188 27.6875 -1.42188
Q18.2656 -1.42188 13.375 4.4375
Q8.5 10.2969 8.5 21.5781" id="BitstreamVeraSans-Roman-75"/>
      <path d="
M41.1094 46.2969
Q39.5938 47.1719 37.8125 47.5781
Q36.0312 48 33.8906 48
Q26.2656 48 22.1875 43.0469
Q18.1094 38.0938 18.1094 28.8125
L18.1094 0
L9.07812 0
L9.07812 54.6875
L18.1094 54.6875
L18.1094 46.1875
Q20.9531 51.1719 25.4844 53.5781
Q30.0312 56 36.5312 56
Q37.4531 56 38.5781 55.875
Q39.7031 55.7656 41.0625 55.5156
z
" id="BitstreamVeraSans-Roman-72"/>
      <path d="
M52 44.1875
Q55.375 50.25 60.0625 53.125
Q64.75 56 71.0938 56
Q79.6406 56 84.2812 50.0156
Q88.9219 44.0469 88.9219 33.0156
L88.9219 0
L79.8906 0
L79.8906 32.7188
Q79.8906 40.5781 77.0938 44.375
Q74.3125 48.1875 68.6094 48.1875
Q61.625 48.1875 57.5625 43.5469
Q53.5156 38.9219 53.5156 30.9062
L53.5156 0
L44.4844 0
L44.4844 32.7188
Q44.4844 40.625 41.7031 44.4062
Q38.9219 48.1875 33.1094 48.1875
Q26.2188 48.1875 22.1562 43.5312
Q18.1094 38.875 18.1094 30.9062
L18.1094 0
L9.07812 0
L9.07812 54.6875
L18.1094 54.6875
L18.1094 46.1875
Q21.1875 51.2188 25.4844 53.6094
Q29.7812 56 35.6875 56
Q41.6562 56 45.8281 52.9688
Q50 49.9531 52 44.1875" id="BitstreamVeraSans-Roman-6d"/>
      <path d="
M30.6094 48.3906
Q23.3906 48.3906 19.1875 42.75
Q14.9844 37.1094 14.9844 27.2969
Q14.9844 17.4844 19.1562 11.8438
Q23.3438 6.20312 30.6094 6.20312
Q37.7969 6.20312 41.9844 11.8594
Q46.1875 17.5312 46.1875 27.2969
Q46.1875 37.0156 41.9844 42.7031
Q37.7969 48.3906 30.6094 48.3906
M30.6094 56
Q42.3281 56 49.0156 48.375
Q55.7188 40.7656 55.7188 27.2969
Q55.7188 13.875 49.0156 6.21875
Q42.3281 -1.42188 30.6094 -1.42188
Q18.8438 -1.42188 12.1719 6.21875
Q5.51562 13.875 5.51562 27.2969
Q5.51562 40.7656 12.1719 48.375
Q18.8438 56 30.6094 56" id="BitstreamVeraSans-Roman-6f"/>
      <path d="
M31 75.875
Q24.4688 64.6562 21.2812 53.6562
Q18.1094 42.6719 18.1094 31.3906
Q18.1094 20.125 21.3125 9.0625
Q24.5156 -2 31 -13.1875
L23.1875 -13.1875
Q15.875 -1.70312 12.2344 9.375
Q8.59375 20.4531 8.59375 31.3906
Q8.59375 42.2812 12.2031 53.3125
Q15.8281 64.3594 23.1875 75.875
z
" id="BitstreamVeraSans-Roman-28"/>
      <path d="
M8.01562 75.875
L15.8281 75.875
Q23.1406 64.3594 26.7812 53.3125
Q30.4219 42.2812 30.4219 31.3906
Q30.4219 20.4531 26.7812 9.375
Q23.1406 -1.70312 15.8281 -13.1875
L8.01562 -13.1875
Q14.5 -2 17.7031 9.0625
Q20.9062 20.125 20.9062 31.3906
Q20.9062 42.6719 17.7031 53.6562
Q14.5 64.6562 8.01562 75.875" id="BitstreamVeraSans-Roman-29"/>
      <path d="
M32.1719 -5.07812
Q28.375 -14.8438 24.75 -17.8125
Q21.1406 -20.7969 15.0938 -20.7969
L7.90625 -20.7969
L7.90625 -13.2812
L13.1875 -13.2812
Q16.8906 -13.2812 18.9375 -11.5156
Q21 -9.76562 23.4844 -3.21875
L25.0938 0.875
L2.98438 54.6875
L12.5 54.6875
L29.5938 11.9219
L46.6875 54.6875
L56.2031 54.6875
z
" id="BitstreamVeraSans-Roman-79"/>
      <path d="
M9.42188 54.6875
L18.4062 54.6875
L18.4062 0
L9.42188 0
z

M9.42188 75.9844
L18.4062 75.9844
L18.4062 64.5938
L9.42188 64.5938
z
" id="BitstreamVeraSans-Roman-69"/>
      <path d="
M54.8906 33.0156
L54.8906 0
L45.9062 0
L45.9062 32.7188
Q45.9062 40.4844 42.875 44.3281
Q39.8438 48.1875 33.7969 48.1875
Q26.5156 48.1875 22.3125 43.5469
Q18.1094 38.9219 18.1094 30.9062
L18.1094 0
L9.07812 0
L9.07812 75.9844
L18.1094 75.9844
L18.1094 46.1875
Q21.3438 51.125 25.7031 53.5625
Q30.0781 56 35.7969 56
Q45.2188 56 50.0469 50.1719
Q54.8906 44.3438 54.8906 33.0156" id="BitstreamVeraSans-Roman-68"/>
      <path d="
M45.4062 46.3906
L45.4062 75.9844
L54.3906 75.9844
L54.3906 0
L45.4062 0
L45.4062 8.20312
Q42.5781 3.32812 38.25 0.953125
Q33.9375 -1.42188 27.875 -1.42188
Q17.9688 -1.42188 11.7344 6.48438
Q5.51562 14.4062 5.51562 27.2969
Q5.51562 40.1875 11.7344 48.0938
Q17.9688 56 27.875 56
Q33.9375 56 38.25 53.625
Q42.5781 51.2656 45.4062 46.3906
M14.7969 27.2969
Q14.7969 17.3906 18.875 11.75
Q22.9531 6.10938 30.0781 6.10938
Q37.2031 6.10938 41.2969 11.75
Q45.4062 17.3906 45.4062 27.2969
Q45.4062 37.2031 41.2969 42.8438
Q37.2031 48.4844 30.0781 48.4844
Q22.9531 48.4844 18.875 42.8438
Q14.7969 37.2031 14.7969 27.2969" id="BitstreamVeraSans-Roman-64"/>
      <path d="
M56.2031 29.5938
L56.2031 25.2031
L14.8906 25.2031
Q15.4844 15.9219 20.4844 11.0625
Q25.4844 6.20312 34.4219 6.20312
Q39.5938 6.20312 44.4531 7.46875
Q49.3125 8.73438 54.1094 11.2812
L54.1094 2.78125
Q49.2656 0.734375 44.1875 -0.34375
Q39.1094 -1.42188 33.8906 -1.42188
Q20.7969 -1.42188 13.1562 6.1875
Q5.51562 13.8125 5.51562 26.8125
Q5.51562 40.2344 12.7656 48.1094
Q20.0156 56 32.3281 56
Q43.3594 56 49.7812 48.8906
Q56.2031 41.7969 56.2031 29.5938
M47.2188 32.2344
Q47.125 39.5938 43.0938 43.9844
Q39.0625 48.3906 32.4219 48.3906
Q24.9062 48.3906 20.3906 44.1406
Q15.875 39.8906 15.1875 32.1719
z
" id="BitstreamVeraSans-Roman-65"/>
      <path d="
M-0.296875 72.9062
L61.375 72.9062
L61.375 64.5938
L35.5 64.5938
L35.5 0
L25.5938 0
L25.5938 64.5938
L-0.296875 64.5938
z
" id="BitstreamVeraSans-Roman-54"/>
      <path d="
M18.3125 70.2188
L18.3125 54.6875
L36.8125 54.6875
L36.8125 47.7031
L18.3125 47.7031
L18.3125 18.0156
Q18.3125 11.3281 20.1406 9.42188
Q21.9688 7.51562 27.5938 7.51562
L36.8125 7.51562
L36.8125 0
L27.5938 0
Q17.1875 0 13.2344 3.875
Q9.28125 7.76562 9.28125 18.0156
L9.28125 47.7031
L2.6875 47.7031
L2.6875 54.6875
L9.28125 54.6875
L9.28125 70.2188
z
" id="BitstreamVeraSans-Roman-74"/>
      <path d="
M37.1094 75.9844
L37.1094 68.5
L28.5156 68.5
Q23.6875 68.5 21.7969 66.5469
Q19.9219 64.5938 19.9219 59.5156
L19.9219 54.6875
L34.7188 54.6875
L34.7188 47.7031
L19.9219 47.7031
L19.9219 0
L10.8906 0
L10.8906 47.7031
L2.29688 47.7031
L2.29688 54.6875
L10.8906 54.6875
L10.8906 58.5
Q10.8906 67.625 15.1406 71.7969
Q19.3906 75.9844 28.6094 75.9844
z
" id="BitstreamVeraSans-Roman-66"/>
      <path d="
M34.2812 27.4844
Q23.3906 27.4844 19.1875 25
Q14.9844 22.5156 14.9844 16.5
Q14.9844 11.7188 18.1406 8.90625
Q21.2969 6.10938 26.7031 6.10938
Q34.1875 6.10938 38.7031 11.4062
Q43.2188 16.7031 43.2188 25.4844
L43.2188 27.4844
z

M52.2031 31.2031
L52.2031 0
L43.2188 0
L43.2188 8.29688
Q40.1406 3.32812 35.5469 0.953125
Q30.9531 -1.42188 24.3125 -1.42188
Q15.9219 -1.42188 10.9531 3.29688
Q6 8.01562 6 15.9219
Q6 25.1406 12.1719 29.8281
Q18.3594 34.5156 30.6094 34.5156
L43.2188 34.5156
L43.2188 35.4062
Q43.2188 41.6094 39.1406 45
Q35.0625 48.3906 27.6875 48.3906
Q23 48.3906 18.5469 47.2656
Q14.1094 46.1406 10.0156 43.8906
L10.0156 52.2031
Q14.9375 54.1094 19.5781 55.0469
Q24.2188 56 28.6094 56
Q40.4844 56 46.3438 49.8438
Q52.2031 43.7031 52.2031 31.2031" id="BitstreamVeraSans-Roman-61"/>
      <path d="
M44.2812 53.0781
L44.2812 44.5781
Q40.4844 46.5312 36.375 47.5
Q32.2812 48.4844 27.875 48.4844
Q21.1875 48.4844 17.8438 46.4375
Q14.5 44.3906 14.5 40.2812
Q14.5 37.1562 16.8906 35.375
Q19.2812 33.5938 26.5156 31.9844
L29.5938 31.2969
Q39.1562 29.25 43.1875 25.5156
Q47.2188 21.7812 47.2188 15.0938
Q47.2188 7.46875 41.1875 3.01562
Q35.1562 -1.42188 24.6094 -1.42188
Q20.2188 -1.42188 15.4531 -0.5625
Q10.6875 0.296875 5.42188 2
L5.42188 11.2812
Q10.4062 8.6875 15.2344 7.39062
Q20.0625 6.10938 24.8125 6.10938
Q31.1562 6.10938 34.5625 8.28125
Q37.9844 10.4531 37.9844 14.4062
Q37.9844 18.0625 35.5156 20.0156
Q33.0625 21.9688 24.7031 23.7812
L21.5781 24.5156
Q13.2344 26.2656 9.51562 29.9062
Q5.8125 33.5469 5.8125 39.8906
Q5.8125 47.6094 11.2812 51.7969
Q16.75 56 26.8125 56
Q31.7812 56 36.1719 55.2656
Q40.5781 54.5469 44.2812 53.0781" id="BitstreamVeraSans-Roman-73"/>
     </defs>
     <g style="fill:#262626;" transform="translate(316.6315625 498.514375)scale(0.12 -0.12)">
      <use xlink:href="#BitstreamVeraSans-Roman-54"/>
      <use x="57.958984375" xlink:href="#BitstreamVeraSans-Roman-69"/>
      <use x="85.7421875" xlink:href="#BitstreamVeraSans-Roman-6d"/>
      <use x="183.154296875" xlink:href="#BitstreamVeraSans-Roman-65"/>
      <use x="244.677734375" xlink:href="#BitstreamVeraSans-Roman-20"/>
      <use x="276.46484375" xlink:href="#BitstreamVeraSans-Roman-6f"/>
      <use x="337.646484375" xlink:href="#BitstreamVeraSans-Roman-66"/>
      <use x="372.8515625" xlink:href="#BitstreamVeraSans-Roman-20"/>
      <use x="404.638671875" xlink:href="#BitstreamVeraSans-Roman-74"/>
      <use x="443.84765625" xlink:href="#BitstreamVeraSans-Roman-68"/>
      <use x="507.2265625" xlink:href="#BitstreamVeraSans-Roman-65"/>
      <use x="568.75" xlink:href="#BitstreamVeraSans-Roman-20"/>
      <use x="600.537109375" xlink:href="#BitstreamVeraSans-Roman-64"/>
      <use x="664.013671875" xlink:href="#BitstreamVeraSans-Roman-61"/>
      <use x="725.29296875" xlink:href="#BitstreamVeraSans-Roman-79"/>
      <use x="784.47265625" xlink:href="#BitstreamVeraSans-Roman-20"/>
      <use x="816.259765625" xlink:href="#BitstreamVeraSans-Roman-28"/>
      <use x="855.2734375" xlink:href="#BitstreamVeraSans-Roman-68"/>
      <use x="918.65234375" xlink:href="#BitstreamVeraSans-Roman-6f"/>
      <use x="979.833984375" xlink:href="#BitstreamVeraSans-Roman-75"/>
      <use x="1043.21289062" xlink:href="#BitstreamVeraSans-Roman-72"/>
      <use x="1084.32617188" xlink:href="#BitstreamVeraSans-Roman-73"/>
      <use x="1136.42578125" xlink:href="#BitstreamVeraSans-Roman-29"/>
     </g>
    </g>
   </g>
   <g id="matplotlib.axis_2">
    <g id="ytick_1">
     <g id="line2d_19">
      <path clip-path="url(#p77e959d7d9)" d="
M51.8591 467.718
L721.459 467.718" style="fill:none;stroke:#cccccc;stroke-linecap:round;"/>
     </g>
     <g id="line2d_20">
      <g>
       <use style="fill:#262626;stroke:#262626;" x="51.8590625" xlink:href="#m219da94a98" y="467.718125"/>
      </g>
     </g>
     <g id="line2d_21">
      <g>
       <use style="fill:#262626;stroke:#262626;" x="721.4590625" xlink:href="#m219da94a98" y="467.718125"/>
      </g>
     </g>
     <g id="text_8">
      <!-- 0.74 -->
      <defs>
       <path d="
M10.6875 12.4062
L21 12.4062
L21 0
L10.6875 0
z
" id="BitstreamVeraSans-Roman-2e"/>
       <path d="
M8.20312 72.9062
L55.0781 72.9062
L55.0781 68.7031
L28.6094 0
L18.3125 0
L43.2188 64.5938
L8.20312 64.5938
z
" id="BitstreamVeraSans-Roman-37"/>
       <path d="
M37.7969 64.3125
L12.8906 25.3906
L37.7969 25.3906
z

M35.2031 72.9062
L47.6094 72.9062
L47.6094 25.3906
L58.0156 25.3906
L58.0156 17.1875
L47.6094 17.1875
L47.6094 0
L37.7969 0
L37.7969 17.1875
L4.89062 17.1875
L4.89062 26.7031
z
" id="BitstreamVeraSans-Roman-34"/>
      </defs>
      <g style="fill:#262626;" transform="translate(23.81375 470.4775)scale(0.1 -0.1)">
       <use xlink:href="#BitstreamVeraSans-Roman-30"/>
       <use x="63.623046875" xlink:href="#BitstreamVeraSans-Roman-2e"/>
       <use x="95.41015625" xlink:href="#BitstreamVeraSans-Roman-37"/>
       <use x="159.033203125" xlink:href="#BitstreamVeraSans-Roman-34"/>
      </g>
     </g>
    </g>
    <g id="ytick_2">
     <g id="line2d_22">
      <path clip-path="url(#p77e959d7d9)" d="
M51.8591 418.118
L721.459 418.118" style="fill:none;stroke:#cccccc;stroke-linecap:round;"/>
     </g>
     <g id="line2d_23">
      <g>
       <use style="fill:#262626;stroke:#262626;" x="51.8590625" xlink:href="#m219da94a98" y="418.118125"/>
      </g>
     </g>
     <g id="line2d_24">
      <g>
       <use style="fill:#262626;stroke:#262626;" x="721.4590625" xlink:href="#m219da94a98" y="418.118125"/>
      </g>
     </g>
     <g id="text_9">
      <!-- 0.76 -->
      <defs>
       <path d="
M33.0156 40.375
Q26.375 40.375 22.4844 35.8281
Q18.6094 31.2969 18.6094 23.3906
Q18.6094 15.5312 22.4844 10.9531
Q26.375 6.39062 33.0156 6.39062
Q39.6562 6.39062 43.5312 10.9531
Q47.4062 15.5312 47.4062 23.3906
Q47.4062 31.2969 43.5312 35.8281
Q39.6562 40.375 33.0156 40.375
M52.5938 71.2969
L52.5938 62.3125
Q48.875 64.0625 45.0938 64.9844
Q41.3125 65.9219 37.5938 65.9219
Q27.8281 65.9219 22.6719 59.3281
Q17.5312 52.7344 16.7969 39.4062
Q19.6719 43.6562 24.0156 45.9219
Q28.375 48.1875 33.5938 48.1875
Q44.5781 48.1875 50.9531 41.5156
Q57.3281 34.8594 57.3281 23.3906
Q57.3281 12.1562 50.6875 5.35938
Q44.0469 -1.42188 33.0156 -1.42188
Q20.3594 -1.42188 13.6719 8.26562
Q6.98438 17.9688 6.98438 36.375
Q6.98438 53.6562 15.1875 63.9375
Q23.3906 74.2188 37.2031 74.2188
Q40.9219 74.2188 44.7031 73.4844
Q48.4844 72.75 52.5938 71.2969" id="BitstreamVeraSans-Roman-36"/>
      </defs>
      <g style="fill:#262626;" transform="translate(23.8825 420.8775)scale(0.1 -0.1)">
       <use xlink:href="#BitstreamVeraSans-Roman-30"/>
       <use x="63.623046875" xlink:href="#BitstreamVeraSans-Roman-2e"/>
       <use x="95.41015625" xlink:href="#BitstreamVeraSans-Roman-37"/>
       <use x="159.033203125" xlink:href="#BitstreamVeraSans-Roman-36"/>
      </g>
     </g>
    </g>
    <g id="ytick_3">
     <g id="line2d_25">
      <path clip-path="url(#p77e959d7d9)" d="
M51.8591 368.518
L721.459 368.518" style="fill:none;stroke:#cccccc;stroke-linecap:round;"/>
     </g>
     <g id="line2d_26">
      <g>
       <use style="fill:#262626;stroke:#262626;" x="51.8590625" xlink:href="#m219da94a98" y="368.518125"/>
      </g>
     </g>
     <g id="line2d_27">
      <g>
       <use style="fill:#262626;stroke:#262626;" x="721.4590625" xlink:href="#m219da94a98" y="368.518125"/>
      </g>
     </g>
     <g id="text_10">
      <!-- 0.78 -->
      <defs>
       <path d="
M31.7812 34.625
Q24.75 34.625 20.7188 30.8594
Q16.7031 27.0938 16.7031 20.5156
Q16.7031 13.9219 20.7188 10.1562
Q24.75 6.39062 31.7812 6.39062
Q38.8125 6.39062 42.8594 10.1719
Q46.9219 13.9688 46.9219 20.5156
Q46.9219 27.0938 42.8906 30.8594
Q38.875 34.625 31.7812 34.625
M21.9219 38.8125
Q15.5781 40.375 12.0312 44.7188
Q8.5 49.0781 8.5 55.3281
Q8.5 64.0625 14.7188 69.1406
Q20.9531 74.2188 31.7812 74.2188
Q42.6719 74.2188 48.875 69.1406
Q55.0781 64.0625 55.0781 55.3281
Q55.0781 49.0781 51.5312 44.7188
Q48 40.375 41.7031 38.8125
Q48.8281 37.1562 52.7969 32.3125
Q56.7812 27.4844 56.7812 20.5156
Q56.7812 9.90625 50.3125 4.23438
Q43.8438 -1.42188 31.7812 -1.42188
Q19.7344 -1.42188 13.25 4.23438
Q6.78125 9.90625 6.78125 20.5156
Q6.78125 27.4844 10.7812 32.3125
Q14.7969 37.1562 21.9219 38.8125
M18.3125 54.3906
Q18.3125 48.7344 21.8438 45.5625
Q25.3906 42.3906 31.7812 42.3906
Q38.1406 42.3906 41.7188 45.5625
Q45.3125 48.7344 45.3125 54.3906
Q45.3125 60.0625 41.7188 63.2344
Q38.1406 66.4062 31.7812 66.4062
Q25.3906 66.4062 21.8438 63.2344
Q18.3125 60.0625 18.3125 54.3906" id="BitstreamVeraSans-Roman-38"/>
      </defs>
      <g style="fill:#262626;" transform="translate(23.9371875 371.2775)scale(0.1 -0.1)">
       <use xlink:href="#BitstreamVeraSans-Roman-30"/>
       <use x="63.623046875" xlink:href="#BitstreamVeraSans-Roman-2e"/>
       <use x="95.41015625" xlink:href="#BitstreamVeraSans-Roman-37"/>
       <use x="159.033203125" xlink:href="#BitstreamVeraSans-Roman-38"/>
      </g>
     </g>
    </g>
    <g id="ytick_4">
     <g id="line2d_28">
      <path clip-path="url(#p77e959d7d9)" d="
M51.8591 318.918
L721.459 318.918" style="fill:none;stroke:#cccccc;stroke-linecap:round;"/>
     </g>
     <g id="line2d_29">
      <g>
       <use style="fill:#262626;stroke:#262626;" x="51.8590625" xlink:href="#m219da94a98" y="318.918125"/>
      </g>
     </g>
     <g id="line2d_30">
      <g>
       <use style="fill:#262626;stroke:#262626;" x="721.4590625" xlink:href="#m219da94a98" y="318.918125"/>
      </g>
     </g>
     <g id="text_11">
      <!-- 0.80 -->
      <g style="fill:#262626;" transform="translate(23.916875 321.6775)scale(0.1 -0.1)">
       <use xlink:href="#BitstreamVeraSans-Roman-30"/>
       <use x="63.623046875" xlink:href="#BitstreamVeraSans-Roman-2e"/>
       <use x="95.41015625" xlink:href="#BitstreamVeraSans-Roman-38"/>
       <use x="159.033203125" xlink:href="#BitstreamVeraSans-Roman-30"/>
      </g>
     </g>
    </g>
    <g id="ytick_5">
     <g id="line2d_31">
      <path clip-path="url(#p77e959d7d9)" d="
M51.8591 269.318
L721.459 269.318" style="fill:none;stroke:#cccccc;stroke-linecap:round;"/>
     </g>
     <g id="line2d_32">
      <g>
       <use style="fill:#262626;stroke:#262626;" x="51.8590625" xlink:href="#m219da94a98" y="269.318125"/>
      </g>
     </g>
     <g id="line2d_33">
      <g>
       <use style="fill:#262626;stroke:#262626;" x="721.4590625" xlink:href="#m219da94a98" y="269.318125"/>
      </g>
     </g>
     <g id="text_12">
      <!-- 0.82 -->
      <g style="fill:#262626;" transform="translate(24.254375 272.0775)scale(0.1 -0.1)">
       <use xlink:href="#BitstreamVeraSans-Roman-30"/>
       <use x="63.623046875" xlink:href="#BitstreamVeraSans-Roman-2e"/>
       <use x="95.41015625" xlink:href="#BitstreamVeraSans-Roman-38"/>
       <use x="159.033203125" xlink:href="#BitstreamVeraSans-Roman-32"/>
      </g>
     </g>
    </g>
    <g id="ytick_6">
     <g id="line2d_34">
      <path clip-path="url(#p77e959d7d9)" d="
M51.8591 219.718
L721.459 219.718" style="fill:none;stroke:#cccccc;stroke-linecap:round;"/>
     </g>
     <g id="line2d_35">
      <g>
       <use style="fill:#262626;stroke:#262626;" x="51.8590625" xlink:href="#m219da94a98" y="219.718125"/>
      </g>
     </g>
     <g id="line2d_36">
      <g>
       <use style="fill:#262626;stroke:#262626;" x="721.4590625" xlink:href="#m219da94a98" y="219.718125"/>
      </g>
     </g>
     <g id="text_13">
      <!-- 0.84 -->
      <g style="fill:#262626;" transform="translate(23.81375 222.4775)scale(0.1 -0.1)">
       <use xlink:href="#BitstreamVeraSans-Roman-30"/>
       <use x="63.623046875" xlink:href="#BitstreamVeraSans-Roman-2e"/>
       <use x="95.41015625" xlink:href="#BitstreamVeraSans-Roman-38"/>
       <use x="159.033203125" xlink:href="#BitstreamVeraSans-Roman-34"/>
      </g>
     </g>
    </g>
    <g id="ytick_7">
     <g id="line2d_37">
      <path clip-path="url(#p77e959d7d9)" d="
M51.8591 170.118
L721.459 170.118" style="fill:none;stroke:#cccccc;stroke-linecap:round;"/>
     </g>
     <g id="line2d_38">
      <g>
       <use style="fill:#262626;stroke:#262626;" x="51.8590625" xlink:href="#m219da94a98" y="170.118125"/>
      </g>
     </g>
     <g id="line2d_39">
      <g>
       <use style="fill:#262626;stroke:#262626;" x="721.4590625" xlink:href="#m219da94a98" y="170.118125"/>
      </g>
     </g>
     <g id="text_14">
      <!-- 0.86 -->
      <g style="fill:#262626;" transform="translate(23.8825 172.8775)scale(0.1 -0.1)">
       <use xlink:href="#BitstreamVeraSans-Roman-30"/>
       <use x="63.623046875" xlink:href="#BitstreamVeraSans-Roman-2e"/>
       <use x="95.41015625" xlink:href="#BitstreamVeraSans-Roman-38"/>
       <use x="159.033203125" xlink:href="#BitstreamVeraSans-Roman-36"/>
      </g>
     </g>
    </g>
    <g id="ytick_8">
     <g id="line2d_40">
      <path clip-path="url(#p77e959d7d9)" d="
M51.8591 120.518
L721.459 120.518" style="fill:none;stroke:#cccccc;stroke-linecap:round;"/>
     </g>
     <g id="line2d_41">
      <g>
       <use style="fill:#262626;stroke:#262626;" x="51.8590625" xlink:href="#m219da94a98" y="120.518125"/>
      </g>
     </g>
     <g id="line2d_42">
      <g>
       <use style="fill:#262626;stroke:#262626;" x="721.4590625" xlink:href="#m219da94a98" y="120.518125"/>
      </g>
     </g>
     <g id="text_15">
      <!-- 0.88 -->
      <g style="fill:#262626;" transform="translate(23.9371875 123.2775)scale(0.1 -0.1)">
       <use xlink:href="#BitstreamVeraSans-Roman-30"/>
       <use x="63.623046875" xlink:href="#BitstreamVeraSans-Roman-2e"/>
       <use x="95.41015625" xlink:href="#BitstreamVeraSans-Roman-38"/>
       <use x="159.033203125" xlink:href="#BitstreamVeraSans-Roman-38"/>
      </g>
     </g>
    </g>
    <g id="ytick_9">
     <g id="line2d_43">
      <path clip-path="url(#p77e959d7d9)" d="
M51.8591 70.9181
L721.459 70.9181" style="fill:none;stroke:#cccccc;stroke-linecap:round;"/>
     </g>
     <g id="line2d_44">
      <g>
       <use style="fill:#262626;stroke:#262626;" x="51.8590625" xlink:href="#m219da94a98" y="70.918125"/>
      </g>
     </g>
     <g id="line2d_45">
      <g>
       <use style="fill:#262626;stroke:#262626;" x="721.4590625" xlink:href="#m219da94a98" y="70.918125"/>
      </g>
     </g>
     <g id="text_16">
      <!-- 0.90 -->
      <defs>
       <path d="
M10.9844 1.51562
L10.9844 10.5
Q14.7031 8.73438 18.5 7.8125
Q22.3125 6.89062 25.9844 6.89062
Q35.75 6.89062 40.8906 13.4531
Q46.0469 20.0156 46.7812 33.4062
Q43.9531 29.2031 39.5938 26.9531
Q35.25 24.7031 29.9844 24.7031
Q19.0469 24.7031 12.6719 31.3125
Q6.29688 37.9375 6.29688 49.4219
Q6.29688 60.6406 12.9375 67.4219
Q19.5781 74.2188 30.6094 74.2188
Q43.2656 74.2188 49.9219 64.5156
Q56.5938 54.8281 56.5938 36.375
Q56.5938 19.1406 48.4062 8.85938
Q40.2344 -1.42188 26.4219 -1.42188
Q22.7031 -1.42188 18.8906 -0.6875
Q15.0938 0.046875 10.9844 1.51562
M30.6094 32.4219
Q37.25 32.4219 41.125 36.9531
Q45.0156 41.5 45.0156 49.4219
Q45.0156 57.2812 41.125 61.8438
Q37.25 66.4062 30.6094 66.4062
Q23.9688 66.4062 20.0938 61.8438
Q16.2188 57.2812 16.2188 49.4219
Q16.2188 41.5 20.0938 36.9531
Q23.9688 32.4219 30.6094 32.4219" id="BitstreamVeraSans-Roman-39"/>
      </defs>
      <g style="fill:#262626;" transform="translate(23.916875 73.6775)scale(0.1 -0.1)">
       <use xlink:href="#BitstreamVeraSans-Roman-30"/>
       <use x="63.623046875" xlink:href="#BitstreamVeraSans-Roman-2e"/>
       <use x="95.41015625" xlink:href="#BitstreamVeraSans-Roman-39"/>
       <use x="159.033203125" xlink:href="#BitstreamVeraSans-Roman-30"/>
      </g>
     </g>
    </g>
    <g id="ytick_10">
     <g id="line2d_46">
      <path clip-path="url(#p77e959d7d9)" d="
M51.8591 21.3181
L721.459 21.3181" style="fill:none;stroke:#cccccc;stroke-linecap:round;"/>
     </g>
     <g id="line2d_47">
      <g>
       <use style="fill:#262626;stroke:#262626;" x="51.8590625" xlink:href="#m219da94a98" y="21.318125"/>
      </g>
     </g>
     <g id="line2d_48">
      <g>
       <use style="fill:#262626;stroke:#262626;" x="721.4590625" xlink:href="#m219da94a98" y="21.318125"/>
      </g>
     </g>
     <g id="text_17">
      <!-- 0.92 -->
      <g style="fill:#262626;" transform="translate(24.254375 24.0775)scale(0.1 -0.1)">
       <use xlink:href="#BitstreamVeraSans-Roman-30"/>
       <use x="63.623046875" xlink:href="#BitstreamVeraSans-Roman-2e"/>
       <use x="95.41015625" xlink:href="#BitstreamVeraSans-Roman-39"/>
       <use x="159.033203125" xlink:href="#BitstreamVeraSans-Roman-32"/>
      </g>
     </g>
    </g>
    <g id="text_18">
     <!-- SOC (%) -->
     <defs>
      <path d="
M39.4062 66.2188
Q28.6562 66.2188 22.3281 58.2031
Q16.0156 50.2031 16.0156 36.375
Q16.0156 22.6094 22.3281 14.5938
Q28.6562 6.59375 39.4062 6.59375
Q50.1406 6.59375 56.4219 14.5938
Q62.7031 22.6094 62.7031 36.375
Q62.7031 50.2031 56.4219 58.2031
Q50.1406 66.2188 39.4062 66.2188
M39.4062 74.2188
Q54.7344 74.2188 63.9062 63.9375
Q73.0938 53.6562 73.0938 36.375
Q73.0938 19.1406 63.9062 8.85938
Q54.7344 -1.42188 39.4062 -1.42188
Q24.0312 -1.42188 14.8125 8.82812
Q5.60938 19.0938 5.60938 36.375
Q5.60938 53.6562 14.8125 63.9375
Q24.0312 74.2188 39.4062 74.2188" id="BitstreamVeraSans-Roman-4f"/>
      <path d="
M72.7031 32.0781
Q68.4531 32.0781 66.0312 28.4688
Q63.625 24.8594 63.625 18.4062
Q63.625 12.0625 66.0312 8.42188
Q68.4531 4.78125 72.7031 4.78125
Q76.8594 4.78125 79.2656 8.42188
Q81.6875 12.0625 81.6875 18.4062
Q81.6875 24.8125 79.2656 28.4375
Q76.8594 32.0781 72.7031 32.0781
M72.7031 38.2812
Q80.4219 38.2812 84.9531 32.9062
Q89.5 27.5469 89.5 18.4062
Q89.5 9.28125 84.9375 3.92188
Q80.375 -1.42188 72.7031 -1.42188
Q64.8906 -1.42188 60.3438 3.92188
Q55.8125 9.28125 55.8125 18.4062
Q55.8125 27.5938 60.375 32.9375
Q64.9375 38.2812 72.7031 38.2812
M22.3125 68.0156
Q18.1094 68.0156 15.6875 64.375
Q13.2812 60.75 13.2812 54.3906
Q13.2812 47.9531 15.6719 44.3281
Q18.0625 40.7188 22.3125 40.7188
Q26.5625 40.7188 28.9688 44.3281
Q31.3906 47.9531 31.3906 54.3906
Q31.3906 60.6875 28.9531 64.3438
Q26.5156 68.0156 22.3125 68.0156
M66.4062 74.2188
L74.2188 74.2188
L28.6094 -1.42188
L20.7969 -1.42188
z

M22.3125 74.2188
Q30.0312 74.2188 34.6094 68.875
Q39.2031 63.5312 39.2031 54.3906
Q39.2031 45.1719 34.6406 39.8438
Q30.0781 34.5156 22.3125 34.5156
Q14.5469 34.5156 10.0312 39.8594
Q5.51562 45.2188 5.51562 54.3906
Q5.51562 63.4844 10.0469 68.8438
Q14.5938 74.2188 22.3125 74.2188" id="BitstreamVeraSans-Roman-25"/>
      <path d="
M53.5156 70.5156
L53.5156 60.8906
Q47.9062 63.5781 42.9219 64.8906
Q37.9375 66.2188 33.2969 66.2188
Q25.25 66.2188 20.875 63.0938
Q16.5 59.9688 16.5 54.2031
Q16.5 49.3594 19.4062 46.8906
Q22.3125 44.4375 30.4219 42.9219
L36.375 41.7031
Q47.4062 39.5938 52.6562 34.2969
Q57.9062 29 57.9062 20.125
Q57.9062 9.51562 50.7969 4.04688
Q43.7031 -1.42188 29.9844 -1.42188
Q24.8125 -1.42188 18.9688 -0.25
Q13.1406 0.921875 6.89062 3.21875
L6.89062 13.375
Q12.8906 10.0156 18.6562 8.29688
Q24.4219 6.59375 29.9844 6.59375
Q38.4219 6.59375 43.0156 9.90625
Q47.6094 13.2344 47.6094 19.3906
Q47.6094 24.75 44.3125 27.7812
Q41.0156 30.8125 33.5 32.3281
L27.4844 33.5
Q16.4531 35.6875 11.5156 40.375
Q6.59375 45.0625 6.59375 53.4219
Q6.59375 63.0938 13.4062 68.6562
Q20.2188 74.2188 32.1719 74.2188
Q37.3125 74.2188 42.625 73.2812
Q47.9531 72.3594 53.5156 70.5156" id="BitstreamVeraSans-Roman-53"/>
      <path d="
M64.4062 67.2812
L64.4062 56.8906
Q59.4219 61.5312 53.7812 63.8125
Q48.1406 66.1094 41.7969 66.1094
Q29.2969 66.1094 22.6562 58.4688
Q16.0156 50.8281 16.0156 36.375
Q16.0156 21.9688 22.6562 14.3281
Q29.2969 6.6875 41.7969 6.6875
Q48.1406 6.6875 53.7812 8.98438
Q59.4219 11.2812 64.4062 15.9219
L64.4062 5.60938
Q59.2344 2.09375 53.4375 0.328125
Q47.6562 -1.42188 41.2188 -1.42188
Q24.6562 -1.42188 15.125 8.70312
Q5.60938 18.8438 5.60938 36.375
Q5.60938 53.9531 15.125 64.0781
Q24.6562 74.2188 41.2188 74.2188
Q47.75 74.2188 53.5312 72.4844
Q59.3281 70.75 64.4062 67.2812" id="BitstreamVeraSans-Roman-43"/>
     </defs>
     <g style="fill:#262626;" transform="translate(16.318125 269.0140625)rotate(-90.0)scale(0.12 -0.12)">
      <use xlink:href="#BitstreamVeraSans-Roman-53"/>
      <use x="63.4765625" xlink:href="#BitstreamVeraSans-Roman-4f"/>
      <use x="142.1875" xlink:href="#BitstreamVeraSans-Roman-43"/>
      <use x="212.01171875" xlink:href="#BitstreamVeraSans-Roman-20"/>
      <use x="243.798828125" xlink:href="#BitstreamVeraSans-Roman-28"/>
      <use x="282.8125" xlink:href="#BitstreamVeraSans-Roman-25"/>
      <use x="377.83203125" xlink:href="#BitstreamVeraSans-Roman-29"/>
     </g>
    </g>
   </g>
   <g id="line2d_49">
    <path clip-path="url(#p77e959d7d9)" d="
M51.8591 175.476
L56.7695 167.184
L60.7871 160.825
L67.4831 150.964
L74.1791 141.526
L79.5359 134.492
L85.7855 127.311
L99.1775 112.569
L110.784 100.5
L117.033 94.4041
L125.961 86.0898
L134.889 78.3121
L140.693 73.6193
L146.942 68.8885
L154.085 63.7134
L162.12 58.857
L166.137 56.7009
L170.601 54.6006
L174.173 53.193
L181.315 50.8863
L184.886 49.7111
L186.225 49.2497
L195.153 49.5084
L197.832 49.7917
L199.617 49.9169
L202.296 51.0912
L203.635 51.5691
L205.421 51.9894
L208.992 52.8521
L211.224 53.134
L212.563 53.2348
L213.009 53.0535
L218.813 56.456
L220.152 57.4314
L225.062 62.1034
L225.955 63.0448
L226.401 63.1128
L232.651 71.3227
L233.097 71.549
L234.883 73.7746
L235.776 74.4296
L239.347 77.2048
L239.793 76.974
L242.025 79.014
L243.365 80.065
L245.597 82.3067
L246.043 82.8391
L246.489 83.1304
L248.275 85.6305
L248.721 86.0939
L250.507 88.8773
L250.953 89.3295
L252.739 92.0426
L253.185 92.166
L254.971 95.4434
L255.417 95.8763
L257.203 98.2896
L257.649 98.6209
L258.989 100.362
L259.435 100.975
L259.881 101.262
L261.667 104.169
L262.56 104.984
L263.899 106.575
L264.792 106.996
L266.131 107.633
L266.577 107.167
L268.363 107.815
L269.256 107.709
L270.149 107.687
L270.595 107.503
L272.827 107.452
L273.273 107.181
L274.166 107.173
L275.059 107.345
L275.952 107.155
L277.737 106.896
L279.077 106.592
L279.523 106.541
L279.969 106.063
L281.755 106.483
L282.648 106.476
L283.987 106.679
L284.433 106.539
L286.219 106.964
L286.665 106.694
L288.897 106.642
L291.129 107.453
L292.915 107.87
L293.361 107.612
L295.147 109.125
L296.933 110.058
L297.379 110.337
L297.825 110.44
L300.95 112.173
L301.843 112.885
L302.736 113.137
L304.968 113.992
L306.307 114.597
L306.753 114.533
L308.985 116.116
L310.771 117.578
L311.664 118.016
L312.557 118.609
L313.003 118.947
L313.449 119.052
L317.467 122.539
L319.699 123.636
L320.145 123.584
L321.931 126.208
L322.824 127.254
L324.609 129.516
L326.395 131.514
L326.841 131.77
L328.627 133.425
L329.073 133.674
L332.645 136.82
L333.091 137.215
L333.537 137.404
L335.769 141.581
L338.001 145.317
L339.787 147.837
L340.233 148.228
L342.019 150.401
L342.912 151.324
L346.483 155.374
L346.929 155.523
L350.947 161.964
L352.286 163.836
L353.179 165.136
L353.625 165.484
L356.304 168.663
L359.875 172.484
L360.321 172.56
L362.107 175.168
L363 176.247
L365.678 179.422
L366.571 180.46
L367.017 180.656
L369.249 183.446
L372.374 187.294
L373.267 188.171
L373.713 188.28
L375.499 191.845
L376.392 193.424
L377.731 195.793
L378.624 197.049
L379.963 199.23
L380.409 199.556
L382.195 202.327
L383.088 203.319
L384.427 204.823
L385.32 205.557
L386.659 206.804
L387.105 206.828
L388.891 209.148
L389.337 209.467
L390.677 210.938
L391.123 211.403
L392.016 212.087
L393.355 213.333
L393.801 213.38
L396.926 215.182
L400.051 217.43
L400.497 217.397
L403.176 221.562
L404.961 223.748
L406.747 225.65
L407.193 225.808
L408.979 227.568
L409.872 228.222
L411.211 229.374
L412.104 229.853
L413.443 230.692
L413.889 230.67
L416.121 232.892
L417.461 233.911
L419.246 235.229
L420.139 235.99
L420.585 236.056
L422.371 237.513
L422.817 237.733
L426.835 241.045
L427.281 241.086
L431.299 246.079
L432.192 246.861
L433.531 248.373
L433.977 248.586
L435.763 250.613
L436.656 251.226
L438.441 252.534
L440.227 253.79
L440.673 253.8
L442.905 257.188
L444.691 259.622
L445.137 259.988
L446.923 262.23
L447.369 262.526
L449.155 264.937
L449.601 265.331
L452.28 268.6
L453.619 270.291
L454.065 270.387
L455.851 274.334
L456.744 275.964
L460.315 282.711
L460.761 283.169
L462.547 286.043
L462.993 286.55
L464.779 289.376
L465.672 290.498
L467.011 292.319
L467.457 292.445
L469.243 296.129
L470.136 297.628
L471.921 300.632
L473.707 303.544
L474.153 303.881
L475.939 306.161
L476.385 306.409
L478.171 307.956
L478.617 308.169
L480.403 309.48
L480.849 309.38
L487.099 320.398
L487.545 320.861
L488.885 323.099
L489.331 323.499
L490.67 325.177
L493.795 328.445
L494.241 328.505
L495.581 330.925
L496.473 332.12
L499.152 335.859
L500.491 337.579
L500.937 337.75
L502.277 339.263
L502.723 339.516
L504.062 340.611
L505.848 341.554
L507.187 342.251
L507.633 342.06
L509.419 345.154
L509.865 345.726
L511.651 348.78
L512.097 349.356
L513.883 352.712
L514.329 353.165
L516.115 356.16
L517.008 357.243
L518.347 358.966
L518.793 359.334
L520.579 361.315
L521.025 361.254
L522.811 363.479
L524.15 364.543
L525.489 365.505
L527.275 366.953
L527.721 366.935
L528.614 367.586
L529.507 368.057
L529.953 368.033
L531.739 368.375
L532.632 368.263
L533.971 368.249
L534.417 367.9
L536.649 369.217
L538.435 370.101
L538.881 370.043
L540.667 370.51
L541.113 370.287
L542.899 370.284
L543.792 369.95
L545.131 369.607
L547.363 368.042
L547.809 367.444
L550.488 366.646
L551.827 366.04
L552.273 365.632
L554.059 364.774
L554.505 364.286
L556.291 363.037
L557.184 362.208
L558.969 360.595
L560.755 358.871
L561.201 358.189
L562.541 357.133
L565.219 354.692
L566.558 352.995
L568.79 350.318
L570.129 348.804
L573.254 344.812
L575.486 342.052
L576.825 340.666
L580.843 336.129
L581.736 335.044
L583.521 333.017
L585.753 330.148
L588.432 326.287
L592.003 322.362
L593.342 320.832
L594.235 319.842
L595.128 318.595
L597.806 314.971
L600.931 310.555
L601.824 309.327
L604.502 306.248
L606.734 303.38
L611.198 297.464
L613.877 293.638
L617.001 289.136
L621.019 283.634
L622.358 281.651
L625.483 277.076
L630.84 268.826
L638.875 256.673
L642 252.016
L650.035 241.458
L658.963 229.409
L668.784 214.943
L677.712 203.132
L681.729 197.834
L687.979 189.323
L692.443 182.824
L692.443 182.824" style="fill:none;stroke:#4c72b0;stroke-linecap:round;stroke-width:1.3;"/>
   </g>
   <g id="line2d_50">
    <path clip-path="url(#p77e959d7d9)" d="
M51.8591 234.356
L57.6623 223.155
L61.2335 216.616
L67.0367 206.742
L75.5183 192.695
L79.9823 185.845
L102.302 155.326
L109.891 145.388
L116.587 136.949
L124.622 127.215
L131.318 119.465
L136.675 113.463
L142.478 107.327
L148.728 101.044
L153.192 96.7092
L164.352 87.465
L169.709 83.6113
L173.28 81.3194
L178.637 78.7188
L179.976 78.0394
L185.333 75.4772
L186.225 75.0253
L195.153 74.7554
L197.385 74.8904
L199.617 74.9616
L202.296 76.2399
L203.635 76.7554
L204.974 77.0909
L207.653 77.9205
L208.099 78.085
L208.992 78.1395
L211.224 78.4106
L212.563 78.4942
L213.009 78.2767
L219.705 82.6163
L221.491 84.5095
L221.937 84.8447
L225.955 89.475
L226.401 89.5686
L230.419 96.0494
L230.865 96.5612
L232.651 99.3237
L233.097 99.618
L235.329 102.78
L237.115 104.76
L238.454 105.98
L239.347 106.837
L239.793 106.572
L241.579 108.715
L242.472 109.43
L244.257 111.204
L246.043 113.687
L246.489 114.053
L252.293 124.299
L252.739 125.127
L253.185 125.277
L254.971 129.267
L255.864 130.571
L257.203 132.698
L257.649 133.092
L260.328 137.282
L261.667 139.924
L262.56 140.884
L263.899 142.722
L264.792 143.212
L266.131 143.962
L266.577 143.45
L268.363 144.276
L269.256 144.079
L270.149 143.948
L270.595 143.655
L272.827 143.358
L273.273 142.993
L274.166 142.93
L275.059 143.093
L275.952 142.815
L279.523 141.893
L279.969 141.348
L280.862 141.617
L281.755 141.831
L282.201 141.726
L283.987 141.774
L284.433 141.568
L286.219 141.864
L286.665 141.486
L288.451 141.353
L288.897 141.181
L291.129 141.907
L292.915 142.299
L293.361 141.991
L295.147 143.679
L296.486 144.4
L297.379 144.952
L297.825 145.04
L299.165 145.767
L299.611 146.086
L300.057 146.063
L301.843 147.442
L302.289 147.489
L306.307 149.028
L306.753 148.9
L308.093 149.858
L310.325 151.623
L310.771 151.985
L311.664 152.404
L312.557 152.98
L313.003 153.303
L313.449 153.349
L317.021 156.46
L317.467 156.864
L319.699 157.9
L320.145 157.806
L321.931 160.692
L322.824 161.804
L324.609 164.236
L326.395 166.442
L326.841 166.688
L328.627 168.456
L329.073 168.712
L331.752 171.154
L333.091 172.397
L333.537 172.584
L335.769 177.39
L338.448 182.551
L339.787 184.798
L340.233 185.264
L342.019 187.853
L342.912 188.952
L346.483 193.783
L346.929 193.958
L350.947 201.5
L352.286 203.628
L353.179 205.102
L353.625 205.489
L357.643 211.039
L358.982 212.734
L359.875 213.819
L360.321 213.93
L362.107 216.997
L363 218.253
L365.678 221.892
L366.571 223.064
L367.017 223.261
L371.481 229.545
L372.821 231.225
L373.267 231.686
L373.713 231.799
L375.053 234.929
L376.838 238.783
L378.177 241.182
L379.963 244.53
L380.409 244.92
L382.195 248.227
L382.641 248.715
L383.981 250.563
L384.427 251.136
L385.32 252.021
L386.659 253.518
L387.105 253.557
L388.891 256.272
L389.337 256.636
L390.677 258.286
L391.123 258.81
L391.569 259.111
L393.355 260.942
L393.801 261.009
L398.712 264.546
L400.051 265.756
L400.497 265.735
L402.729 269.978
L404.515 272.907
L405.408 273.944
L406.747 275.628
L407.193 275.836
L408.979 277.956
L409.425 278.239
L411.211 279.904
L412.104 280.384
L413.443 281.278
L413.889 281.247
L416.121 283.798
L417.461 284.958
L418.8 286.024
L420.139 287.35
L420.585 287.434
L422.371 289.067
L422.817 289.304
L426.835 292.879
L427.281 292.921
L431.299 298.82
L431.745 299.196
L435.763 303.955
L436.656 304.679
L437.995 305.937
L438.888 306.567
L440.227 307.629
L440.673 307.625
L442.905 311.47
L444.691 314.272
L445.137 314.69
L446.923 317.216
L447.369 317.535
L449.155 320.297
L449.601 320.746
L451.387 323.335
L452.28 324.447
L453.619 326.356
L454.065 326.456
L455.851 331.024
L456.744 332.912
L460.315 340.81
L460.761 341.343
L462.547 344.67
L462.993 345.257
L464.779 348.569
L465.672 349.911
L467.011 352.059
L467.457 352.222
L469.243 356.542
L470.136 358.32
L471.921 361.923
L473.707 365.47
L474.153 365.916
L475.939 368.743
L476.385 369.068
L478.171 370.936
L478.617 371.214
L480.403 372.896
L480.849 372.838
L487.099 386.676
L487.545 387.268
L488.885 390.072
L489.331 390.606
L490.67 392.773
L493.795 397.012
L494.241 397.152
L495.581 400.247
L496.473 401.843
L498.705 406.025
L500.491 409.112
L500.937 409.41
L502.277 411.466
L502.723 411.851
L504.062 413.395
L505.848 414.845
L507.187 415.868
L507.633 415.715
L509.419 419.697
L509.865 420.445
L511.651 424.395
L512.097 425.158
L513.883 429.431
L514.329 430.048
L516.561 434.595
L518.347 437.69
L518.793 438.204
L520.579 440.818
L521.025 440.807
L522.811 443.692
L523.704 444.64
L525.043 446.169
L525.489 446.477
L527.275 448.443
L527.721 448.482
L528.614 449.358
L529.507 450.052
L529.953 450.097
L531.739 450.786
L532.632 450.789
L533.971 450.991
L534.417 450.675
L536.649 452.712
L538.435 454.137
L538.881 454.16
L540.667 455.056
L541.113 454.876
L542.453 455.16
L542.899 455.185
L543.345 455.014
L545.131 454.808
L547.363 453.34
L547.809 452.711
L550.041 452.308
L551.827 451.637
L552.273 451.226
L554.059 450.512
L554.505 450.014
L556.291 448.854
L557.184 448.052
L558.523 446.958
L559.862 445.571
L560.755 444.708
L561.201 443.982
L562.541 442.969
L564.773 440.956
L565.219 440.537
L566.112 439.286
L568.79 435.889
L570.129 434.311
L572.808 430.712
L575.04 427.596
L576.825 425.704
L580.843 420.817
L581.736 419.624
L583.521 417.404
L585.307 414.992
L588.432 409.968
L592.003 405.673
L593.342 404.002
L594.235 402.939
L595.128 401.561
L597.36 398.211
L600.038 393.99
L602.27 390.669
L604.056 388.281
L605.395 386.422
L607.181 383.624
L612.091 376.035
L619.233 364.186
L623.251 357.704
L642.893 323.089
L646.464 317.408
L648.696 313.902
L656.731 301.222
L663.873 288.88
L669.23 279.36
L673.694 272.18
L680.39 261.73
L683.961 256.061
L691.104 244.285
L692.443 241.97
L692.443 241.97" style="fill:none;stroke:#55a868;stroke-linecap:round;stroke-width:1.3;"/>
   </g>
   <g id="line2d_51">
    <path clip-path="url(#p77e959d7d9)" d="
M51.8591 119.197
L57.2159 111.85
L60.3407 107.938
L65.2511 102.398
L68.3759 98.9983
L75.0719 92.0548
L79.0895 88.1967
L84.4463 83.9197
L94.2671 76.262
L99.1775 72.4596
L112.123 62.9619
L120.158 57.489
L127.747 52.5853
L135.782 47.564
L140.246 44.9702
L148.281 40.6308
L151.853 38.7659
L154.085 37.7471
L164.352 33.6101
L169.709 31.925
L173.28 30.9947
L180.869 29.6729
L186.672 28.5905
L195.6 29.359
L199.171 29.8633
L199.617 29.8871
L202.742 31.1764
L204.974 31.7943
L208.545 32.622
L211.67 32.8693
L212.563 32.9221
L213.009 32.7663
L215.241 33.8112
L217.027 34.7975
L217.92 35.1994
L220.152 36.5029
L225.509 40.6497
L225.955 41.0423
L226.401 41.0838
L230.865 45.6601
L232.651 47.4511
L233.097 47.596
L234.883 49.2229
L235.776 49.6806
L236.669 50.2305
L237.561 50.7778
L239.347 51.9364
L239.793 51.7272
L241.579 53.0772
L242.918 53.6847
L244.704 54.7127
L247.382 56.9281
L249.614 59.2582
L250.953 60.692
L252.739 62.8903
L253.185 62.9568
L254.971 65.4748
L255.864 66.1958
L258.989 69.1328
L259.435 69.6356
L259.881 69.8738
L261.667 72.198
L262.56 72.8091
L263.899 74.0748
L264.792 74.4033
L266.131 74.9417
L266.577 74.5469
L268.363 75.0235
L269.702 74.8068
L270.149 74.7416
L270.595 74.5059
L274.166 73.9561
L275.059 74.098
L276.398 73.8514
L277.737 73.6934
L279.077 73.4965
L279.523 73.466
L279.969 73.0882
L281.755 73.4567
L282.648 73.4726
L285.773 74.0105
L286.219 74.1715
L286.665 73.9806
L289.344 74.1624
L291.129 74.7648
L292.915 75.1065
L293.361 74.885
L296.04 76.4369
L299.165 77.8027
L299.611 78.0909
L300.057 78.156
L301.843 79.4543
L302.736 79.7484
L305.414 80.933
L306.307 81.4623
L306.753 81.5097
L310.771 84.5526
L311.664 85.0088
L313.896 86.4757
L315.235 87.5913
L316.128 88.3244
L317.467 89.4781
L319.699 90.6155
L320.145 90.6298
L322.377 93.3896
L325.502 96.7315
L326.395 97.6312
L326.841 97.8812
L328.627 99.3466
L329.52 99.9297
L332.198 101.826
L333.091 102.455
L333.537 102.587
L335.769 105.845
L338.448 109.323
L339.787 110.869
L340.233 111.19
L342.019 112.978
L342.912 113.734
L346.483 117.107
L346.929 117.218
L352.286 123.93
L353.179 124.954
L353.625 125.214
L358.982 130.31
L359.875 131.064
L360.321 131.139
L362.107 133.375
L363.446 134.76
L364.785 136.086
L366.571 137.839
L367.017 137.994
L371.481 142.658
L372.821 143.901
L373.267 144.245
L373.713 144.333
L375.053 146.514
L376.838 149.13
L378.624 151.316
L379.963 153.07
L380.409 153.325
L382.195 155.589
L383.088 156.377
L384.427 157.555
L385.32 158.115
L386.659 159.091
L387.105 159.079
L388.891 160.943
L389.337 161.208
L391.123 162.82
L392.016 163.387
L393.355 164.421
L393.801 164.448
L396.926 165.901
L400.051 167.686
L400.497 167.64
L403.176 171.043
L404.961 172.822
L406.747 174.404
L407.193 174.541
L408.979 176.083
L409.872 176.625
L411.657 177.708
L413.443 178.629
L413.889 178.592
L416.121 180.346
L417.907 181.406
L418.353 181.603
L420.139 182.877
L420.585 182.924
L422.371 184.025
L423.264 184.459
L426.835 186.701
L427.281 186.714
L430.853 190.414
L431.299 190.883
L432.192 191.536
L433.531 192.778
L433.977 192.951
L435.763 194.569
L436.656 195.086
L438.441 196.261
L440.227 197.339
L440.673 197.357
L443.352 200.819
L444.691 202.364
L445.137 202.69
L446.923 204.617
L447.369 204.875
L449.601 207.233
L452.28 210.016
L453.619 211.45
L454.065 211.527
L455.851 214.662
L456.744 215.926
L460.315 221.245
L460.761 221.586
L462.547 223.806
L462.993 224.184
L464.779 226.378
L465.672 227.249
L467.011 228.656
L467.457 228.72
L469.243 231.564
L470.136 232.693
L472.368 235.57
L473.707 237.274
L474.153 237.526
L475.939 239.263
L476.832 239.733
L478.171 240.561
L479.064 240.942
L480.403 241.622
L480.849 241.488
L487.099 249.804
L487.545 250.127
L488.885 251.801
L489.331 252.07
L490.67 253.259
L493.795 255.515
L494.241 255.504
L495.581 257.32
L496.473 258.185
L498.705 260.463
L500.491 262.137
L500.937 262.229
L502.277 263.306
L502.723 263.447
L504.062 264.189
L505.848 264.759
L507.187 265.201
L507.633 264.998
L509.419 267.32
L509.865 267.726
L511.651 269.977
L512.097 270.378
L513.883 272.841
L514.329 273.139
L516.561 275.637
L518.347 277.301
L519.24 277.926
L520.579 278.979
L521.025 278.878
L522.811 280.523
L523.704 281
L525.043 281.805
L525.936 282.159
L527.275 282.884
L527.721 282.822
L528.614 283.265
L529.507 283.567
L530.4 283.542
L531.739 283.59
L532.632 283.408
L533.971 283.272
L534.417 282.935
L536.649 283.73
L538.435 284.218
L538.881 284.104
L540.667 284.201
L541.113 283.943
L542.899 283.699
L543.792 283.309
L545.131 282.882
L547.363 281.383
L547.809 280.839
L550.934 279.646
L551.827 279.207
L552.273 278.815
L554.059 277.884
L554.952 277.104
L557.184 275.287
L559.416 273.257
L560.755 272.016
L561.201 271.392
L562.541 270.387
L565.219 268.059
L566.558 266.486
L568.79 264.016
L570.129 262.626
L574.147 257.979
L574.593 257.338
L578.611 253.539
L579.95 252.149
L583.521 248.538
L585.753 245.984
L587.985 243.051
L592.003 239.344
L593.342 238.106
L594.235 237.309
L595.574 235.827
L597.36 233.811
L600.931 229.676
L601.824 228.666
L604.056 226.544
L605.841 224.649
L612.091 217.567
L617.448 211.113
L625.037 202.482
L627.269 199.714
L634.857 190.31
L637.536 187.063
L642 181.557
L650.035 173.052
L657.624 164.808
L660.749 161.16
L668.784 151.641
L687.979 131.064
L692.443 125.809
L692.443 125.809" style="fill:none;stroke:#c44e52;stroke-linecap:round;stroke-width:1.3;"/>
   </g>
   <g id="line2d_52">
    <path clip-path="url(#p77e959d7d9)" d="
M51.8591 163.045
L57.2159 155.529
L60.7871 150.858
L67.9295 142.152
L75.0719 133.825
L79.9823 128.523
L86.2319 122.565
L101.856 108.256
L108.552 102.354
L115.694 96.3867
L125.069 89.036
L133.104 83.0492
L138.461 79.2689
L143.817 75.7141
L154.085 69.2727
L161.673 65.3178
L165.691 63.5103
L170.155 61.7569
L173.726 60.5443
L185.779 57.1968
L186.225 57.0464
L195.153 57.1343
L197.832 57.3216
L200.064 57.5642
L202.742 58.4777
L204.974 58.9422
L207.653 59.522
L208.099 59.6413
L209.438 59.7352
L210.777 59.8664
L212.563 59.9555
L213.009 59.7971
L218.813 62.5693
L220.152 63.3639
L225.509 67.5583
L225.955 67.9514
L226.401 67.9977
L232.651 74.6901
L233.097 74.8644
L234.883 76.6605
L235.776 77.1801
L239.347 79.4047
L239.793 79.2004
L242.025 80.8527
L243.365 81.7021
L245.597 83.5365
L246.043 83.9754
L246.489 84.2088
L248.275 86.2538
L248.721 86.6296
L250.507 88.9077
L250.953 89.2741
L252.739 91.4952
L253.185 91.5857
L254.971 94.2693
L255.864 95.0977
L257.203 96.5672
L257.649 96.8297
L258.989 98.2415
L259.435 98.7357
L259.881 98.9592
L261.667 101.307
L262.56 101.94
L263.899 103.216
L264.792 103.53
L266.131 104
L266.577 103.593
L268.363 104.054
L269.256 103.934
L270.149 103.871
L270.595 103.684
L272.827 103.519
L273.273 103.268
L274.166 103.204
L275.059 103.305
L275.952 103.098
L277.737 102.785
L279.077 102.463
L279.523 102.391
L279.969 101.969
L281.755 102.23
L282.648 102.174
L283.987 102.264
L284.433 102.123
L286.219 102.381
L286.665 102.13
L288.897 101.961
L291.129 102.53
L292.915 102.791
L293.361 102.555
L295.147 103.725
L296.933 104.412
L297.379 104.621
L297.825 104.684
L300.95 105.998
L301.843 106.555
L302.736 106.733
L304.968 107.371
L306.307 107.836
L306.753 107.771
L308.985 109.056
L310.771 110.255
L311.664 110.613
L313.896 111.797
L315.235 112.762
L316.128 113.386
L317.467 114.341
L319.699 115.188
L320.145 115.13
L321.931 117.282
L322.824 118.124
L324.609 119.943
L326.395 121.541
L326.841 121.737
L328.627 123.021
L329.073 123.2
L333.091 125.855
L333.537 125.986
L335.769 129.33
L338.448 132.834
L339.787 134.336
L340.233 134.639
L342.465 136.752
L346.483 140.502
L346.929 140.623
L351.84 147.081
L353.179 148.732
L353.625 149.027
L356.304 151.72
L359.875 154.955
L360.321 155.02
L362.107 157.263
L363.446 158.673
L364.785 160.017
L366.571 161.848
L367.017 162.029
L371.035 166.515
L373.267 168.552
L373.713 168.648
L375.499 171.642
L376.392 172.962
L377.731 174.942
L378.624 175.993
L379.963 177.82
L380.409 178.097
L382.195 180.431
L383.088 181.272
L384.427 182.554
L385.766 183.523
L386.659 184.248
L387.105 184.272
L388.891 186.245
L389.337 186.52
L391.123 188.163
L392.016 188.744
L393.355 189.816
L393.801 189.868
L396.926 191.471
L400.051 193.513
L400.497 193.499
L403.176 197.049
L404.961 198.917
L406.747 200.538
L407.193 200.677
L408.979 202.191
L409.872 202.764
L411.657 203.94
L413.443 204.91
L413.889 204.897
L416.121 206.784
L417.907 207.917
L418.353 208.123
L420.139 209.427
L420.585 209.492
L422.371 210.73
L422.817 210.917
L426.835 213.727
L427.281 213.767
L431.299 218.077
L432.192 218.759
L433.531 220.063
L433.977 220.256
L435.763 222.007
L436.656 222.547
L438.441 223.695
L440.227 224.799
L440.673 224.827
L442.905 227.796
L444.691 229.929
L445.137 230.26
L446.923 232.245
L447.369 232.518
L449.601 235.002
L452.726 238.386
L453.619 239.392
L454.065 239.492
L455.851 242.873
L456.744 244.258
L460.315 249.982
L460.761 250.376
L462.547 252.826
L462.993 253.261
L464.779 255.677
L466.118 257.142
L467.011 258.205
L467.457 258.322
L469.243 261.476
L470.136 262.758
L472.368 265.969
L473.707 267.83
L474.153 268.125
L475.939 270.084
L476.832 270.648
L478.617 271.844
L480.403 272.994
L480.849 272.923
L487.099 282.437
L487.545 282.843
L488.885 284.769
L489.331 285.12
L491.117 286.981
L491.563 287.443
L492.009 287.713
L493.795 289.412
L494.241 289.473
L495.581 291.536
L496.473 292.561
L499.152 295.758
L500.491 297.222
L500.937 297.372
L502.277 298.661
L503.169 299.216
L504.062 299.82
L505.848 300.636
L507.187 301.239
L507.633 301.083
L509.419 303.714
L509.865 304.204
L511.651 306.803
L512.097 307.296
L513.883 310.151
L514.329 310.541
L516.561 313.523
L518.347 315.5
L519.24 316.253
L520.579 317.5
L521.025 317.457
L522.811 319.342
L524.15 320.255
L527.275 322.313
L527.721 322.308
L528.614 322.873
L529.507 323.288
L530.4 323.379
L531.739 323.618
L532.632 323.546
L533.971 323.569
L534.417 323.285
L536.649 324.411
L538.435 325.178
L538.881 325.137
L540.667 325.562
L541.113 325.381
L542.899 325.412
L543.792 325.141
L545.131 324.862
L547.363 323.57
L547.809 323.072
L550.488 322.42
L551.827 321.92
L552.273 321.58
L554.059 320.86
L554.505 320.451
L556.291 319.404
L557.184 318.715
L558.969 317.366
L560.755 315.927
L561.201 315.355
L562.987 314.157
L563.88 313.441
L565.219 312.472
L566.558 311.068
L569.237 308.475
L570.129 307.616
L573.254 304.316
L575.486 302.021
L576.825 300.872
L580.843 297.122
L581.736 296.232
L583.521 294.565
L585.753 292.203
L588.432 289.029
L592.003 285.852
L593.342 284.611
L594.235 283.799
L595.574 282.306
L597.806 279.799
L600.931 276.162
L601.824 275.167
L604.502 272.708
L606.734 270.403
L610.305 266.576
L613.877 262.428
L617.001 258.696
L621.019 254.147
L622.358 252.503
L625.483 248.717
L631.286 241.341
L637.089 234.15
L642 228.069
L649.142 220.355
L656.731 211.968
L664.766 202.182
L669.23 196.729
L677.712 187.414
L681.729 183.006
L688.872 174.855
L692.443 170.494
L692.443 170.494" style="fill:none;stroke:#8172b2;stroke-linecap:round;stroke-width:1.3;"/>
   </g>
   <g id="line2d_53">
    <path clip-path="url(#p77e959d7d9)" d="
M51.8591 186.649
L56.7695 176.436
L60.3407 169.455
L66.1439 158.968
L73.2863 146.574
L79.0895 137.255
L86.2319 127.39
L99.1775 110.25
L109.445 97.3145
L114.801 91.0556
L122.39 82.5467
L127.747 76.8339
L133.55 70.9198
L138.014 66.6562
L142.032 63.047
L152.299 54.1556
L153.638 53.1472
L161.227 47.9418
L165.245 45.5018
L168.816 43.6417
L172.833 41.8201
L178.19 40.2794
L179.976 39.7473
L186.225 37.871
L193.368 38.9175
L199.617 40.3638
L202.296 42.1545
L203.635 42.9084
L204.974 43.4584
L207.206 44.463
L208.099 44.9667
L208.992 45.1665
L211.224 45.7975
L212.563 46.0845
L213.009 45.9168
L218.366 50.3027
L220.152 52.0797
L225.062 58.4064
L225.955 59.6669
L226.401 59.7934
L232.651 70.6095
L233.097 70.941
L234.883 73.928
L235.329 74.307
L237.115 76.3815
L238.008 77.2343
L239.347 78.6474
L239.793 78.3952
L242.025 81.1089
L243.365 82.5343
L245.597 85.5374
L246.043 86.2389
L246.489 86.6323
L248.275 89.8493
L248.721 90.4575
L250.507 94.0593
L250.953 94.6608
L252.739 98.2337
L253.185 98.4426
L254.971 102.683
L255.417 103.262
L257.203 106.401
L257.649 106.841
L258.989 109.1
L259.435 109.896
L259.881 110.276
L261.667 113.992
L262.56 115.039
L263.899 117.075
L264.792 117.643
L266.131 118.496
L266.577 117.936
L268.363 118.741
L269.256 118.621
L270.149 118.592
L270.595 118.349
L272.827 118.317
L273.273 117.986
L274.166 117.997
L275.059 118.241
L275.952 118.059
L276.845 117.97
L277.291 117.831
L277.737 117.823
L278.63 117.606
L279.523 117.457
L279.969 116.881
L281.755 117.475
L282.201 117.421
L283.987 117.799
L284.433 117.643
L286.219 118.236
L286.665 117.911
L288.005 117.956
L288.451 118.051
L288.897 117.929
L291.129 119
L292.915 119.591
L293.361 119.283
L295.147 121.203
L296.486 122.084
L299.611 124.287
L300.057 124.335
L301.843 126.084
L302.289 126.189
L305.861 128.193
L306.307 128.488
L306.753 128.443
L308.985 130.566
L310.771 132.544
L311.664 133.189
L312.557 134.028
L313.003 134.489
L313.449 134.661
L317.467 139.375
L319.699 140.927
L320.145 140.901
L321.931 144.309
L322.824 145.657
L324.609 148.56
L326.395 151.113
L326.841 151.436
L328.627 153.526
L329.073 153.86
L333.091 158.322
L333.537 158.579
L335.769 163.835
L338.001 168.522
L339.787 171.681
L340.233 172.171
L342.019 174.874
L342.912 176.026
L346.483 181.03
L346.929 181.21
L350.947 189.088
L352.286 191.356
L353.179 192.93
L353.625 193.333
L355.857 196.482
L359.875 201.957
L360.321 202.066
L362.107 205.253
L363 206.555
L365.232 209.734
L366.571 211.611
L367.017 211.836
L368.803 214.655
L369.249 215.145
L371.928 219.092
L373.267 220.698
L373.713 220.824
L375.053 224.098
L376.838 228.099
L378.177 230.613
L379.963 234.075
L380.409 234.449
L382.195 237.785
L382.641 238.284
L383.981 240.149
L384.427 240.717
L385.32 241.555
L386.659 243.019
L387.105 243.023
L388.891 245.725
L389.337 246.088
L390.677 247.78
L391.123 248.312
L391.569 248.624
L393.355 250.536
L393.801 250.568
L396.926 252.613
L399.605 254.755
L400.051 255.161
L400.497 255.097
L402.729 259.337
L404.515 262.279
L405.408 263.29
L406.747 264.988
L407.193 265.158
L408.979 267.188
L409.425 267.479
L411.211 269.22
L412.104 269.723
L413.443 270.618
L413.889 270.546
L416.121 273.091
L417.461 274.228
L419.246 275.68
L420.139 276.528
L420.585 276.574
L422.371 278.227
L422.817 278.462
L426.835 282.126
L427.281 282.138
L431.299 287.936
L431.745 288.28
L436.209 293.066
L438.441 294.86
L440.227 296.232
L440.673 296.198
L442.905 300.08
L444.691 302.848
L445.137 303.24
L446.923 305.768
L447.369 306.073
L449.155 308.824
L449.601 309.257
L451.833 312.327
L453.619 314.871
L454.065 314.938
L455.851 319.619
L456.744 321.519
L458.083 324.602
L458.529 325.307
L460.315 329.358
L460.761 329.858
L462.547 333.125
L462.993 333.677
L464.779 336.895
L465.672 338.162
L467.011 340.227
L467.457 340.335
L469.243 344.622
L470.136 346.359
L471.921 349.843
L473.707 353.263
L474.153 353.646
L475.939 356.331
L476.385 356.6
L478.171 358.371
L478.617 358.598
L480.403 360.076
L480.849 359.926
L487.099 373.076
L487.545 373.607
L488.885 376.267
L489.331 376.731
L490.67 378.709
L492.456 380.757
L493.795 382.492
L494.241 382.535
L495.581 385.436
L496.473 386.853
L498.705 390.605
L500.491 393.343
L500.937 393.532
L502.277 395.361
L502.723 395.654
L504.062 396.971
L505.401 397.798
L507.187 398.924
L507.633 398.668
L509.419 402.425
L509.865 403.112
L511.651 406.821
L512.097 407.513
L513.883 411.58
L514.329 412.125
L516.115 415.773
L517.008 417.087
L518.347 419.199
L518.793 419.641
L520.579 422.034
L521.025 421.938
L522.365 423.909
L522.811 424.59
L523.704 425.39
L525.043 426.689
L525.489 426.92
L527.275 428.589
L527.721 428.537
L528.614 429.291
L529.507 429.82
L529.953 429.761
L531.739 430.069
L532.632 429.865
L533.971 429.762
L534.417 429.323
L536.203 430.747
L537.096 431.183
L538.435 431.997
L538.881 431.921
L540.667 432.495
L541.113 432.218
L542.453 432.241
L542.899 432.18
L543.792 431.749
L545.131 431.289
L547.363 429.279
L547.809 428.522
L550.041 427.647
L551.827 426.605
L552.273 426.084
L554.059 424.951
L554.505 424.325
L556.291 422.701
L557.184 421.655
L558.969 419.589
L560.755 417.386
L561.201 416.528
L562.541 415.168
L565.219 412.045
L566.558 409.879
L568.79 406.474
L570.129 404.55
L572.808 400.22
L575.04 396.479
L577.272 393.505
L580.843 388.284
L581.736 386.886
L583.521 384.262
L585.753 380.561
L588.432 375.642
L592.003 370.584
L593.342 368.621
L594.235 367.361
L595.128 365.778
L597.806 361.174
L600.931 355.584
L601.824 354.011
L604.502 349.951
L606.288 346.937
L612.537 336.236
L618.341 325.675
L623.251 316.884
L629.501 304.923
L637.536 289.559
L641.553 281.73
L646.464 273.486
L648.696 269.76
L658.963 252.317
L669.677 232.592
L679.497 216.347
L685.747 205.796
L691.104 196.327
L692.443 193.867
L692.443 193.867" style="fill:none;stroke:#ccb974;stroke-linecap:round;stroke-width:1.3;"/>
   </g>
   <g id="patch_3">
    <path d="
M51.8591 21.3181
L721.459 21.3181" style="fill:none;stroke:#cccccc;stroke-linecap:square;stroke-linejoin:miter;"/>
   </g>
   <g id="patch_4">
    <path d="
M721.459 467.718
L721.459 21.3181" style="fill:none;stroke:#cccccc;stroke-linecap:square;stroke-linejoin:miter;"/>
   </g>
   <g id="patch_5">
    <path d="
M51.8591 467.718
L721.459 467.718" style="fill:none;stroke:#cccccc;stroke-linecap:square;stroke-linejoin:miter;"/>
   </g>
   <g id="patch_6">
    <path d="
M51.8591 467.718
L51.8591 21.3181" style="fill:none;stroke:#cccccc;stroke-linecap:square;stroke-linejoin:miter;"/>
   </g>
   <g id="text_19">
    <!-- Average SOC for 2090 vehicles -->
    <defs>
     <path d="
M2.98438 54.6875
L12.5 54.6875
L29.5938 8.79688
L46.6875 54.6875
L56.2031 54.6875
L35.6875 0
L23.4844 0
z
" id="BitstreamVeraSans-Roman-76"/>
     <path d="
M45.4062 27.9844
Q45.4062 37.75 41.375 43.1094
Q37.3594 48.4844 30.0781 48.4844
Q22.8594 48.4844 18.8281 43.1094
Q14.7969 37.75 14.7969 27.9844
Q14.7969 18.2656 18.8281 12.8906
Q22.8594 7.51562 30.0781 7.51562
Q37.3594 7.51562 41.375 12.8906
Q45.4062 18.2656 45.4062 27.9844
M54.3906 6.78125
Q54.3906 -7.17188 48.1875 -13.9844
Q42 -20.7969 29.2031 -20.7969
Q24.4688 -20.7969 20.2656 -20.0938
Q16.0625 -19.3906 12.1094 -17.9219
L12.1094 -9.1875
Q16.0625 -11.3281 19.9219 -12.3438
Q23.7812 -13.375 27.7812 -13.375
Q36.625 -13.375 41.0156 -8.76562
Q45.4062 -4.15625 45.4062 5.17188
L45.4062 9.625
Q42.625 4.78125 38.2812 2.39062
Q33.9375 0 27.875 0
Q17.8281 0 11.6719 7.65625
Q5.51562 15.3281 5.51562 27.9844
Q5.51562 40.6719 11.6719 48.3281
Q17.8281 56 27.875 56
Q33.9375 56 38.2812 53.6094
Q42.625 51.2188 45.4062 46.3906
L45.4062 54.6875
L54.3906 54.6875
z
" id="BitstreamVeraSans-Roman-67"/>
     <path d="
M48.7812 52.5938
L48.7812 44.1875
Q44.9688 46.2969 41.1406 47.3438
Q37.3125 48.3906 33.4062 48.3906
Q24.6562 48.3906 19.8125 42.8438
Q14.9844 37.3125 14.9844 27.2969
Q14.9844 17.2812 19.8125 11.7344
Q24.6562 6.20312 33.4062 6.20312
Q37.3125 6.20312 41.1406 7.25
Q44.9688 8.29688 48.7812 10.4062
L48.7812 2.09375
Q45.0156 0.34375 40.9844 -0.53125
Q36.9688 -1.42188 32.4219 -1.42188
Q20.0625 -1.42188 12.7812 6.34375
Q5.51562 14.1094 5.51562 27.2969
Q5.51562 40.6719 12.8594 48.3281
Q20.2188 56 33.0156 56
Q37.1562 56 41.1094 55.1406
Q45.0625 54.2969 48.7812 52.5938" id="BitstreamVeraSans-Roman-63"/>
     <path d="
M34.1875 63.1875
L20.7969 26.9062
L47.6094 26.9062
z

M28.6094 72.9062
L39.7969 72.9062
L67.5781 0
L57.3281 0
L50.6875 18.7031
L17.8281 18.7031
L11.1875 0
L0.78125 0
z
" id="BitstreamVeraSans-Roman-41"/>
     <path d="
M9.42188 75.9844
L18.4062 75.9844
L18.4062 0
L9.42188 0
z
" id="BitstreamVeraSans-Roman-6c"/>
    </defs>
    <g style="fill:#262626;" transform="translate(293.946875 16.318125)scale(0.12 -0.12)">
     <use xlink:href="#BitstreamVeraSans-Roman-41"/>
     <use x="62.533203125" xlink:href="#BitstreamVeraSans-Roman-76"/>
     <use x="121.712890625" xlink:href="#BitstreamVeraSans-Roman-65"/>
     <use x="183.236328125" xlink:href="#BitstreamVeraSans-Roman-72"/>
     <use x="224.349609375" xlink:href="#BitstreamVeraSans-Roman-61"/>
     <use x="285.62890625" xlink:href="#BitstreamVeraSans-Roman-67"/>
     <use x="349.10546875" xlink:href="#BitstreamVeraSans-Roman-65"/>
     <use x="410.62890625" xlink:href="#BitstreamVeraSans-Roman-20"/>
     <use x="442.416015625" xlink:href="#BitstreamVeraSans-Roman-53"/>
     <use x="505.892578125" xlink:href="#BitstreamVeraSans-Roman-4f"/>
     <use x="584.603515625" xlink:href="#BitstreamVeraSans-Roman-43"/>
     <use x="654.427734375" xlink:href="#BitstreamVeraSans-Roman-20"/>
     <use x="686.21484375" xlink:href="#BitstreamVeraSans-Roman-66"/>
     <use x="721.419921875" xlink:href="#BitstreamVeraSans-Roman-6f"/>
     <use x="782.6015625" xlink:href="#BitstreamVeraSans-Roman-72"/>
     <use x="823.71484375" xlink:href="#BitstreamVeraSans-Roman-20"/>
     <use x="855.501953125" xlink:href="#BitstreamVeraSans-Roman-32"/>
     <use x="919.125" xlink:href="#BitstreamVeraSans-Roman-30"/>
     <use x="982.748046875" xlink:href="#BitstreamVeraSans-Roman-39"/>
     <use x="1046.37109375" xlink:href="#BitstreamVeraSans-Roman-30"/>
     <use x="1109.99414062" xlink:href="#BitstreamVeraSans-Roman-20"/>
     <use x="1141.78125" xlink:href="#BitstreamVeraSans-Roman-76"/>
     <use x="1200.9609375" xlink:href="#BitstreamVeraSans-Roman-65"/>
     <use x="1262.484375" xlink:href="#BitstreamVeraSans-Roman-68"/>
     <use x="1325.86328125" xlink:href="#BitstreamVeraSans-Roman-69"/>
     <use x="1353.64648438" xlink:href="#BitstreamVeraSans-Roman-63"/>
     <use x="1408.62695312" xlink:href="#BitstreamVeraSans-Roman-6c"/>
     <use x="1436.41015625" xlink:href="#BitstreamVeraSans-Roman-65"/>
     <use x="1497.93359375" xlink:href="#BitstreamVeraSans-Roman-73"/>
    </g>
   </g>
   <g id="legend_1">
    <g id="line2d_54">
     <path d="
M561.811 34.4166
L581.811 34.4166" style="fill:none;stroke:#4c72b0;stroke-linecap:round;stroke-width:1.3;"/>
    </g>
    <g id="line2d_55"/>
    <g id="text_20">
     <!-- default Leaf -->
     <defs>
      <path d="
M9.8125 72.9062
L19.6719 72.9062
L19.6719 8.29688
L55.1719 8.29688
L55.1719 0
L9.8125 0
z
" id="BitstreamVeraSans-Roman-4c"/>
     </defs>
     <g style="fill:#262626;" transform="translate(589.810625 37.9165625)scale(0.1 -0.1)">
      <use xlink:href="#BitstreamVeraSans-Roman-64"/>
      <use x="63.4765625" xlink:href="#BitstreamVeraSans-Roman-65"/>
      <use x="125.0" xlink:href="#BitstreamVeraSans-Roman-66"/>
      <use x="160.205078125" xlink:href="#BitstreamVeraSans-Roman-61"/>
      <use x="221.484375" xlink:href="#BitstreamVeraSans-Roman-75"/>
      <use x="284.86328125" xlink:href="#BitstreamVeraSans-Roman-6c"/>
      <use x="312.646484375" xlink:href="#BitstreamVeraSans-Roman-74"/>
      <use x="351.85546875" xlink:href="#BitstreamVeraSans-Roman-20"/>
      <use x="383.642578125" xlink:href="#BitstreamVeraSans-Roman-4c"/>
      <use x="437.60546875" xlink:href="#BitstreamVeraSans-Roman-65"/>
      <use x="499.12890625" xlink:href="#BitstreamVeraSans-Roman-61"/>
      <use x="560.408203125" xlink:href="#BitstreamVeraSans-Roman-66"/>
     </g>
    </g>
    <g id="line2d_56">
     <path d="
M561.811 49.0947
L581.811 49.0947" style="fill:none;stroke:#55a868;stroke-linecap:round;stroke-width:1.3;"/>
    </g>
    <g id="line2d_57"/>
    <g id="text_21">
     <!-- Leaf 20.0 % 23832 Wh -->
     <defs>
      <path d="
M40.5781 39.3125
Q47.6562 37.7969 51.625 33
Q55.6094 28.2188 55.6094 21.1875
Q55.6094 10.4062 48.1875 4.48438
Q40.7656 -1.42188 27.0938 -1.42188
Q22.5156 -1.42188 17.6562 -0.515625
Q12.7969 0.390625 7.625 2.20312
L7.625 11.7188
Q11.7188 9.32812 16.5938 8.10938
Q21.4844 6.89062 26.8125 6.89062
Q36.0781 6.89062 40.9375 10.5469
Q45.7969 14.2031 45.7969 21.1875
Q45.7969 27.6406 41.2812 31.2656
Q36.7656 34.9062 28.7188 34.9062
L20.2188 34.9062
L20.2188 43.0156
L29.1094 43.0156
Q36.375 43.0156 40.2344 45.9219
Q44.0938 48.8281 44.0938 54.2969
Q44.0938 59.9062 40.1094 62.9062
Q36.1406 65.9219 28.7188 65.9219
Q24.6562 65.9219 20.0156 65.0312
Q15.375 64.1562 9.8125 62.3125
L9.8125 71.0938
Q15.4375 72.6562 20.3438 73.4375
Q25.25 74.2188 29.5938 74.2188
Q40.8281 74.2188 47.3594 69.1094
Q53.9062 64.0156 53.9062 55.3281
Q53.9062 49.2656 50.4375 45.0938
Q46.9688 40.9219 40.5781 39.3125" id="BitstreamVeraSans-Roman-33"/>
      <path d="
M3.32812 72.9062
L13.2812 72.9062
L28.6094 11.2812
L43.8906 72.9062
L54.9844 72.9062
L70.3125 11.2812
L85.5938 72.9062
L95.6094 72.9062
L77.2969 0
L64.8906 0
L49.5156 63.2812
L33.9844 0
L21.5781 0
z
" id="BitstreamVeraSans-Roman-57"/>
     </defs>
     <g style="fill:#262626;" transform="translate(589.810625 52.5946875)scale(0.1 -0.1)">
      <use xlink:href="#BitstreamVeraSans-Roman-4c"/>
      <use x="53.962890625" xlink:href="#BitstreamVeraSans-Roman-65"/>
      <use x="115.486328125" xlink:href="#BitstreamVeraSans-Roman-61"/>
      <use x="176.765625" xlink:href="#BitstreamVeraSans-Roman-66"/>
      <use x="211.970703125" xlink:href="#BitstreamVeraSans-Roman-20"/>
      <use x="243.7578125" xlink:href="#BitstreamVeraSans-Roman-32"/>
      <use x="307.380859375" xlink:href="#BitstreamVeraSans-Roman-30"/>
      <use x="371.00390625" xlink:href="#BitstreamVeraSans-Roman-2e"/>
      <use x="402.791015625" xlink:href="#BitstreamVeraSans-Roman-30"/>
      <use x="466.4140625" xlink:href="#BitstreamVeraSans-Roman-20"/>
      <use x="498.201171875" xlink:href="#BitstreamVeraSans-Roman-25"/>
      <use x="593.220703125" xlink:href="#BitstreamVeraSans-Roman-20"/>
      <use x="625.0078125" xlink:href="#BitstreamVeraSans-Roman-32"/>
      <use x="688.630859375" xlink:href="#BitstreamVeraSans-Roman-33"/>
      <use x="752.25390625" xlink:href="#BitstreamVeraSans-Roman-38"/>
      <use x="815.876953125" xlink:href="#BitstreamVeraSans-Roman-33"/>
      <use x="879.5" xlink:href="#BitstreamVeraSans-Roman-32"/>
      <use x="943.123046875" xlink:href="#BitstreamVeraSans-Roman-20"/>
      <use x="974.91015625" xlink:href="#BitstreamVeraSans-Roman-57"/>
      <use x="1073.78710938" xlink:href="#BitstreamVeraSans-Roman-68"/>
     </g>
    </g>
    <g id="line2d_58">
     <path d="
M561.811 63.7728
L581.811 63.7728" style="fill:none;stroke:#c44e52;stroke-linecap:round;stroke-width:1.3;"/>
    </g>
    <g id="line2d_59"/>
    <g id="text_22">
     <!-- Leaf -20.0 % 23832 Wh -->
     <defs>
      <path d="
M4.89062 31.3906
L31.2031 31.3906
L31.2031 23.3906
L4.89062 23.3906
z
" id="BitstreamVeraSans-Roman-2d"/>
     </defs>
     <g style="fill:#262626;" transform="translate(589.810625 67.2728125)scale(0.1 -0.1)">
      <use xlink:href="#BitstreamVeraSans-Roman-4c"/>
      <use x="53.962890625" xlink:href="#BitstreamVeraSans-Roman-65"/>
      <use x="115.486328125" xlink:href="#BitstreamVeraSans-Roman-61"/>
      <use x="176.765625" xlink:href="#BitstreamVeraSans-Roman-66"/>
      <use x="211.970703125" xlink:href="#BitstreamVeraSans-Roman-20"/>
      <use x="243.7578125" xlink:href="#BitstreamVeraSans-Roman-2d"/>
      <use x="279.841796875" xlink:href="#BitstreamVeraSans-Roman-32"/>
      <use x="343.46484375" xlink:href="#BitstreamVeraSans-Roman-30"/>
      <use x="407.087890625" xlink:href="#BitstreamVeraSans-Roman-2e"/>
      <use x="438.875" xlink:href="#BitstreamVeraSans-Roman-30"/>
      <use x="502.498046875" xlink:href="#BitstreamVeraSans-Roman-20"/>
      <use x="534.28515625" xlink:href="#BitstreamVeraSans-Roman-25"/>
      <use x="629.3046875" xlink:href="#BitstreamVeraSans-Roman-20"/>
      <use x="661.091796875" xlink:href="#BitstreamVeraSans-Roman-32"/>
      <use x="724.71484375" xlink:href="#BitstreamVeraSans-Roman-33"/>
      <use x="788.337890625" xlink:href="#BitstreamVeraSans-Roman-38"/>
      <use x="851.9609375" xlink:href="#BitstreamVeraSans-Roman-33"/>
      <use x="915.583984375" xlink:href="#BitstreamVeraSans-Roman-32"/>
      <use x="979.20703125" xlink:href="#BitstreamVeraSans-Roman-20"/>
      <use x="1010.99414062" xlink:href="#BitstreamVeraSans-Roman-57"/>
      <use x="1109.87109375" xlink:href="#BitstreamVeraSans-Roman-68"/>
     </g>
    </g>
    <g id="line2d_60">
     <path d="
M561.811 78.4509
L581.811 78.4509" style="fill:none;stroke:#8172b2;stroke-linecap:round;stroke-width:1.3;"/>
    </g>
    <g id="line2d_61"/>
    <g id="text_23">
     <!-- Leaf default 28598.4 Wh -->
     <g style="fill:#262626;" transform="translate(589.810625 81.9509375)scale(0.1 -0.1)">
      <use xlink:href="#BitstreamVeraSans-Roman-4c"/>
      <use x="53.962890625" xlink:href="#BitstreamVeraSans-Roman-65"/>
      <use x="115.486328125" xlink:href="#BitstreamVeraSans-Roman-61"/>
      <use x="176.765625" xlink:href="#BitstreamVeraSans-Roman-66"/>
      <use x="211.970703125" xlink:href="#BitstreamVeraSans-Roman-20"/>
      <use x="243.7578125" xlink:href="#BitstreamVeraSans-Roman-64"/>
      <use x="307.234375" xlink:href="#BitstreamVeraSans-Roman-65"/>
      <use x="368.7578125" xlink:href="#BitstreamVeraSans-Roman-66"/>
      <use x="403.962890625" xlink:href="#BitstreamVeraSans-Roman-61"/>
      <use x="465.2421875" xlink:href="#BitstreamVeraSans-Roman-75"/>
      <use x="528.62109375" xlink:href="#BitstreamVeraSans-Roman-6c"/>
      <use x="556.404296875" xlink:href="#BitstreamVeraSans-Roman-74"/>
      <use x="595.61328125" xlink:href="#BitstreamVeraSans-Roman-20"/>
      <use x="627.400390625" xlink:href="#BitstreamVeraSans-Roman-32"/>
      <use x="691.0234375" xlink:href="#BitstreamVeraSans-Roman-38"/>
      <use x="754.646484375" xlink:href="#BitstreamVeraSans-Roman-35"/>
      <use x="818.26953125" xlink:href="#BitstreamVeraSans-Roman-39"/>
      <use x="881.892578125" xlink:href="#BitstreamVeraSans-Roman-38"/>
      <use x="945.515625" xlink:href="#BitstreamVeraSans-Roman-2e"/>
      <use x="977.302734375" xlink:href="#BitstreamVeraSans-Roman-34"/>
      <use x="1040.92578125" xlink:href="#BitstreamVeraSans-Roman-20"/>
      <use x="1072.71289062" xlink:href="#BitstreamVeraSans-Roman-57"/>
      <use x="1171.58984375" xlink:href="#BitstreamVeraSans-Roman-68"/>
     </g>
    </g>
    <g id="line2d_62">
     <path d="
M561.811 93.1291
L581.811 93.1291" style="fill:none;stroke:#ccb974;stroke-linecap:round;stroke-width:1.3;"/>
    </g>
    <g id="line2d_63"/>
    <g id="text_24">
     <!-- Leaf default 19065.6 Wh -->
     <g style="fill:#262626;" transform="translate(589.810625 96.6290625)scale(0.1 -0.1)">
      <use xlink:href="#BitstreamVeraSans-Roman-4c"/>
      <use x="53.962890625" xlink:href="#BitstreamVeraSans-Roman-65"/>
      <use x="115.486328125" xlink:href="#BitstreamVeraSans-Roman-61"/>
      <use x="176.765625" xlink:href="#BitstreamVeraSans-Roman-66"/>
      <use x="211.970703125" xlink:href="#BitstreamVeraSans-Roman-20"/>
      <use x="243.7578125" xlink:href="#BitstreamVeraSans-Roman-64"/>
      <use x="307.234375" xlink:href="#BitstreamVeraSans-Roman-65"/>
      <use x="368.7578125" xlink:href="#BitstreamVeraSans-Roman-66"/>
      <use x="403.962890625" xlink:href="#BitstreamVeraSans-Roman-61"/>
      <use x="465.2421875" xlink:href="#BitstreamVeraSans-Roman-75"/>
      <use x="528.62109375" xlink:href="#BitstreamVeraSans-Roman-6c"/>
      <use x="556.404296875" xlink:href="#BitstreamVeraSans-Roman-74"/>
      <use x="595.61328125" xlink:href="#BitstreamVeraSans-Roman-20"/>
      <use x="627.400390625" xlink:href="#BitstreamVeraSans-Roman-31"/>
      <use x="691.0234375" xlink:href="#BitstreamVeraSans-Roman-39"/>
      <use x="754.646484375" xlink:href="#BitstreamVeraSans-Roman-30"/>
      <use x="818.26953125" xlink:href="#BitstreamVeraSans-Roman-36"/>
      <use x="881.892578125" xlink:href="#BitstreamVeraSans-Roman-35"/>
      <use x="945.515625" xlink:href="#BitstreamVeraSans-Roman-2e"/>
      <use x="977.302734375" xlink:href="#BitstreamVeraSans-Roman-36"/>
      <use x="1040.92578125" xlink:href="#BitstreamVeraSans-Roman-20"/>
      <use x="1072.71289062" xlink:href="#BitstreamVeraSans-Roman-57"/>
      <use x="1171.58984375" xlink:href="#BitstreamVeraSans-Roman-68"/>
     </g>
    </g>
   </g>
  </g>
 </g>
 <defs>
  <clipPath id="p77e959d7d9">
   <rect height="446.4" width="669.6" x="51.8590625" y="21.318125"/>
  </clipPath>
 </defs>
</svg>
